<svg width="640" height="287" viewBox="0 0 640 287" fill="none" xmlns="http://www.w3.org/2000/svg">
<rect x="4" y="24" width="112" height="112" rx="16" fill="#F7FAFC"/>
<rect x="333" y="234" width="112" height="53" rx="12" fill="#F7FAFC"/>
<path d="M275.324 21.6256C278.32 18.6622 282.363 17 286.577 17H624C632.837 17 640 24.1634 640 33V208.313C640 217.413 632.42 224.681 623.328 224.299L129.678 203.542C115.717 202.955 109.163 186.009 119.097 176.182L275.324 21.6256Z" fill="#F7FAFC"/>
<rect x="88" width="400" height="76" rx="6" fill="white"/>
<rect x="102.167" y="18.1665" width="39.6669" height="42.6669" rx="2.498" fill="#E6E6E6" stroke="#E6E6E6" stroke-width="0.333067"/>
<rect x="201" y="54" width="8" height="3" rx="1.5" fill="#E6E6E6"/>
<rect x="218" y="54" width="8" height="3" rx="1.5" fill="#E6E6E6"/>
<rect x="236" y="54" width="8" height="3" rx="1.5" fill="#E6E6E6"/>
<rect x="254" y="54" width="8" height="3" rx="1.5" fill="#E6E6E6"/>
<rect x="160" y="53" width="33" height="5" rx="2.5" fill="#E6E6E6"/>
<rect x="160" y="18" width="60" height="7" rx="3.5" fill="#E6E6E6"/>
<rect x="160" y="30" width="288" height="5" rx="2.5" fill="#E6E6E6"/>
<rect x="160" y="37" width="288" height="5" rx="2.5" fill="#E6E6E6"/>
<rect x="160" y="43" width="288" height="5" rx="2.5" fill="#E6E6E6"/>
<rect x="215" y="86" width="400" height="76" rx="6" fill="white"/>
<rect x="229.167" y="104.167" width="39.6669" height="42.6669" rx="2.498" fill="#E6E6E6" stroke="#E6E6E6" stroke-width="0.333067"/>
<rect x="327" y="140" width="8" height="3" rx="1.5" fill="#E6E6E6"/>
<rect x="344" y="140" width="8" height="3" rx="1.5" fill="#E6E6E6"/>
<rect x="362" y="140" width="8" height="3" rx="1.5" fill="#E6E6E6"/>
<rect x="380" y="140" width="8" height="3" rx="1.5" fill="#E6E6E6"/>
<rect x="286" y="139" width="33" height="5" rx="2.5" fill="#E6E6E6"/>
<rect x="286" y="104" width="60" height="7" rx="3.5" fill="#E6E6E6"/>
<rect x="286" y="116" width="288" height="5" rx="2.5" fill="#E6E6E6"/>
<rect x="286" y="123" width="288" height="5" rx="2.5" fill="#E6E6E6"/>
<rect x="286" y="129" width="288" height="5" rx="2.5" fill="#E6E6E6"/>
<rect y="172" width="400" height="76" rx="6" fill="white"/>
<rect x="14.1665" y="190.167" width="39.6669" height="42.6669" rx="2.498" fill="#E6E6E6" stroke="#E6E6E6" stroke-width="0.333067"/>
<rect x="113" y="226" width="8" height="3" rx="1.5" fill="#E6E6E6"/>
<rect x="130" y="226" width="8" height="3" rx="1.5" fill="#E6E6E6"/>
<rect x="148" y="226" width="8" height="3" rx="1.5" fill="#E6E6E6"/>
<rect x="166" y="226" width="8" height="3" rx="1.5" fill="#E6E6E6"/>
<rect x="72" y="225" width="33" height="5" rx="2.5" fill="#E6E6E6"/>
<rect x="72" y="190" width="60" height="7" rx="3.5" fill="#E6E6E6"/>
<rect x="72" y="202" width="288" height="5" rx="2.5" fill="#E6E6E6"/>
<rect x="72" y="209" width="288" height="5" rx="2.5" fill="#E6E6E6"/>
<rect x="72" y="215" width="288" height="5" rx="2.5" fill="#E6E6E6"/>
</svg>
