<svg width="570" height="400" viewBox="0 0 570 400" fill="none" xmlns="http://www.w3.org/2000/svg">
<g clip-path="url(#clip0_30810_24256)">
<path d="M71.3594 296.449C67.0466 293.169 62.8532 290.048 59.3754 286.061C53.236 279.022 49.6538 271.258 50.9737 262.479C52.1019 254.976 56.7163 248.452 61.9696 242.628C66.9011 237.16 72.7041 232.495 78.9804 228.226C85.8996 223.521 93.4177 219.308 97.6236 211.855C102.093 203.935 104.668 196.104 104.564 186.748C104.389 171.138 97.9588 157.307 92.6855 143.187C88.7816 132.733 84.6354 122.287 80.5106 111.88C78.2705 106.228 78.7372 99.6315 78.323 93.4419C77.9642 88.0805 80.5523 83.4995 83.7747 79.1781C89.7078 71.2214 97.6393 65.2939 107.343 61.9199C115.72 59.0075 124.489 58.0833 133.509 60.9874C135.93 61.7666 139.091 64.2081 142.357 61.701C142.657 61.4705 141.898 64.7115 144.181 64.4887C146.335 64.2786 147.49 65.6365 149.11 66.284C157.57 69.6654 165.136 74.4479 172.838 78.9761C186.757 87.1599 199.875 96.6916 215.172 102.586C223.035 105.615 230.846 109.163 240.142 109.431C246.877 109.625 253.34 110.235 260.182 109.199C274.482 107.035 285.891 100.043 296.495 91.9709C302.438 87.4468 308.146 82.5638 313.96 77.8412C318.257 74.3508 323.47 71.899 328.322 69.5475C331.625 67.9462 336.401 66.9194 340.802 66.585C348.999 65.9624 356.3 68.2645 362.647 72.555C367.787 76.0289 370.521 81.3508 373.592 86.506C376.469 91.3367 377.45 96.6366 379.962 101.513C381.868 105.216 381.559 109.831 383.206 113.695C386.542 121.515 392.835 125.329 402.448 126.031C415.248 126.965 428.077 127.315 440.91 127.71C446.232 127.873 452.013 128.851 456.639 131.847C459.863 133.935 462.929 136.67 461.884 140.826C461.273 143.26 462.689 145.327 462.39 147.855C461.966 151.45 460.279 154.388 458.792 157.296C454.994 164.728 451.952 172.309 449.858 180.286C447.68 188.585 448.428 196.862 452.265 204.22C455.353 210.142 459.052 216.034 462.6 221.801C466.884 228.764 470.218 236.691 471.155 245.167C471.757 250.607 471.866 256.048 471.347 261.346C470.881 266.113 468.729 270.848 466.682 275.355C463.832 281.63 457.722 286.472 454.681 292.057C450.928 298.95 446.19 295.964 441.825 296.491C434.519 297.373 427.058 295.795 419.688 297.321C418.264 297.615 416.464 296.397 414.461 295.905C413.862 296.019 413.64 296.104 413.113 296.368C412.534 296.571 412.259 296.595 411.571 296.61C411.258 296.479 411.346 296.347 411.46 296.238C411.771 295.941 411.66 295.877 411.112 295.88C402.959 295.911 394.805 295.889 386.212 295.888C385.194 295.878 384.617 295.853 383.628 295.73C381.904 295.087 381.182 294.077 380.862 292.854C375.077 270.745 368.279 248.874 362.213 226.831C362.133 226.54 362.13 226.229 362.082 225.542C362.163 224.638 362.346 224.152 362.944 223.431C365.427 222.069 367.806 222.439 370.106 222.436C392.735 222.406 415.365 222.419 437.995 222.417C439.326 222.417 440.658 222.448 441.987 222.386C443.344 222.322 444.798 222.234 445.035 220.656C445.306 218.856 443.721 218.752 442.419 218.683C436.671 218.379 436.553 213.222 434.475 210.24C432.202 206.978 429.936 205.948 426.144 206.064C421.99 206.19 417.826 206.127 413.666 206.042C409.984 205.967 407.545 204.642 407.445 200.984C407.372 198.34 406.681 196.264 403.423 195.496C401.423 195.025 400.995 193.226 400.326 191.638C398.974 188.43 396.669 187.976 394.77 190.755C392.421 194.193 389.834 194.55 386.593 192.147C384.644 190.702 382.705 190.583 380.607 191.653C377.759 193.105 375.129 192.92 372.087 191.697C367.531 189.865 365.497 191.099 365.599 195.72C365.714 200.902 364.507 205.968 364.553 211.124C364.567 212.637 364.246 214.167 362.585 215.513C359.722 216.484 359.141 214.847 358.503 213.216C357.728 211.234 357.21 209.163 355.825 207.065C355.327 206.716 355.115 206.592 354.558 206.321C349.008 205.492 343.762 206.141 338.174 205.744C335.309 205.178 334.668 203.193 333.788 201.422C330.125 194.046 320.71 192.826 315.981 199.948C321.958 192.262 330.212 195.592 332.899 200.483C333.833 202.183 334.546 203.869 332.055 205.471C322.055 206.221 312.413 205.77 302.337 205.855C300.401 205.765 299.129 205.253 297.869 203.96C296.912 202.655 296.657 201.443 295.952 200.398C291.324 193.531 283.61 193.309 278.267 199.916C285.572 193.01 292.442 194.147 296.621 203.313C296.383 204.445 295.844 204.986 294.681 205.519C284.439 206.176 274.606 205.791 264.332 205.851C261.606 205.71 260.183 204.66 259.622 202.252C254.402 192.875 245.484 193.45 240.918 200.064C241.347 199.598 240.846 200.337 241 200.163C247.663 192.634 253.634 194.78 259.425 201.509C259.852 203.481 259.599 204.858 257.257 205.645C248.841 206.118 240.829 205.717 232.446 206.03C230.644 206.51 229.552 207.238 229.084 208.954C228.84 209.669 228.683 210.075 228.444 210.8C227.728 213.79 226.544 216.318 225.851 219.34C221.96 229.687 219.527 240.032 216.527 250.233C212.318 264.548 208.414 278.938 203.949 293.588C203.582 294.15 203.405 294.361 202.883 294.826C202.035 295.384 201.492 295.613 200.457 295.808C194.151 295.839 188.293 296.264 182.071 295.361C180.785 290.795 181.765 289.318 186.383 289.418C190.385 289.505 191.583 288.114 191.558 284.613C191.432 267.422 191.438 250.23 191.559 233.04C191.581 229.91 190.476 228.697 187 228.703C157.182 228.751 127.363 228.756 97.544 228.703C94.0013 228.697 92.4054 229.798 92.423 233.208C92.5127 250.55 92.4888 267.894 92.4348 285.237C92.4259 288.099 93.3943 289.385 96.752 289.224C99.4564 289.095 101.703 290.068 101.616 293.509C99.4277 296.34 96.4417 295.837 93.679 295.927C86.3773 296.164 79.0592 295.516 71.3594 296.449Z" fill="#2D3748"/>
<path d="M376.292 296.95C375.292 296.631 374.501 296.518 373.375 296.626C373.316 295.198 372.106 295.277 370.576 295.348C369.7 295.495 369.163 295.518 368.217 295.408C362.269 295.679 356.655 294.453 351.037 296.371C350.771 296.849 350.636 296.967 350.298 296.909C350.336 295.821 350.162 295.19 348.601 295.261C347.488 295.516 346.738 295.961 345.738 295.519C345.507 295.478 345.36 295.717 345.06 296.345C344.773 296.875 344.637 297.015 344.296 296.945C343.964 296.619 343.837 296.504 343.467 296.282C342.92 296.121 342.616 296.067 341.848 295.972C314.208 295.575 287.023 296.491 259.409 295.408C255.132 295.446 253.419 293.447 252.459 290.27C246.765 271.425 241.856 252.391 235.911 233.192C235.512 230.924 234.349 229.032 236.195 226.893C238.421 225.763 240.43 225.777 242.423 225.743C245.249 225.695 248.076 225.673 250.901 225.73C283.811 226.394 316.693 224.562 349.598 224.81C352.423 224.831 355.253 224.723 358.532 225.173C359.909 225.492 360.752 225.842 361.798 226.677C366.855 243.623 371.651 260.277 376.374 276.949C378.029 282.791 380.308 288.508 380.839 294.946C380.506 295.803 380.123 296.154 379.223 296.188C378.404 296.133 377.954 296.259 377.209 296.564C376.776 296.88 376.638 297.018 376.292 296.95Z" fill="#FBFCFD"/>
<path d="M236.674 232.667C242.339 250.993 247.638 269.122 252.931 287.252C253.402 288.862 253.809 290.488 254.302 292.093C254.712 293.426 255.172 294.769 257.548 294.823C258.077 295.058 258.196 295.204 258.288 295.622C257.819 296.342 257.206 296.321 256.365 296.517C256.105 296.649 255.711 296.806 255.497 296.83C255.023 296.954 254.763 297.055 254.113 297.003C253.724 296.85 253.281 296.796 253.076 296.716C252.171 296.212 251.393 296.361 250.377 296.506C250.122 296.629 249.712 296.792 249.49 296.821C249.012 296.952 248.756 297.054 248.114 297.002C247.729 296.849 247.296 296.793 247.096 296.712C246.896 296.631 246.498 296.415 246.299 296.523C246.1 296.631 245.701 296.793 245.485 296.821C245.013 296.952 244.756 297.054 244.114 297.002C243.405 296.841 243.081 296.838 242.513 296.844C242.013 296.951 241.756 297.053 241.114 297.001C240.73 296.847 240.281 296.79 240.072 296.709C238.53 296.095 237.133 296.413 235.445 296.501C235.127 296.626 234.713 296.789 234.49 296.819C234.011 296.951 233.755 297.054 233.116 297.002C232.732 296.847 232.284 296.789 232.077 296.707C231.167 296.215 230.392 296.361 229.378 296.503C229.123 296.625 228.711 296.788 228.488 296.818C228.01 296.951 227.754 297.054 227.116 297.002C226.732 296.847 226.289 296.789 226.083 296.708C225.507 296.428 225.107 296.345 224.396 296.503C224.112 296.63 223.707 296.792 223.489 296.821C223.013 296.951 222.755 297.054 222.113 297.002C221.728 296.848 221.286 296.794 221.082 296.714C220.172 296.211 219.39 296.361 218.37 296.509C218.114 296.635 217.709 296.795 217.49 296.822C217.014 296.952 216.757 297.054 216.114 297.002C215.728 296.848 215.297 296.793 215.098 296.712C214.9 296.632 214.498 296.415 214.297 296.523C214.096 296.631 213.7 296.793 213.485 296.821C213.013 296.951 212.756 297.054 212.114 297.002C211.405 296.84 211.081 296.838 210.513 296.844C210.014 296.95 209.759 297.053 209.121 297C208.738 296.844 208.279 296.777 208.066 296.692C206.396 296.081 204.854 296.494 203.036 296.103C202.449 295.515 202.36 295.067 202.576 294.267C209.862 269.017 217.006 244.09 224.348 218.865C225.126 218.662 225.635 218.892 226.336 219.561C227.751 221.936 227.216 224.01 226.629 226.09C220.896 246.413 215.102 266.721 209.152 286.992C207.366 293.074 207.684 293.492 214.602 293.508C224.094 293.531 233.587 293.528 243.079 293.509C249.899 293.496 250.203 293.249 248.498 287.395C244.348 273.139 240.323 258.854 236.17 244.599C235.117 240.981 233.177 237.437 234.482 233.167C235.188 232.527 235.721 232.404 236.674 232.667Z" fill="#5C6D7D"/>
<path d="M165.34 296.505C159.259 297.519 153.39 296.771 147.534 296.991C146.765 297.02 146.004 297.22 145.124 297.077C144.023 296.078 142.544 296.293 141.435 295.077C140.243 292.858 139.893 290.73 138.81 288.44C136.943 283.476 135.882 278.694 134.515 273.99C132.879 268.36 134.58 266.387 140.963 266.139C142.461 266.081 143.962 266.096 145.873 266.178C146.829 266.239 147.373 266.254 148.316 266.262C149.504 266.274 150.292 266.192 151.47 266.253C152.632 266.28 153.405 266.295 154.566 266.258C155.473 266.198 155.995 266.185 156.911 266.222C158.104 266.265 158.904 266.274 160.114 266.246C163.011 266.008 165.509 266.04 167.99 266.197C173.072 266.52 174.619 268.232 173.393 272.693C172.02 277.689 170.739 282.721 168.696 287.934C168.302 289.702 167.796 291.063 167.229 292.77C166.615 294.153 166.333 295.293 165.34 296.505Z" fill="#577387"/>
<path d="M379.228 296.198C380.226 294.235 379.501 292.421 378.962 290.541C373.06 269.956 367.2 249.361 361.331 228.41C361.252 227.185 361.299 226.35 362.495 225.63C369.114 246.866 375.273 268.158 381.431 289.451C381.896 291.058 382.357 292.667 382.952 294.607C383.419 295.332 383.542 295.775 383.249 296.568C383.041 296.869 383.002 296.815 383.036 296.825C382.859 296.932 382.648 297.03 382.127 296.971C381.816 296.814 381.333 296.81 381.108 296.729C380.468 296.44 380.024 296.333 379.228 296.198Z" fill="#656F7B"/>
<path d="M141.831 294.703C143.015 295.458 143.797 295.963 144.794 296.641C131.951 297.425 118.869 297.14 105.811 297.237C94.7782 297.318 83.7003 297.266 72.6472 296.986C72.337 296.978 72.0306 296.843 71.3379 296.707C71.4892 294.101 73.7276 294.991 75.3614 294.928C83.648 294.609 91.9718 295.522 100.655 294.282C101.362 294.109 101.639 293.841 101.936 293.823C114.66 293.021 127.384 292.986 140.107 293.846C140.607 293.88 141 294.227 141.831 294.703Z" fill="#BCC2CC"/>
<path d="M258.127 296.412C257.962 295.782 257.972 295.533 257.965 295.098C280.091 294.903 302.223 294.839 324.354 294.92C330.661 294.943 336.988 294.433 343.256 295.724C343.033 296.22 342.833 296.264 342.376 296.461C342.118 296.614 341.702 296.782 341.478 296.817C341.002 296.954 340.751 297.055 340.123 297.004C339.746 296.851 339.249 296.831 339.249 296.831C339.249 296.831 338.751 296.832 338.503 296.842C338.002 296.954 337.751 297.055 337.122 297.004C336.745 296.851 336.282 296.781 336.066 296.697C334.521 296.112 333.138 296.406 331.458 296.495C331.14 296.614 330.713 296.782 330.483 296.817C330.002 296.954 329.75 297.055 329.121 297.004C328.743 296.852 328.286 296.784 328.073 296.701C327.161 296.217 326.393 296.36 325.385 296.499C325.131 296.618 324.709 296.784 324.482 296.819C324.004 296.954 323.752 297.055 323.122 297.004C322.744 296.852 322.29 296.783 322.078 296.7C321.499 296.428 321.107 296.343 320.405 296.497C320.125 296.618 319.706 296.784 319.481 296.819C319.004 296.954 318.751 297.055 318.121 297.004C317.742 296.852 317.286 296.785 317.073 296.702C316.162 296.217 315.392 296.36 314.384 296.5C314.13 296.62 313.709 296.786 313.483 296.819C313.005 296.954 312.752 297.055 312.121 297.004C311.742 296.852 311.298 296.785 311.092 296.702C310.887 296.618 310.498 296.414 310.304 296.516C310.109 296.618 309.699 296.785 309.478 296.819C309.004 296.954 308.751 297.055 308.12 297.004C307.742 296.852 307.248 296.835 307.248 296.835C307.248 296.835 306.753 296.836 306.506 296.844C306.006 296.954 305.752 297.055 305.118 297.004C304.738 296.853 304.283 296.79 304.072 296.708C302.528 296.099 301.135 296.41 299.449 296.501C299.131 296.625 298.711 296.789 298.486 296.821C298.006 296.955 297.753 297.055 297.119 297.004C296.739 296.853 296.286 296.788 296.075 296.706C295.165 296.215 294.392 296.361 293.381 296.503C293.127 296.625 292.709 296.789 292.485 296.821C292.007 296.955 291.753 297.055 291.119 297.005C290.739 296.853 290.289 296.788 290.08 296.705C289.504 296.428 289.109 296.346 288.405 296.498C288.123 296.62 287.706 296.786 287.482 296.819C287.004 296.954 286.752 297.055 286.12 297.004C285.741 296.852 285.286 296.786 285.074 296.704C284.161 296.216 283.389 296.36 282.379 296.504C282.125 296.627 281.71 296.791 281.486 296.823C281.008 296.955 280.753 297.056 280.117 297.005C279.735 296.854 279.298 296.793 279.096 296.712C278.894 296.631 278.498 296.415 278.3 296.523C278.102 296.631 277.699 296.793 277.482 296.824C277.009 296.955 276.754 297.056 276.117 297.005C275.735 296.854 275.245 296.84 275.245 296.84C275.245 296.84 274.754 296.84 274.509 296.847C274.009 296.955 273.754 297.056 273.117 297.005C272.735 296.853 272.283 296.792 272.073 296.711C270.531 296.093 269.135 296.414 267.447 296.502C267.13 296.628 266.711 296.791 266.486 296.822C266.007 296.955 265.753 297.055 265.117 297.005C264.736 296.853 264.287 296.792 264.078 296.712C263.167 296.214 262.39 296.361 261.376 296.508C261.121 296.633 260.709 296.794 260.487 296.825C260.01 296.955 259.754 297.056 259.116 297.005C258.733 296.854 258.314 296.795 258.127 296.412Z" fill="#656F7B"/>
<path d="M165.505 296.781C165.141 295.66 165.173 294.546 165.415 293.151C170.79 293.959 176.233 292.546 181.689 294.549C188.061 294.804 194.065 294.835 200.536 294.843C201.184 294.712 201.365 294.605 201.762 294.278C201.978 294.058 202.344 293.979 202.531 293.961C202.779 294.368 202.841 294.793 202.972 295.535C203.219 296.004 203.396 296.155 203.264 296.484C198.444 297.318 193.908 296.99 189.378 296.944C183.357 296.883 177.304 296.51 171.334 296.991C169.407 297.147 167.708 296.257 165.505 296.781Z" fill="#BCC3CE"/>
<path d="M384.866 295.316C392.666 295.093 400.207 295.012 407.744 295.134C409.073 295.155 411.046 293.962 411.486 296.379C410.636 296.689 410.115 296.779 409.418 296.86C408.995 296.953 408.748 297.054 408.132 297.003C407.131 296.854 406.499 296.859 405.552 296.857C404.99 296.952 404.744 297.054 404.13 297.003C403.422 296.855 403.083 296.86 402.491 296.858C401.99 296.952 401.744 297.054 401.127 297.003C398.857 296.856 396.956 296.862 394.648 296.86C393.994 296.953 393.746 297.054 393.127 297.003C391.502 296.857 390.248 296.863 388.618 296.86C387.994 296.953 387.747 297.054 387.128 297.003C386.35 296.848 385.943 296.845 385.243 296.762C384.622 296.35 384.517 295.963 384.866 295.316Z" fill="#9299A4"/>
<path d="M235.521 296.65C236.451 295.621 237.911 295.882 239.623 296.435C238.548 296.643 237.232 296.659 235.521 296.65Z" fill="#9299A4"/>
<path d="M203.362 296.706C202.956 296.66 203.008 296.257 203.025 296.054C204.461 295.975 205.879 296.099 207.575 296.415C206.492 296.655 205.13 296.703 203.362 296.706Z" fill="#9299A4"/>
<path d="M331.531 296.64C332.46 295.664 333.905 295.902 335.605 296.43C334.54 296.631 333.232 296.649 331.531 296.64Z" fill="#9299A4"/>
<path d="M299.525 296.651C300.458 295.665 301.911 295.913 303.617 296.439C302.547 296.643 301.233 296.661 299.525 296.651Z" fill="#9299A4"/>
<path d="M267.523 296.654C268.458 295.67 269.913 295.919 271.62 296.443C270.548 296.647 269.233 296.664 267.523 296.654Z" fill="#9299A4"/>
<path d="M345.676 295.699C346.364 295.136 347.073 295.033 348.033 295.082C348.169 297.285 346.855 296.542 345.676 295.699Z" fill="#9299A4"/>
<path d="M384.792 295.032C385.107 295.458 385.087 295.81 385.009 296.422C384.525 296.709 384.098 296.736 383.357 296.816C382.981 296.44 382.921 296.011 382.973 295.26C383.543 294.945 384 294.952 384.792 295.032Z" fill="#C8CCD6"/>
<path d="M282.467 296.653C282.813 295.934 283.618 295.912 284.677 296.452C284.178 296.64 283.493 296.659 282.467 296.653Z" fill="#9299A4"/>
<path d="M367.717 295.594C368.358 295.27 368.903 295.164 369.84 295.215C370.375 295.638 370.519 295.905 370.447 296.322C369.988 296.677 369.745 296.88 369.147 296.769C368.402 296.241 368.011 296.028 367.717 295.594Z" fill="#656F7B"/>
<path d="M467.844 297.016C466.993 296.31 466.748 295.773 467.328 295.321C467.581 295.124 468.442 295.151 468.599 295.353C469.162 296.08 469.36 296.886 467.844 297.016Z" fill="#718096"/>
<path d="M325.473 296.645C325.818 295.922 326.618 295.876 327.678 296.446C327.179 296.636 326.496 296.653 325.473 296.645Z" fill="#9299A4"/>
<path d="M218.459 296.658C218.799 295.884 219.616 295.847 220.697 296.45C220.186 296.65 219.495 296.666 218.459 296.658Z" fill="#9299A4"/>
<path d="M229.467 296.649C229.811 295.908 230.619 295.868 231.688 296.448C231.183 296.641 230.496 296.657 229.467 296.649Z" fill="#9299A4"/>
<path d="M314.471 296.646C314.817 295.929 315.618 295.892 316.677 296.448C316.177 296.636 315.494 296.654 314.471 296.646Z" fill="#9299A4"/>
<path d="M293.469 296.65C293.817 295.932 294.622 295.907 295.68 296.453C295.18 296.641 294.495 296.659 293.469 296.65Z" fill="#9299A4"/>
<path d="M250.465 296.653C250.809 295.902 251.617 295.851 252.69 296.455C252.183 296.649 251.496 296.663 250.465 296.653Z" fill="#9299A4"/>
<path d="M261.465 296.658C261.813 295.933 262.625 295.923 263.685 296.458C263.182 296.648 262.495 296.666 261.465 296.658Z" fill="#9299A4"/>
<path d="M320.414 296.643C320.513 296.114 320.99 295.961 321.729 296.465C321.479 296.633 321.092 296.651 320.414 296.643Z" fill="#9299A4"/>
<path d="M224.406 296.652C224.498 296.09 224.983 295.933 225.741 296.466C225.485 296.643 225.093 296.659 224.406 296.652Z" fill="#9299A4"/>
<path d="M378.93 296.086C379.375 296.132 379.843 296.196 380.598 296.453C380.376 296.612 379.867 296.576 379.106 296.273C378.854 296.006 378.954 296.103 378.93 296.086Z" fill="#9299A4"/>
<path d="M288.414 296.646C288.515 296.114 288.996 295.971 289.734 296.47C289.482 296.639 289.093 296.655 288.414 296.646Z" fill="#9299A4"/>
<path d="M257.682 296.031C257.941 296.029 257.959 296.333 257.944 296.484C257.524 296.653 257.119 296.672 256.41 296.67C256.545 296.444 256.984 296.238 257.682 296.031Z" fill="#9299A4"/>
<path d="M296.855 297.132C296.994 296.807 297.247 296.76 297.881 296.784C298.007 297.379 297.812 298.02 296.855 297.132Z" fill="#9299A4"/>
<path d="M328.857 297.132C328.996 296.807 329.248 296.761 329.877 296.784C330.005 297.381 329.813 298.019 328.857 297.132Z" fill="#9299A4"/>
<path d="M322.857 297.131C322.996 296.806 323.248 296.761 323.878 296.784C324.005 297.38 323.813 298.019 322.857 297.131Z" fill="#9299A4"/>
<path d="M317.855 297.132C317.994 296.806 318.246 296.761 318.877 296.784C319.004 297.38 318.811 298.019 317.855 297.132Z" fill="#9299A4"/>
<path d="M311.855 297.132C311.994 296.806 312.247 296.761 312.878 296.784C313.005 297.38 312.811 298.019 311.855 297.132Z" fill="#9299A4"/>
<path d="M307.855 297.132C307.994 296.806 308.246 296.761 308.877 296.784C309.005 297.38 308.811 298.019 307.855 297.132Z" fill="#9299A4"/>
<path d="M304.859 297.141C304.991 296.802 305.244 296.752 305.878 296.778C306.126 297.587 305.822 298.005 304.859 297.141Z" fill="#9299A4"/>
<path d="M344.035 297.042C344.091 296.735 344.499 296.512 344.704 296.623C344.807 297.046 344.706 297.357 344.605 297.669C344.396 297.562 344.188 297.456 344.035 297.042Z" fill="#9299A4"/>
<path d="M290.855 297.132C290.994 296.807 291.247 296.76 291.881 296.784C292.007 297.379 291.812 298.019 290.855 297.132Z" fill="#9299A4"/>
<path d="M285.855 297.132C285.994 296.806 286.247 296.761 286.878 296.784C287.005 297.38 286.811 298.019 285.855 297.132Z" fill="#9299A4"/>
<path d="M279.852 297.133C279.989 296.806 280.244 296.759 280.881 296.783C281.006 297.379 280.81 298.02 279.852 297.133Z" fill="#9299A4"/>
<path d="M275.852 297.133C275.99 296.806 276.245 296.759 276.882 296.783C277.007 297.378 276.81 298.02 275.852 297.133Z" fill="#9299A4"/>
<path d="M272.859 297.141C272.991 296.802 273.246 296.751 273.883 296.777C274.128 297.586 273.823 298.005 272.859 297.141Z" fill="#9299A4"/>
<path d="M264.854 297.132C264.991 296.807 265.246 296.76 265.881 296.784C266.007 297.379 265.811 298.019 264.854 297.132Z" fill="#9299A4"/>
<path d="M336.863 297.14C336.996 296.802 337.247 296.753 337.876 296.778C338.125 297.587 337.824 298.005 336.863 297.14Z" fill="#9299A4"/>
<path d="M339.857 297.132C339.996 296.806 340.248 296.761 340.876 296.784C341.004 297.381 340.812 298.019 339.857 297.132Z" fill="#9299A4"/>
<path d="M240.855 297.136C240.988 296.794 241.244 296.741 241.886 296.768C242.127 297.575 241.827 298.01 240.855 297.136Z" fill="#9299A4"/>
<path d="M350.037 297.04C350.095 296.733 350.5 296.508 350.703 296.619C350.806 297.044 350.706 297.356 350.605 297.668C350.397 297.561 350.188 297.454 350.037 297.04Z" fill="#9299A4"/>
<path d="M355.75 297.489C355.223 297.468 354.851 297.201 355.414 296.919C355.512 296.87 355.8 297.139 355.75 297.489Z" fill="#9299A4"/>
<path d="M361.25 297.489C361.273 297.007 361.565 296.668 361.874 297.182C361.927 297.272 361.633 297.534 361.25 297.489Z" fill="#9299A4"/>
<path d="M368.846 296.826C369.033 296.463 369.273 296.472 369.872 296.477C370.001 297.042 370.153 298.197 368.846 296.826Z" fill="#9299A4"/>
<path d="M372.969 296.771C372.747 297.034 372.523 297.334 372.299 297.635C372.329 297.265 372.358 296.896 372.715 296.687C373.041 296.846 372.967 296.81 372.969 296.771Z" fill="#9299A4"/>
<path d="M376.033 297.049C376.084 296.744 376.498 296.534 376.706 296.638C376.812 297.051 376.709 297.36 376.607 297.67C376.399 297.565 376.191 297.46 376.033 297.049Z" fill="#9299A4"/>
<path d="M381.949 297.014C382.027 296.762 382.237 296.71 382.759 296.746C382.852 297.201 382.728 297.776 381.949 297.014Z" fill="#C8CCD6"/>
<path d="M386.889 297.104C387.006 296.807 387.253 296.763 387.872 296.786C387.957 297.267 387.815 297.973 386.889 297.104Z" fill="#C8CCD6"/>
<path d="M392.887 297.104C393.004 296.807 393.251 296.763 393.87 296.786C393.955 297.267 393.813 297.973 392.887 297.104Z" fill="#C8CCD6"/>
<path d="M400.891 297.106C401.004 296.807 401.251 296.764 401.867 296.786C402.008 297.369 401.811 297.95 400.891 297.106Z" fill="#C8CCD6"/>
<path d="M403.891 297.103C404.008 296.807 404.254 296.764 404.869 296.786C404.956 297.269 404.816 297.973 403.891 297.103Z" fill="#C8CCD6"/>
<path d="M407.891 297.103C408.009 296.808 408.256 296.766 408.872 296.788C408.956 297.266 408.815 297.974 407.891 297.103Z" fill="#C8CCD6"/>
<path d="M214.297 296.65C214.243 296.323 214.462 296.247 214.827 296.517C214.9 296.632 214.498 296.668 214.297 296.65Z" fill="#9299A4"/>
<path d="M246.299 296.65C246.245 296.327 246.462 296.252 246.824 296.518C246.896 296.631 246.498 296.668 246.299 296.65Z" fill="#9299A4"/>
<path d="M278.301 296.651C278.249 296.337 278.464 296.263 278.821 296.521C278.894 296.631 278.498 296.671 278.301 296.651Z" fill="#9299A4"/>
<path d="M310.303 296.638C310.257 296.336 310.467 296.267 310.812 296.514C310.886 296.618 310.497 296.659 310.303 296.638Z" fill="#9299A4"/>
<path d="M258.852 297.133C258.989 296.806 259.245 296.758 259.883 296.783C260.008 297.378 259.811 298.02 258.852 297.133Z" fill="#9299A4"/>
<path d="M342.435 296.591C342.275 296.376 342.504 296.234 343.018 296.182C343.232 296.176 343.168 296.227 343.196 296.201C343.067 296.306 342.91 296.437 342.435 296.591Z" fill="#9299A4"/>
<path d="M413.012 296.648C413.003 296.414 413.198 296.281 413.739 296.041C413.795 296.205 413.506 296.478 413.012 296.648Z" fill="#C8CCD6"/>
<path d="M208.859 297.134C208.994 296.792 209.249 296.74 209.887 296.768C210.126 297.573 209.828 298.011 208.859 297.134Z" fill="#9299A4"/>
<path d="M211.848 297.128C211.986 296.798 212.243 296.748 212.885 296.773C213.009 297.373 212.813 298.023 211.848 297.128Z" fill="#9299A4"/>
<path d="M215.848 297.129C215.986 296.798 216.243 296.748 216.886 296.773C217.01 297.373 216.813 298.023 215.848 297.129Z" fill="#9299A4"/>
<path d="M221.848 297.128C221.986 296.798 222.243 296.748 222.885 296.773C223.01 297.373 222.813 298.022 221.848 297.128Z" fill="#9299A4"/>
<path d="M226.85 297.128C226.988 296.798 227.244 296.749 227.883 296.774C228.008 297.375 227.814 298.022 226.85 297.128Z" fill="#9299A4"/>
<path d="M232.85 297.128C232.988 296.798 233.244 296.748 233.883 296.774C234.009 297.374 233.814 298.022 232.85 297.128Z" fill="#9299A4"/>
<path d="M243.848 297.129C243.986 296.798 244.243 296.748 244.884 296.774C245.009 297.374 244.812 298.023 243.848 297.129Z" fill="#9299A4"/>
<path d="M247.848 297.129C247.986 296.798 248.243 296.748 248.884 296.774C249.009 297.374 248.813 298.023 247.848 297.129Z" fill="#9299A4"/>
<path d="M253.846 297.13C253.985 296.798 254.245 296.746 254.895 296.773C255.011 297.367 254.813 298.027 253.846 297.13Z" fill="#9299A4"/>
<path d="M399.303 165.375C399.191 166.768 398.304 168.274 400.622 168.308C402.046 168.329 402.614 169.171 402.915 170.312C403.274 171.679 402.281 173.833 404.517 174.165C407.101 174.548 409.84 174.484 412.449 174.173C414.466 173.933 414.22 171.99 413.928 170.798C412.914 166.668 415.378 163.046 416.57 159.525C417.277 157.439 421.188 155.684 422.583 152.88C422.663 152.719 423.43 152.621 423.482 152.703C425.352 155.661 429.516 157.082 430.756 159.985C432.138 163.223 432.468 167.064 432.005 170.738C431.661 173.47 432.903 174.677 435.982 174.457C438.134 174.303 440.312 174.483 442.475 174.419C445.185 174.339 446.96 175.005 447.024 177.923C447.094 181.042 445.304 181.764 442.32 181.757C422 181.709 401.681 181.733 381.361 181.734C364.372 181.734 347.384 181.743 330.395 181.722C328.119 181.72 325.492 182.161 325.05 179.034C324.583 175.723 326.06 174.059 329.803 174.442C333.139 174.783 334.119 173.406 334.052 170.487C333.884 163.189 334.174 155.881 333.921 148.587C333.8 145.108 335.154 144.115 338.819 144.225C346.14 144.444 353.477 144.409 360.8 144.237C364.131 144.159 365.212 145.312 365.051 148.236C364.851 151.878 365.024 155.535 365 159.186C364.988 160.997 365.146 162.517 367.82 162.557C370.234 162.592 371.206 161.599 370.984 159.528C370.655 156.456 372.625 156.1 375.321 156.132C382.815 156.219 390.311 156.142 397.806 156.171C400.863 156.182 404.265 155.373 405.018 159.733C405.76 164.029 402.404 164.255 399.303 165.375Z" fill="#4A5568"/>
<path d="M360.306 216.09C362.302 215.077 363.056 213.851 362.986 212.146C362.762 206.684 364.261 201.344 364.113 195.847C363.937 189.351 367.135 187.57 373.394 190.565C376.056 191.84 377.431 191.816 379.856 190.077C382.306 188.321 385.815 187.773 387.903 191.133C388.727 192.459 389.715 192.763 391.137 192.594C392.965 192.377 392.943 191.078 393.001 189.852C393.186 185.992 396.429 187.502 398.595 187.241C401.236 186.923 402.247 188.241 401.987 190.492C401.662 193.304 402.644 194.799 406.086 194.567C409.538 194.335 409.23 196.84 408.936 198.688C408.152 203.621 410.436 205.045 415.579 204.649C420.534 204.266 425.553 204.62 430.542 204.549C433.304 204.51 435.108 205.263 435.001 208.118C434.943 209.644 435.419 210.76 437.326 211.057C438.771 211.283 439.092 212.401 438.966 213.505C438.626 216.51 440.059 217.711 443.284 217.359C446.093 217.052 447.063 218.251 447.052 220.796C447.038 223.795 445.03 223.758 442.734 223.756C426.432 223.738 410.131 223.747 393.829 223.747C383.848 223.747 373.868 223.746 363.415 223.745C361.666 223.093 361.198 222.178 362.221 220.682C387.555 220.664 412.499 220.477 432.281 220.548C414.816 220.548 392.189 220.546 369.561 220.55C367.399 220.55 365.234 220.615 362.659 220.018C360.338 219.386 359.867 218.123 360.306 216.09Z" fill="#4A5568"/>
<path d="M172.111 146.753C171.553 147.436 171.293 147.83 171.011 148.461C171.11 148.877 171.232 149.055 171.174 149.504C170.995 149.774 170.999 149.772 171 149.769C170.391 150.502 169.873 151.291 169.177 152.303C168.991 152.521 168.999 152.511 169.003 152.506C168.563 152.892 168.501 153.43 168.168 154.14C167.991 154.349 168 154.338 168.005 154.334C156.754 161.613 149.339 161.993 140.273 155.492C139.995 155.245 139.999 155.251 140.003 155.253C139.58 154.85 138.991 154.796 138.215 154.491C137.987 154.33 137.999 154.338 138.005 154.343C137.787 154.137 137.56 153.928 137.159 153.567C136.987 153.413 136.998 153.425 137.003 153.431C136.302 152.784 136.61 151.91 136.202 150.911C135.994 150.675 135.999 150.685 136.004 150.689C135.786 150.484 135.562 150.277 135.165 149.919C134.995 149.766 134.999 149.772 135.002 149.774C134.573 149.38 134.522 148.841 134.176 148.141C133.995 147.937 133.999 147.945 134.002 147.949C132.465 142.826 132.773 137.86 135.773 132.76C136.005 132.415 135.999 132.42 135.997 132.423C136.223 132.222 136.45 132.017 136.843 131.653C137.012 131.497 136.999 131.506 136.996 131.513C137.431 131.129 137.497 130.595 137.826 129.886C138.003 129.678 137.999 129.68 137.998 129.682C138.224 129.482 138.449 129.278 138.838 128.919C139.004 128.764 138.999 128.767 138.998 128.769C139.224 128.569 139.449 128.365 139.839 128.004C140.006 127.849 139.999 127.854 139.996 127.856C140.427 127.464 141.019 127.418 141.787 127.1C142.011 126.935 142 126.94 141.995 126.944C142.668 126.207 143.64 125.886 144.774 125.281C145.012 125.107 144.999 125.114 144.993 125.118C152.222 122.541 158.991 123.357 165.658 127.652C166.005 127.859 165.999 127.854 165.996 127.852C167.088 128.774 168.035 129.797 168.812 131.295C169.009 131.521 168.999 131.507 168.993 131.502C173.026 135.932 173.463 141.056 172.111 146.753Z" fill="#4A5568"/>
<path d="M182.041 294.43C177.795 294.828 173.533 294.896 169.271 294.929C167.974 294.939 166.581 295.051 165.779 293.249C166.023 291.629 166.422 290.388 166.988 288.859C168.85 287.016 171.05 287.018 173.214 286.964C176.375 286.886 179.547 286.802 182.698 286.953C186.819 287.15 188.234 285.477 188.216 281.828C188.138 266.477 188.148 251.126 188.211 235.775C188.225 232.289 186.794 230.877 182.933 230.873C155.312 230.847 127.691 230.91 100.07 230.857C96.2262 230.85 94.7647 232.174 94.7827 235.699C94.8611 251.05 94.7337 266.402 94.8693 281.752C94.91 286.363 95.4869 286.818 100.857 286.887C111.341 287.02 121.827 286.893 132.312 286.952C134.783 286.966 137.338 286.699 139.981 288.276C141.015 290.41 141.642 292.335 142.25 294.605C128.767 294.676 115.287 295.489 101.454 294.388C101.162 290.055 98.0474 289.924 94.9396 290.658C91.7484 291.412 91.0048 290.148 91.004 287.731C90.9977 268.709 91.0368 249.687 90.9591 230.666C90.9479 227.951 92.3072 227.362 94.9329 227.365C126.259 227.412 157.586 227.434 188.912 227.341C192.373 227.331 193.061 228.645 193.047 231.444C192.953 249.552 192.845 267.662 193.105 285.768C193.172 290.419 190.756 291.344 186.766 290.707C183.505 290.187 181.917 290.978 182.041 294.43Z" fill="#E9EFF5"/>
<path d="M196.831 151.829C199.139 152.169 201.786 150.819 202.664 152.982C203.582 155.241 203.233 157.669 201.228 159.761C197.119 164.048 193.197 168.484 188.825 173.267C192.692 174.311 195.921 174.461 199.199 174.1C201.468 173.85 203.106 174.103 203.165 176.772C203.221 179.296 201.833 179.854 199.454 179.81C194.469 179.716 189.481 179.775 184.496 179.689C182.784 179.66 180.569 180.463 179.71 178.332C178.923 176.381 179.337 174.416 180.822 172.761C184.188 169.008 187.591 165.283 190.962 161.534C191.766 160.64 193.307 159.884 192.61 158.517C191.916 157.155 190.263 157.806 189.021 157.737C187.365 157.644 185.696 157.674 184.036 157.722C181.653 157.789 180.222 157.054 180.296 154.604C180.365 152.354 181.77 151.823 183.892 151.84C188.047 151.875 192.203 151.836 196.831 151.829Z" fill="#D69E2E"/>
<path d="M226.643 220.112C225.843 219.857 225.418 219.536 224.77 218.889C225.273 215.941 225.999 213.318 226.872 210.371C227.349 209.769 227.613 209.444 227.728 208.784C227.442 207.211 227.959 206.225 229.425 205.44C238.459 204.592 247.203 205.241 256.402 205.039C259.469 204.703 258.716 203.296 257.994 201.566C258.26 201.021 258.595 200.829 259.503 200.772C261.388 201.991 260.657 204.132 262.898 205.054C273.445 204.835 283.657 205.101 294.306 205.154C295.581 204.921 296.042 204.369 295.973 203.128C296.393 202.415 296.882 202.273 297.783 202.509C298.823 203.547 298.903 204.933 300.877 205.072C311.514 204.864 321.791 205.131 332.516 204.952C333.272 200.33 330.321 197.834 326.056 196.713C321.777 195.588 318.781 197.776 316.422 200.882C315.685 201.853 315.544 204.224 313.607 203.121C312.069 202.245 313.651 200.622 314.367 199.529C318.935 192.554 328.786 192.263 333.757 199.013C334.94 200.619 335.54 202.582 336.689 204.595C343.043 205.328 349.134 204.844 355.638 205.227C356.064 205.379 356.076 205.416 356.065 205.432C356.2 205.982 356.052 206.437 355.263 207.022C354.14 207.537 353.324 207.672 352.079 207.734C347.634 207.815 343.587 207.413 339.174 208.077C338.519 208.23 338.253 208.283 337.583 208.382C335.803 208.504 334.464 208.314 332.742 207.917C331.781 207.896 331.229 207.87 330.255 207.767C320.814 207.874 311.789 207.351 302.36 208.128C301.38 208.336 300.813 208.411 299.818 208.461C297.984 208.514 296.671 208.014 294.882 207.882C293.905 207.918 293.346 207.882 292.364 207.777C283.834 207.686 275.73 207.741 267.235 207.724C266.356 207.73 265.869 207.749 265.07 207.862C264.364 208.061 263.994 208.223 263.464 208.659C262.052 211.236 261.745 213.936 259.837 216.377C258.62 217.586 257.621 218.556 255.712 218.736C255.127 218.577 254.912 218.459 254.501 218.048C253.763 216.323 254.351 215.043 255.104 213.465C257.861 208.621 257.859 208.64 252.16 208.283C246.928 207.955 241.674 208.17 236.45 207.728C233.306 207.463 231.391 208.546 230.906 211.836C230.619 212.301 230.476 212.47 230.035 212.806C229.244 213.037 228.9 212.868 228.726 212.432C228.747 212.855 228.852 213.261 229.08 213.986C229.045 216.411 228.794 218.465 226.643 220.112Z" fill="#4E6378"/>
<path d="M214.155 182.637C217.578 183.206 221.849 181.013 223.321 183.966C224.863 187.057 220.766 189.138 218.878 191.528C218.295 192.266 217.688 192.991 217.047 193.688C215.526 195.342 215.577 196.394 218.273 196.507C219.437 196.556 220.617 196.524 221.759 196.698C223.023 196.891 223.907 197.572 223.76 198.883C223.635 199.999 222.662 200.437 221.651 200.461C217.99 200.548 214.288 200.825 210.673 200.453C207.104 200.086 208.285 197.48 209.292 195.928C210.716 193.736 212.875 191.954 214.568 189.893C216.098 188.031 216.966 186.278 212.96 186.274C211.493 186.273 209.094 187.024 209.111 184.642C209.133 181.642 212.012 183.062 214.155 182.637Z" fill="#D69E2E"/>
<path d="M298.122 202.363C297.649 202.705 297.17 202.717 296.331 202.74C290.125 194.462 284.614 194.239 278.525 202.071C277.954 202.805 277.509 203.957 276.362 203.335C275.403 202.815 275.75 201.666 276.194 200.835C278.32 196.855 281.666 194.2 286.637 194.119C292.558 194.022 296.132 197.163 298.122 202.363Z" fill="#5C6D7D"/>
<path d="M260.036 200.589C259.718 200.952 259.358 200.998 258.462 201.128C251.649 194.641 246.565 194.822 241.339 201.802C240.737 202.605 240.419 204.158 238.93 203.273C237.678 202.53 238.58 201.306 239.107 200.422C241.203 196.906 244.225 194.415 248.782 194.134C253.998 193.812 257.583 196.205 260.036 200.589Z" fill="#5C6D7D"/>
<path d="M354.625 207.145C355.11 206.533 355.43 206.258 355.903 205.716C359.384 207.958 358.753 211.893 360.353 215.38C360.749 216.7 361.003 217.717 361.418 219.01C362.211 219.39 362.505 219.734 362.283 220.658C362.263 221.752 362.422 222.507 362.762 223.503C362.958 224.15 362.973 224.557 362.972 225.268C362.542 226.179 362.128 226.786 361.524 227.721C361.029 227.648 360.725 227.244 360.239 226.657C357.432 220.329 355.588 213.994 354.625 207.145Z" fill="#567EA4"/>
<path d="M140.031 155.571C145.39 157.731 150.673 160.338 157.166 158.926C160.986 158.095 163.666 155.415 167.651 154.355C160.96 162.329 146.848 163.121 140.031 155.571Z" fill="#718096"/>
<path d="M332.506 204.83C322.648 206.224 312.285 205.273 301.592 205.286C311.498 204.361 321.779 204.96 332.506 204.83Z" fill="#567EA4"/>
<path d="M294.317 205.118C284.486 205.307 274.228 205.363 263.604 205.308C273.448 204.39 283.673 205.058 294.317 205.118Z" fill="#5C6D7D"/>
<path d="M165.854 127.571C159.568 125.192 153.073 122.877 145.412 125.127C150.82 121.623 160.183 122.6 165.854 127.571Z" fill="#718096"/>
<path d="M172.139 146.853C172.497 141.842 172.127 136.803 169.035 131.835C173.643 134.545 175.016 140.538 172.139 146.853Z" fill="#718096"/>
<path d="M256.425 204.944C248.168 206.046 239.431 205.267 230.225 205.416C238.454 203.947 247.234 205.126 256.425 204.944Z" fill="#5C6D7D"/>
<path d="M135.681 132.563C134.238 137.189 133.538 142.083 134.019 147.532C130.938 142.612 131.84 137.565 135.681 132.563Z" fill="#718096"/>
<path d="M355.741 205.134C349.927 205.329 343.789 205.278 337.311 205.018C343.121 204.463 349.271 204.285 355.741 205.134Z" fill="#8C959E"/>
<path d="M169.011 131.188C167.622 130.821 166.469 129.931 166.02 128.152C168.039 127.982 168.968 129.047 169.011 131.188Z" fill="#718096"/>
<path d="M144.658 125.11C144.559 126.08 143.782 126.692 142.313 126.921C142.078 125.618 142.949 125.111 144.658 125.11Z" fill="#718096"/>
<path d="M169.286 152.395C168.991 151.46 169.446 150.615 170.708 149.89C171.013 150.831 170.565 151.678 169.286 152.395Z" fill="#718096"/>
<path d="M135.984 150.985C136.878 151.172 137.029 151.963 137.018 153.126C136.139 152.935 135.986 152.144 135.984 150.985Z" fill="#718096"/>
<path d="M141.71 126.947C141.54 127.236 141.068 127.537 140.295 127.848C140.465 127.559 140.937 127.259 141.71 126.947Z" fill="#718096"/>
<path d="M137.751 129.828C137.829 130.186 137.654 130.693 137.236 131.36C137.161 131.005 137.33 130.491 137.751 129.828Z" fill="#718096"/>
<path d="M138.16 154.554C138.549 154.486 139.11 154.642 139.839 155.027C139.449 155.096 138.891 154.937 138.16 154.554Z" fill="#718096"/>
<path d="M134.012 148.212C134.324 148.366 134.653 148.795 134.993 149.5C134.679 149.346 134.354 148.916 134.012 148.212Z" fill="#718096"/>
<path d="M168.238 154.192C168.163 153.836 168.335 153.322 168.757 152.655C168.832 153.012 168.658 153.524 168.238 154.192Z" fill="#718096"/>
<path d="M227.399 208.69C227.58 208.869 227.524 209.249 227.243 209.839C227.065 209.663 227.113 209.277 227.399 208.69Z" fill="#5C6D7D"/>
<path d="M139.783 127.946C139.922 128.158 139.738 128.404 139.225 128.679C139.092 128.469 139.279 128.226 139.783 127.946Z" fill="#718096"/>
<path d="M201.783 294.147C201.919 294.357 201.745 294.581 201.23 294.776C201.146 294.582 201.34 294.387 201.783 294.147Z" fill="#E9EFF5"/>
<path d="M138.779 128.858C138.927 129.076 138.745 129.323 138.228 129.594C138.086 129.378 138.271 129.134 138.779 128.858Z" fill="#718096"/>
<path d="M136.781 131.589C136.913 131.8 136.724 132.045 136.22 132.33C136.18 132.178 136.365 131.929 136.781 131.589Z" fill="#718096"/>
<path d="M171.17 149.682C170.985 149.596 170.975 149.417 170.977 148.968C171.107 148.995 171.226 149.293 171.17 149.682Z" fill="#718096"/>
<path d="M135.1 149.974C135.335 149.844 135.602 150.015 135.903 150.486C135.741 150.522 135.472 150.352 135.1 149.974Z" fill="#718096"/>
<path d="M137.098 153.618C137.26 153.584 137.534 153.755 137.909 154.137C137.743 154.173 137.476 153.998 137.098 153.618Z" fill="#718096"/>
<path d="M354.46 206.749C357.215 212.941 359.829 219.03 360.036 226.076C321.464 226.712 282.873 226.951 244.281 227.192C241.786 227.208 239.291 227.241 236.323 227.337C233.147 227.237 233.19 225.151 232.568 223.509C231.867 221.657 231.681 219.667 230.613 217.582C230.066 216.301 229.878 215.277 229.898 213.627C230.313 206.536 230.313 206.527 237.816 206.529C243.904 206.531 249.985 207.261 256.083 206.606C258.633 206.333 259.442 207.698 258.842 209.705C258.457 210.992 257.593 212.161 256.729 213.633C254.596 214.667 253.769 215.898 254.818 218.035C255.041 218.267 254.992 218.266 255.002 218.246C256.883 219.781 257.402 217.993 258.488 216.901C259.747 213.768 260.808 210.855 261.975 207.603C262.224 207.125 262.368 206.985 262.814 206.76C263.515 206.66 263.916 206.647 264.616 206.61C273.988 207.186 283.072 206.73 292.587 206.71C293.414 206.616 293.804 206.635 294.486 206.65C296.803 207.04 297.083 208.457 297.117 210.313C297.052 210.823 297.008 211.023 296.854 211.509C296.519 212.132 296.293 212.467 295.923 213.055C295.541 213.606 295.272 213.879 294.741 214.284C294.218 214.639 293.915 214.827 293.438 215.18C293.269 215.351 292.989 215.713 292.898 215.907C292.808 216.101 292.748 216.499 292.779 216.692C292.809 216.886 293.004 217.223 293.168 217.324C293.661 217.4 293.884 217.246 294.123 216.721C294.869 215.263 295.873 214.222 296.424 212.631C297.948 211.11 297.235 209.091 298.874 207.644C299.552 207.359 299.956 207.263 300.668 207.114C310.718 206.573 320.47 207.028 330.673 206.719C331.467 206.638 331.803 206.663 332.392 206.679C336.268 210.443 332.282 213.119 330.904 216.463C330.784 217.15 330.73 217.779 331.253 217.728C331.899 217.664 331.916 216.896 332.306 216.135C334.108 213.288 334.755 210.288 336.774 207.532C337.175 207.248 337.335 207.198 337.743 207.1C342.407 206.596 346.84 207.015 351.689 206.72C352.788 206.64 353.46 206.665 354.46 206.749Z" fill="#FFCCE4"/>
<path d="M351.554 253.754C353.048 256.484 353.048 256.484 358.245 257.175C353.15 256.706 353.22 259.1 354.469 262.08C355.908 265.51 355.781 269.333 358.454 272.6C359.113 273.406 359.342 277.176 358.267 280.221C357.876 270.855 350.81 273.011 345.154 273.143C342.297 273.209 338.404 271.739 336.809 274.104C335.431 276.147 338.356 279.153 337.835 282.006C337.531 281.91 337.2 281.901 337.104 281.759C335.316 279.114 336.494 274.248 332.989 273.56C327.574 272.497 321.747 273.132 316.095 273.151C314.048 273.157 314.908 274.558 315.08 275.486C315.376 277.09 316.503 278.601 315.696 280.355C315.415 280.235 315.018 280.184 314.945 280.015C311.934 273.071 311.936 272.994 304.104 273.099C300.648 273.145 296.33 271.661 293.962 273.716C291.66 275.714 295.467 279.195 294.318 282.539C292.841 276.418 291.234 270.497 285.73 272.112C290.602 271.467 290.6 271.468 288.415 263.703C287.92 261.943 287.441 260.18 286.909 258.066C286.774 257.463 286.686 257.212 286.809 256.617C287.252 256.118 287.484 255.964 288.114 255.661C294.593 254.546 300.795 255.765 307.263 254.524C307.934 254.343 308.212 254.302 308.911 254.286C315.288 255.818 321.383 254.869 327.819 255.201C328.503 255.249 328.777 255.259 329.46 255.273C330.141 255.277 330.413 255.276 331.09 255.264C337.551 254.625 343.756 256.177 350.06 254.011C350.662 253.738 350.922 253.668 351.554 253.754Z" fill="#CBCDCF"/>
<path d="M262.213 244.966C261.977 244.612 262.003 244.288 262.013 244.126C260.988 242.026 262.169 241.576 263.966 241.571C269.42 241.554 274.873 241.54 280.326 241.578C282.159 241.591 283.601 242.295 284.115 243.95C285.32 247.836 287.036 251.637 286.539 256.167C280.128 257.769 273.866 256.718 267.652 257.079C266.012 257.174 265.293 256.327 265.053 254.953C264.48 251.677 263.095 248.581 262.213 244.966Z" fill="#FEFEFE"/>
<path d="M286.174 256.82C285.851 255.832 285.974 255.008 285.681 254.335C283.983 250.439 285.184 244.332 281.336 242.769C275.953 240.582 269.261 241.842 263.128 242.254C262.786 242.277 262.492 242.875 262.099 243.584C260.338 242.474 259.812 240.677 260.416 237.194C261.41 241.702 264.249 241.118 266.767 241.117C293.249 241.107 319.731 241.079 346.213 241.057C349.36 241.054 352.508 241.057 356.013 241.057C354.886 242.434 353.687 241.959 352.723 241.944C349.637 241.897 348.337 242.827 349.49 245.792C350.434 248.217 351.091 250.734 351.9 253.559C351.923 253.909 351.426 253.893 351.177 253.886C347.34 253.052 347.791 249.982 347.09 247.726C346.201 244.862 344.746 243.443 341.265 243.331C329.132 242.938 329.135 242.84 331.739 254.168C331.646 254.945 331.471 255.359 330.912 255.932C330.298 256.179 329.994 256.242 329.229 256.364C326.386 253.853 326.373 250.521 325.424 247.507C324.572 244.803 322.986 243.361 319.804 243.433C317.322 243.489 314.83 243.526 312.353 243.412C309.472 243.279 307.61 244.35 306.441 247.081C305.881 247.503 305.406 247.652 305.297 247.486C301.352 241.489 294.911 243.772 289.279 243.477C286.773 243.346 286.25 244.622 286.774 246.708C287.54 249.76 289.206 252.687 288.316 256.253C287.926 256.548 287.734 256.558 287.254 256.593C286.787 256.762 286.607 256.908 286.174 256.82Z" fill="#D9D9DA"/>
<path d="M285.46 256.588C286.095 256.593 286.269 256.601 286.706 256.612C286.956 256.799 286.945 256.982 286.898 257.439C281.368 257.641 275.873 257.602 270.38 257.484C267.732 257.427 266.827 258.127 267.639 260.741C269.767 267.594 271.609 274.522 273.527 281.43C273.756 282.254 273.746 283.134 273.291 284.098C269.364 271.217 264.23 258.667 261.986 245.003C264.458 246.915 264.517 250.114 265.305 252.936C266.184 256.085 267.872 256.912 271.178 256.724C275.77 256.463 280.391 256.616 285.46 256.588Z" fill="#D6D7D8"/>
<path d="M231.009 216.292C233.73 219.449 233.334 223.569 235.598 227.179C236.244 228.993 236.639 230.579 237.037 232.514C236.569 232.872 236.096 232.88 235.269 232.885C230.274 229.205 230.852 223.87 229.684 218.735C229.753 218.136 229.803 217.898 230.002 217.325C230.312 216.797 230.474 216.606 231.009 216.292Z" fill="#4E6378"/>
<path d="M359.83 282.427C359.714 282.793 359.558 282.972 359.402 283.151C359.325 282.889 359.149 282.612 359.192 282.367C359.267 281.948 359.531 281.915 359.83 282.427Z" fill="#CBCDCF"/>
<path d="M316.57 283.319C316.398 283.27 316.256 283.092 316.302 283.029C316.537 282.708 316.686 282.792 316.57 283.319Z" fill="#CBCDCF"/>
<path d="M230.715 217.607C231.983 222.723 233.268 227.507 234.734 232.586C239.701 249.956 244.533 267.02 249.236 284.113C250.186 287.565 253.266 291.896 251.08 294.28C249.452 296.055 243.881 294.882 240.065 294.901C230.235 294.949 220.401 294.774 210.577 295.009C206.282 295.111 205.206 294.301 206.415 290.196C213.205 267.15 219.671 244.024 226.258 220.552C226.871 218.29 227.474 216.402 228.075 214.178C228.176 213.604 228.28 213.366 228.767 213.287C229.343 213.462 229.537 213.479 229.861 213.26C229.991 213.022 230.032 212.876 229.962 212.837C230.772 213.496 230.399 214.445 230.493 215.634C230.489 216.417 230.572 216.851 230.715 217.607Z" fill="#F3F8FD"/>
<path d="M140.341 288.127C126.229 288.518 112.069 288.482 97.9109 288.629C94.2206 288.667 92.9317 287.391 92.9534 284.06C93.0646 267.021 93.0493 249.981 92.9595 232.942C92.9453 230.233 93.8599 229.176 96.957 229.184C126.61 229.259 156.264 229.254 185.917 229.189C188.86 229.183 190.067 229.974 190.051 232.823C189.949 250.166 189.934 267.511 190.063 284.854C190.087 288.02 188.625 288.704 185.562 288.625C179.736 288.474 173.902 288.577 167.614 288.573C168.718 283.142 170.2 277.691 171.872 272.29C172.89 269.004 172.106 267.284 167.999 267.517C165.678 267.649 163.339 267.514 160.563 267.43C158.121 262.469 160.197 257.576 165.187 256.22C168.198 255.401 169.548 253.601 170.211 251.112C171.077 247.862 173.133 245.709 176.887 244.857C168.489 243.862 163.629 247.52 161.889 254.829C160.897 258.992 160.421 263.462 157.295 267.302C156.539 267.466 156.097 267.49 155.324 267.489C153.706 266.985 153.017 266.129 152.982 264.499C152.867 263.7 152.747 263.251 152.552 262.461C152.699 259.976 151.739 257.912 152.061 255.421C153.532 251.655 153.383 248.375 151.802 244.927C150.217 241.472 149.585 237.733 149.739 234.97C147.954 241.027 145.167 248.208 151.872 254.917C151.685 259.137 153.551 262.913 152.163 267.081C151.18 267.389 150.502 267.418 149.493 267.369C147.312 264.717 147.763 261.469 146.241 258.829C144.65 256.069 143.467 252.223 139.448 252.317C135.029 252.421 130.551 253.71 128.239 257.926C127.581 259.126 126.693 260.289 127.307 262.094C131.421 261.55 133.936 259.36 135.66 256.019C138.096 251.297 140.855 251.167 144.125 255.589C146.654 259.006 148.64 262.606 147.156 267.163C144.562 267.428 142.23 267.615 139.913 267.51C135.884 267.329 134.391 268.553 135.703 272.38C137.441 277.449 138.782 282.632 140.341 288.127Z" fill="#F4FAFD"/>
<path d="M142.797 285.984C141.438 281.546 140.256 277.449 138.94 273.388C138.212 271.144 138.558 270.08 141.532 270.13C149.658 270.266 157.789 270.226 165.916 270.146C168.753 270.118 169.322 271.099 168.558 273.474C166.644 279.426 164.747 285.392 163.165 291.423C162.292 294.752 159.556 294.506 157.352 294.018C153.087 293.073 147.614 296.973 144.546 291.569C143.651 289.993 143.441 288.092 142.797 285.984Z" fill="#FFCCE4"/>
<path d="M157.371 267.488C158.212 262.533 160.578 257.91 160.465 252.651C160.37 248.256 168.037 242.961 173.909 243.075C176.416 243.123 178.909 243.813 181.745 244.265C180.234 246.287 178.331 245.573 176.876 246.064C174.193 246.969 172.29 248.081 171.763 250.955C171.064 254.764 169.428 257.969 164.113 257.659C161.816 257.525 161.751 259.545 161.322 260.878C160.72 262.748 160.488 264.717 160.108 267.002C159.333 267.418 158.547 267.476 157.371 267.488Z" fill="#B5E2D0"/>
<path d="M147.266 267.414C146.989 262.819 145.543 258.657 142.491 255.12C140.108 252.357 138.093 252.76 137.156 256.187C136.247 259.515 133.696 261.254 130.726 262.648C129.104 263.41 127.198 265.393 125.502 263.837C124.013 262.471 125.445 260.341 126.132 258.697C128.196 253.758 132.97 250.908 139.013 251.186C144.558 251.441 146.011 255.796 147.724 259.448C148.735 261.604 148.702 264.168 149.15 266.919C148.656 267.345 148.15 267.4 147.266 267.414Z" fill="#B1E0CE"/>
<path d="M153.731 263.726C154.148 264.905 154.402 265.914 154.824 267.193C154.21 267.459 153.426 267.453 152.251 267.403C152.411 263.371 151.034 259.519 150.863 255.189C151.257 254.435 151.725 254.306 152.598 254.595C153.007 257.179 153.089 259.574 153.146 262.362C153.17 263.069 153.319 263.335 153.731 263.726Z" fill="#B1E0CE"/>
<path d="M368.745 171.003C370.26 172.388 370.415 173.555 368.466 174.235C367.684 174.508 366.705 174.284 366.39 173.5C365.743 171.884 366.322 170.875 368.745 171.003Z" fill="#718096"/>
<path d="M362.51 221.059C361.955 220.624 361.807 220.251 361.619 219.582C387.743 219.251 413.907 219.214 440.072 219.192C441.062 219.191 442.078 219.235 443.036 219.438C443.851 219.611 444.579 220.091 444.352 221.042C444.174 221.79 443.417 221.828 442.782 221.869C441.786 221.933 440.783 221.913 439.783 221.913C416.118 221.914 392.453 221.907 368.788 221.926C366.772 221.927 364.793 221.88 362.51 221.059Z" fill="#718096"/>
<path d="M366.954 196.266C367.317 194.405 366.144 191.995 369.017 192.024C371.85 192.053 370.908 194.424 370.96 195.905C371.083 199.389 370.995 202.879 370.988 206.366C370.984 208.163 370.641 209.867 368.178 209.893C365.619 209.919 366.021 208.011 366.024 206.569C366.029 203.251 365.614 199.891 366.954 196.266Z" fill="#718096"/>
<path d="M366.289 217.137C364.709 215.479 364.279 213.828 366.577 213.008C368.121 212.456 369.561 213.307 369.816 214.971C370.163 217.241 368.502 217.399 366.289 217.137Z" fill="#718096"/>
<path d="M336.645 207.301C336.987 210.633 335.537 213.515 333.308 216.442C332.211 217.645 331.263 218.355 329.441 217.765C329.479 213.912 334.065 211.512 332.744 207.009C333.855 206.882 335.065 207.093 336.645 207.301Z" fill="#567EA4"/>
<path d="M330.656 206.54C321.419 208.128 311.641 206.951 301.438 207.142C310.679 205.556 320.448 206.747 330.656 206.54Z" fill="#567EA4"/>
<path d="M292.561 206.525C283.904 207.994 274.741 207.164 265.254 206.807C273.977 206.542 283.037 206.498 292.561 206.525Z" fill="#567EA4"/>
<path d="M298.775 207.395C298.772 209.185 299.751 211.165 297.666 212.771C296.82 212.851 296.398 212.653 295.972 211.958C295.838 210.122 296.561 208.518 294.992 206.908C295.986 206.876 297.194 207.105 298.775 207.395Z" fill="#567EA4"/>
<path d="M351.649 206.542C347.781 208.078 343.305 207.024 338.445 207.141C342.326 205.673 346.786 206.676 351.649 206.542Z" fill="#567EA4"/>
<path d="M258.402 216.697C258.113 218.397 258.05 220.863 254.967 218.517C256.048 217.722 257.083 217.218 258.402 216.697Z" fill="#94CAED"/>
<path d="M255.039 217.927C252.157 216.354 253.147 214.972 256.144 213.848C256.572 215.3 254.598 216.041 255.039 217.927Z" fill="#94CAED"/>
<path d="M229.082 213.207C228.944 213.609 228.704 213.691 228.251 213.766C228.212 213.394 227.732 212.389 229.082 213.207Z" fill="#5C6D7D"/>
<path d="M262.89 206.676C262.971 206.908 262.764 207.077 262.286 207.223C262.162 206.975 262.357 206.78 262.89 206.676Z" fill="#567EA4"/>
<path d="M295.853 211.67C296.206 211.899 296.547 212.165 297.109 212.664C297.121 214.271 296.674 215.54 295.263 216.696C294.66 218.015 293.732 217.958 292.345 217.574C291.936 217.357 291.962 217.376 291.965 217.391C291.633 217.029 291.499 216.599 291.794 215.839C292.022 215.561 292.012 215.532 292.028 215.537C292.508 215.079 292.997 214.638 293.787 214.032C294.295 213.622 294.536 213.409 294.908 212.998C295.247 212.588 295.463 212.383 295.767 211.984C295.848 211.784 295.842 211.707 295.853 211.67Z" fill="#4E6378"/>
<path d="M329.15 217.891C330.314 217.786 331.388 217.501 332.691 216.745C333.054 217.774 333.461 219.134 332.013 219.706C330.561 220.279 329.647 219.456 329.15 217.891Z" fill="#8FC1EB"/>
<path d="M291.969 217.689C292.727 217.318 293.519 217.279 294.688 217.079C295.356 217.951 295.618 219.126 294.297 219.598C292.914 220.094 292.266 219.168 291.969 217.689Z" fill="#96C5EB"/>
<path d="M230.339 216.602C229.871 215.422 229.597 214.411 229.608 213.099C231.313 213.3 231.056 214.526 231.345 215.852C231.383 216.17 231.166 216.316 231.062 216.394C230.817 216.572 230.675 216.671 230.339 216.602Z" fill="#4E6378"/>
<path d="M293.705 213.815C293.991 214.689 293.616 215.35 292.365 215.604C291.597 214.407 292.334 214.013 293.705 213.815Z" fill="#96C5EB"/>
<path d="M291.734 215.602C292.024 215.968 292.026 216.376 291.998 217.095C291.18 216.97 290.971 216.391 291.734 215.602Z" fill="#96C5EB"/>
<path d="M295.637 211.893C295.849 212.101 295.719 212.363 295.249 212.686C295.053 212.488 295.181 212.222 295.637 211.893Z" fill="#567EA4"/>
<path d="M288.576 256.573C286.918 252.641 285.785 248.726 284.487 244.858C283.806 242.828 284.554 242.026 286.748 242.036C291.524 242.057 296.301 242.142 301.075 242.056C305.03 241.985 304.57 244.969 306.025 247.472C307.624 249.879 308.415 251.906 308.07 254.475C307.642 257.005 305.74 256.536 304.2 256.551C299.145 256.603 294.088 256.594 288.576 256.573Z" fill="#FCFDFD"/>
<path d="M306.006 247.491C305.175 243.16 307.099 241.334 311.889 242.105C312.049 242.13 312.218 242.109 312.383 242.109C326.98 242.126 326.98 242.126 328.842 256.073C323.389 256.457 318.01 256.507 312.631 256.513C311.389 256.515 309.962 256.904 309.044 255.175C307.178 252.821 307.213 250.28 306.209 247.726C305.986 247.465 305.998 247.483 306.006 247.491Z" fill="#FDFDFE"/>
<path d="M331.465 256.129C330.018 252.494 329.189 249.087 327.946 245.811C326.683 242.482 328.26 241.946 331.408 242.071C335.218 242.223 339.053 242.241 342.856 242.021C346.193 241.827 347.643 243.053 348.156 246.013C348.591 248.528 349.637 250.955 350.671 253.651C351.211 256.152 349.895 256.673 347.675 256.612C342.42 256.466 337.159 256.471 331.465 256.129Z" fill="#FDFDFD"/>
<path d="M298.966 257.591C308.654 257.594 308.569 257.613 311.437 268.333C312.165 271.055 311.223 272.106 308.424 272.057C306.283 272.02 304.132 271.557 302.009 271.669C298.92 271.833 295.146 273.467 292.998 271.213C290.325 268.408 290.336 264.18 289.146 260.582C288.473 258.545 289.589 257.438 292.017 257.521C294.171 257.595 296.329 257.571 298.966 257.591Z" fill="#FCFCFD"/>
<path d="M342.924 257.594C346.078 258.044 349.878 256.151 351.277 258.766C353.2 262.359 353.969 266.526 354.798 270.521C355.141 272.178 353.258 272.099 351.888 271.944C350.084 271.74 348.283 271.39 346.476 271.363C335.137 271.19 335.222 271.194 332.452 261.17C331.696 258.436 332.52 257.506 335.462 257.614C337.786 257.7 340.118 257.608 342.924 257.594Z" fill="#FCFCFD"/>
<path d="M330.272 259.086C330.687 260.463 330.886 261.503 331.124 262.536C333.152 271.329 333.153 271.402 323.01 271.274C320.106 271.238 316.428 272.59 314.433 270.456C311.624 267.451 311.715 263.108 310.517 259.351C310.247 258.505 310.571 257.665 311.589 257.731C317.747 258.133 324.054 256.341 330.272 259.086Z" fill="#FBFDFD"/>
<path d="M305.988 247.831C308.331 249.19 307.79 251.961 308.903 254.48C308.921 254.822 308.464 254.805 308.235 254.8C306.54 252.798 306.288 250.491 305.988 247.831Z" fill="#D9D9DA"/>
<path d="M330.929 255.859C331.029 255.843 331.012 255.997 331.011 256.072C331.01 256.147 330.796 256.21 330.699 256.163C330.602 256.116 330.83 255.874 330.929 255.859Z" fill="#FDFDFE"/>
<path d="M230.129 216.712C230.145 216.433 230.553 216.442 230.756 216.457C230.93 216.718 230.9 216.964 230.784 217.575C230.503 217.624 230.308 217.308 230.129 216.712Z" fill="#5C6D7D"/>
<path d="M153.218 254.572C152.469 254.788 152.012 254.79 151.209 254.793C144.542 249.852 144.338 239.873 150.74 232.625C151.343 238.089 152.107 243.194 154.588 247.968C155.686 250.083 155.213 252.415 153.218 254.572Z" fill="#B4E1CF"/>
<path d="M153.82 263.68C153.667 263.673 153.439 263.449 153.166 262.991C153.329 262.993 153.538 263.228 153.82 263.68Z" fill="#B4E1CF"/>
</g>
<defs>
<clipPath id="clip0_30810_24256">
<rect width="570" height="400" fill="white"/>
</clipPath>
</defs>
</svg>
