<svg width="35" height="36" viewBox="0 0 35 36" fill="none" xmlns="http://www.w3.org/2000/svg">
<rect x="2.25" y="3" width="30" height="30" rx="15" fill="white" fill-opacity="0.06"/>
<rect x="2.25" y="3" width="30" height="30" rx="15" stroke="white" stroke-opacity="0.04" stroke-width="4.5"/>
<g clip-path="url(#clip0_33722_79499)">
<path d="M24.8867 19.2102C24.8867 19.5588 24.8228 19.8923 24.7058 20.1997C24.3056 21.2498 23.2887 21.9957 22.097 21.9957C20.8774 21.9957 19.841 21.2143 19.4616 20.1254C17.2085 20.2872 15.9202 19.2816 15.3845 17.365C14.0313 16.9975 13.0366 15.7621 13.0366 14.2943C13.0366 13.3451 13.4529 12.4927 14.1132 11.91C14.675 11.4133 15.4139 11.1121 16.2233 11.1121C17.1506 11.1121 17.9857 11.5074 18.5673 12.1394C18.9585 11.884 19.426 11.7359 19.9281 11.7359C20.2786 11.7359 20.6126 11.8083 20.9152 11.9388C21.791 12.3163 22.4068 13.1809 22.4205 14.1908C22.4209 14.2026 22.4209 14.2139 22.4209 14.2258L22.4205 14.2679V14.2684C22.5478 14.2404 22.68 14.2258 22.816 14.2258C23.4232 14.2258 23.9627 14.5162 24.3027 14.9655H24.3032C24.5391 15.2773 24.6788 15.6656 24.6788 16.0865C24.6796 16.5231 24.5256 16.9459 24.244 17.2799C24.2228 17.3056 24.2009 17.3307 24.1781 17.3551C24.6191 17.8475 24.8867 18.4978 24.8867 19.2102" fill="#FF5CAA"/>
<path d="M19.8992 14.0686C19.3944 14.6163 19.0862 15.3475 19.0862 16.1506C19.0862 17.8491 20.4651 19.2261 22.166 19.2261C22.3854 19.2262 22.6043 19.203 22.8188 19.1569M16.0906 13.0758C16.1676 14.1866 17.0944 15.0638 18.2262 15.0638M21.6309 14.6513C21.8598 14.4614 22.1313 14.3296 22.4223 14.2673M18.5692 12.1383C18.2107 12.3714 17.916 12.6945 17.7176 13.0758" stroke="#103849" stroke-width="0.378929" stroke-miterlimit="10" stroke-linecap="round" stroke-linejoin="round"/>
<path d="M24.8882 19.2093C24.8882 20.748 23.6392 21.9948 22.0985 21.9948C20.8788 21.9948 19.8425 21.2135 19.463 20.1246C17.21 20.2863 15.9216 19.2808 15.3859 17.3642C14.0327 16.9967 13.0381 15.7612 13.0381 14.2935C13.0381 12.5359 14.4647 11.1112 16.2248 11.1112C17.1521 11.1112 17.9871 11.5066 18.5688 12.1386C18.96 11.8831 19.4275 11.735 19.9296 11.735C21.3065 11.735 22.4224 12.8499 22.4224 14.2249L22.4219 14.267V14.2675C22.5493 14.2396 22.6814 14.2249 22.8174 14.2249C23.8461 14.2249 24.6803 15.0578 24.6803 16.0857C24.6803 16.5762 24.4903 17.0218 24.1796 17.3542C24.6206 17.8466 24.8882 18.497 24.8882 19.2094L24.8882 19.2093Z" stroke="#103849" stroke-width="0.331541" stroke-miterlimit="10" stroke-linejoin="round"/>
<path d="M24.1801 17.3541C24.1801 17.3541 23.9638 17.13 23.668 16.8967M15.8615 22.4057C15.7394 22.151 15.6612 21.8775 15.6304 21.5968" stroke="#103849" stroke-width="0.378929" stroke-miterlimit="10" stroke-linecap="round" stroke-linejoin="round"/>
<path d="M21.3296 20.4688C21.4282 20.742 21.4785 21.0302 21.4782 21.3206C21.4782 22.8144 20.1653 24.0247 18.5454 24.0247C17.3443 24.0247 16.3122 23.3592 15.8594 22.4062C15.4862 22.6592 15.0385 22.8068 14.5578 22.8068C13.4798 22.8068 12.5704 22.0661 12.2853 21.0529C12.0817 21.1036 11.8727 21.1292 11.6629 21.1291C10.2548 21.1291 9.11279 19.9891 9.11279 18.5824C9.11279 17.5021 9.78678 16.5788 10.7379 16.2094C10.7004 16.0548 10.6806 15.8944 10.6806 15.7298C10.6806 14.4541 11.8675 13.4202 13.332 13.4202C14.1728 13.4202 14.9229 13.7616 15.4084 14.2933C15.7978 14.0847 16.2468 13.9651 16.7252 13.9651C18.2092 13.9651 19.4122 15.114 19.4122 16.5311C19.4123 16.5645 19.4115 16.5979 19.4098 16.6313C20.6342 16.8555 21.5649 17.9784 21.5649 19.3302C21.5649 19.7365 21.4811 20.122 21.3295 20.4687" fill="#FF5CAA"/>
<path d="M20.3777 19.21C20.8148 19.5325 21.1492 19.9687 21.3292 20.4691M12.285 21.0532C12.2243 20.8385 12.1921 20.6119 12.1921 20.3773C12.1921 19.4199 12.7316 18.5917 13.515 18.1958M11.4016 16.0498C11.1695 16.0735 10.9469 16.1279 10.7375 16.2097M15.4087 14.294L15.4081 14.2936M15.4081 14.2936C15.0752 14.4733 14.7863 14.7184 14.5604 15.0107" stroke="#103849" stroke-width="0.378929" stroke-miterlimit="10" stroke-linecap="round" stroke-linejoin="round"/>
<path d="M21.331 20.4686C21.4296 20.7418 21.4799 21.0301 21.4797 21.3205C21.4797 22.8143 20.1668 24.0246 18.5469 24.0246C17.3458 24.0246 16.3136 23.3591 15.8608 22.406C15.4877 22.6591 15.04 22.8067 14.5593 22.8067C13.4813 22.8067 12.5719 22.0659 12.2868 21.0528C12.0832 21.1035 11.8742 21.1291 11.6644 21.129C10.2562 21.129 9.11426 19.989 9.11426 18.5823C9.11426 17.502 9.78825 16.5787 10.7393 16.2093C10.7019 16.0546 10.682 15.8943 10.682 15.7297C10.682 14.454 11.869 13.42 13.3335 13.42C14.1742 13.42 14.9244 13.7615 15.4099 14.2931C15.7993 14.0846 16.2483 13.9649 16.7267 13.9649C18.2106 13.9649 19.4136 15.1139 19.4136 16.5309C19.4138 16.5644 19.413 16.5978 19.4112 16.6311C20.6357 16.8553 21.5663 17.9783 21.5663 19.3301C21.5663 19.7364 21.4825 20.1219 21.331 20.4686L21.331 20.4686Z" stroke="#103849" stroke-width="0.331541" stroke-miterlimit="10" stroke-linejoin="round"/>
<path d="M17.1187 17.3928C17.5904 16.8971 18.2417 16.5901 18.9607 16.5901C19.1142 16.5901 19.2643 16.6038 19.4106 16.6307M19.2419 19.8527C18.8702 20.3168 18.2984 20.6141 17.6571 20.6141C16.5369 20.6141 15.6289 19.7073 15.6289 18.5887C15.6282 18.1217 15.7898 17.6689 16.0862 17.3075" stroke="#103849" stroke-width="0.378929" stroke-miterlimit="10" stroke-linecap="round" stroke-linejoin="round"/>
<path d="M18.5537 21.6171C18.5537 21.2193 18.4532 20.8453 18.2761 20.5184M14.315 20.3235C14.6494 19.8288 15.17 19.4707 15.7767 19.3491M10.6992 18.5838C10.9561 18.4821 11.23 18.43 11.5063 18.4301C11.9494 18.4295 12.3821 18.5638 12.7468 18.8151M14.869 16.7197C14.731 16.7603 14.5849 16.782 14.4337 16.782C14.0324 16.7826 13.6469 16.6262 13.3597 16.3463M21.5253 16.621C21.7376 16.4628 21.9955 16.3775 22.2604 16.3779C22.334 16.3779 22.4075 16.3844 22.4799 16.3974" stroke="#103849" stroke-width="0.378929" stroke-miterlimit="10" stroke-linecap="round" stroke-linejoin="round"/>
<path d="M24.3972 17.3557C24.6871 16.9965 24.8452 16.5511 24.8452 16.0861C24.8452 14.9688 23.9351 14.0597 22.8166 14.0597C22.7384 14.0597 22.6604 14.0643 22.583 14.0732C22.5038 12.6795 21.3435 11.5699 19.9287 11.5699C19.4569 11.5699 18.9987 11.6932 18.5949 11.9278C17.9659 11.3 17.1132 10.947 16.2238 10.946C14.7332 10.946 13.4673 11.9228 13.0327 13.2689C11.6199 13.4009 10.5155 14.4541 10.5155 15.7299C10.5155 15.8569 10.5266 15.9841 10.5485 16.1095C9.5714 16.5468 8.94775 17.5028 8.94775 18.5826C8.94775 20.078 10.1661 21.2947 11.6636 21.2947C11.8346 21.2947 12.0053 21.2788 12.1733 21.2471C12.5288 22.2704 13.4884 22.9724 14.5585 22.9724C14.9928 22.9727 15.4194 22.8587 15.7954 22.6419C16.3249 23.5884 17.3839 24.1904 18.5461 24.1904C19.9611 24.1904 21.1568 23.3071 21.5262 22.1049C21.712 22.1414 21.9031 22.1607 22.0975 22.1607C23.7272 22.1607 25.0531 20.8368 25.0531 19.2097C25.0531 18.5319 24.8212 17.879 24.3972 17.3556V17.3557Z" stroke="#103849" stroke-width="0.663117" stroke-miterlimit="10" stroke-linejoin="round"/>
<path d="M16.2234 10C15.3477 10 14.5055 10.2604 13.7877 10.753C13.1679 11.1783 12.6765 11.7519 12.352 12.4255C10.7722 12.8078 9.64275 14.0774 9.57135 15.5786C8.59356 16.2565 8 17.3759 8 18.5825C8 20.5784 9.60914 22.2062 11.5998 22.2401C12.2284 23.2715 13.349 23.9184 14.5581 23.9184C14.867 23.9184 15.1705 23.8775 15.4649 23.7965C16.227 24.6427 17.3465 25.1363 18.5457 25.1363C19.358 25.1363 20.1448 24.9063 20.8212 24.4713C21.3708 24.1178 21.8136 23.6512 22.12 23.1066C24.2616 23.0943 25.9999 21.3509 25.9999 19.2097C25.9999 18.5481 25.8342 17.9062 25.5177 17.3323C25.6986 16.9416 25.7922 16.5164 25.792 16.086C25.792 15.3065 25.4912 14.5694 24.9449 14.0106C24.5141 13.5699 23.9687 13.2787 23.3753 13.1661C23.1747 12.5158 22.7906 11.9299 22.2656 11.4833C21.6134 10.9288 20.7849 10.6242 19.9283 10.6238C19.529 10.6238 19.1283 10.6914 18.7508 10.8211C18.0174 10.2893 17.1334 10 16.2234 10ZM16.2234 10.6149C17.1112 10.6149 17.9818 10.9441 18.6487 11.5254C19.0487 11.3365 19.4857 11.2386 19.9282 11.2387C21.4021 11.2387 22.6396 12.3091 22.8773 13.7294C24.1504 13.762 25.1762 14.8067 25.1762 16.086C25.1758 16.5343 25.0477 16.9733 24.807 17.3516C25.1807 17.8954 25.3841 18.546 25.3841 19.2097C25.3841 21.0195 23.9095 22.4919 22.097 22.4919C21.9798 22.4919 21.8622 22.4855 21.7451 22.4728C21.2392 23.6922 19.9645 24.5215 18.5456 24.5215C17.3755 24.5215 16.3033 23.9734 15.6741 23.0724C15.3218 23.2247 14.942 23.3033 14.5581 23.3035C13.4395 23.3035 12.4278 22.6338 11.962 21.6113C11.8627 21.621 11.7629 21.6258 11.6632 21.6258C9.98285 21.6258 8.61576 20.2606 8.61576 18.5825C8.61576 17.4684 9.22634 16.4478 10.1906 15.9178C10.1859 15.8552 10.1835 15.7926 10.1835 15.7299C10.1835 14.3535 11.289 13.1971 12.7883 12.9655C13.3361 11.5509 14.6906 10.6149 16.2234 10.6149" fill="#F0F0F0"/>
</g>
<defs>
<clipPath id="clip0_33722_79499">
<rect width="18" height="15.1364" fill="white" transform="translate(8 10)"/>
</clipPath>
</defs>
</svg>
