<svg width="21" height="21" viewBox="0 0 21 21" fill="none" xmlns="http://www.w3.org/2000/svg">
<g clip-path="url(#clip0_31447_124676)">
<mask id="mask0_31447_124676" style="mask-type:luminance" maskUnits="userSpaceOnUse" x="0" y="0" width="21" height="21">
<path d="M20.9641 0.0388184H0.0390625V20.9638H20.9641V0.0388184Z" fill="white"/>
</mask>
<g mask="url(#mask0_31447_124676)">
<path d="M10.5016 20.9638C16.2798 20.9638 20.9641 16.2796 20.9641 10.5013C20.9641 4.72304 16.2798 0.0388184 10.5016 0.0388184C4.72328 0.0388184 0.0390625 4.72304 0.0390625 10.5013C0.0390625 16.2796 4.72328 20.9638 10.5016 20.9638Z" fill="#093687"/>
<path d="M9.86268 14.2512L11.729 8.58071L12.6279 8.87328L11.9856 6.75073H17.5408C18.5487 6.75073 19.0732 7.65131 18.7108 8.75871L18.359 9.83025C18.3544 9.84402 18.3493 9.85736 18.3439 9.87201L18.3289 9.91133C18.2319 10.175 18.0978 10.4235 17.9307 10.6493C17.402 11.3681 16.5971 11.8344 15.8805 11.8386H15.8274H13.0914L12.2998 14.25L9.86268 14.2512ZM13.503 10.5866H14.9828C15.3531 10.5866 15.7626 10.2556 15.8954 9.84899L16.259 8.74285C16.3928 8.33582 16.2001 8.00526 15.8307 8.00526H14.3505L13.503 10.5866ZM3.45673 14.2507C3.3935 14.2486 3.33044 14.2429 3.26784 14.2337C3.16302 14.221 3.06015 14.1956 2.96152 14.158C2.76553 14.084 2.59168 13.9841 2.46004 13.8165C2.38056 13.7145 2.31753 13.6008 2.27324 13.4793C2.25036 13.4176 2.23179 13.3543 2.21766 13.29C2.1462 12.9653 2.17587 12.6393 2.2653 12.3217C2.27283 12.2942 2.3096 12.1751 2.3096 12.1751L4.09235 6.75199H6.5496L4.74009 12.2603C4.64147 12.5616 4.71795 12.8295 4.934 12.9428C5.00348 12.9807 5.08177 12.9996 5.16092 12.9975H6.37575L8.4268 6.75199H11.2058L9.16937 8.8745L10.2689 8.58197L8.40172 14.2512L3.45673 14.2507Z" fill="white"/>
</g>
</g>
<defs>
<clipPath id="clip0_31447_124676">
<rect width="20.925" height="20.925" fill="white" transform="translate(0.0371094 0.0375977)"/>
</clipPath>
</defs>
</svg>
