<svg width="186" height="58" viewBox="0 0 186 58" fill="none" xmlns="http://www.w3.org/2000/svg">
<g clip-path="url(#clip0_26636_203230)">
<path d="M65.6716 35.2916C65.6716 36.6274 65.4231 37.9052 64.9682 39.0832C63.4117 43.1068 59.4571 45.9649 54.8227 45.9649C50.0797 45.9649 46.0494 42.9709 44.5738 38.7985C35.8119 39.4183 30.8017 35.5651 28.7184 28.221C23.456 26.8129 19.5879 22.0789 19.5879 16.4546C19.5879 12.8172 21.2068 9.55099 23.7744 7.31829C25.9592 5.41522 28.8327 4.26074 31.9805 4.26074C35.5868 4.26074 38.8342 5.77572 41.0961 8.19737C42.6175 7.21851 44.4355 6.65113 46.3883 6.65113C47.7511 6.65113 49.0499 6.92857 50.2269 7.4288C53.6327 8.87513 56.0273 12.1881 56.0806 16.0578C56.0824 16.1031 56.0824 16.1466 56.0824 16.192L56.0806 16.3534V16.3551C56.5759 16.2482 57.0898 16.192 57.6186 16.192C59.98 16.192 62.078 17.3049 63.4003 19.0266H63.4024C64.3196 20.2211 64.863 21.709 64.863 23.3221C64.8663 24.9951 64.2673 26.6151 63.1721 27.8948C63.0898 27.9935 63.0044 28.0896 62.9159 28.183C64.631 30.0697 65.6715 32.5618 65.6715 35.2916" fill="#FF5CAA"/>
<path d="M46.2683 15.5927C44.3055 17.6916 43.1068 20.4934 43.1068 23.5708C43.1068 30.0792 48.4691 35.3556 55.0837 35.3556C55.9371 35.356 56.7882 35.2671 57.6224 35.0903M31.4572 11.7886C31.7568 16.0449 35.3608 19.4063 39.7625 19.4063M53.0027 17.8257C53.8929 17.0979 54.9489 16.593 56.0806 16.3542M41.0961 8.19629C39.7019 9.08964 38.556 10.3277 37.7844 11.7886" stroke="#103849" stroke-width="1.47361" stroke-miterlimit="10" stroke-linecap="round" stroke-linejoin="round"/>
<path d="M65.6717 35.2895C65.6717 41.1852 60.8145 45.963 54.8228 45.963C50.0798 45.963 46.0495 42.9689 44.574 38.7966C35.812 39.4163 30.8018 35.5631 28.7186 28.2191C23.4561 26.8109 19.588 22.0769 19.588 16.4527C19.588 9.71787 25.1359 4.25879 31.9806 4.25879C35.5869 4.25879 38.8344 5.77377 41.0962 8.19542C42.6177 7.21656 44.4357 6.64918 46.3884 6.64918C51.7428 6.64918 56.0826 10.9213 56.0826 16.1901L56.0808 16.3514V16.3532C56.576 16.2462 57.0899 16.1901 57.6187 16.1901C61.6193 16.1901 64.8632 19.3816 64.8632 23.3202C64.8632 25.1997 64.1245 26.907 62.916 28.181C64.6311 30.0678 65.6716 32.5598 65.6716 35.2896L65.6717 35.2895Z" stroke="#103849" stroke-width="1.28933" stroke-miterlimit="10" stroke-linejoin="round"/>
<path d="M62.917 28.1802C62.917 28.1802 62.076 27.3215 60.9256 26.4277M30.5667 47.5372C30.0919 46.5612 29.7881 45.5133 29.6681 44.4377" stroke="#103849" stroke-width="1.47361" stroke-miterlimit="10" stroke-linecap="round" stroke-linejoin="round"/>
<path d="M51.8378 40.1145C52.2213 41.1614 52.4169 42.2659 52.416 43.3788C52.416 49.1025 47.3102 53.7404 41.0106 53.7404C36.3395 53.7404 32.3257 51.1902 30.5648 47.5383C29.1136 48.5079 27.3727 49.0734 25.5031 49.0734C21.3111 49.0734 17.7744 46.2351 16.6656 42.3529C15.874 42.5471 15.0611 42.6451 14.2453 42.6447C8.76913 42.6447 4.32812 38.2765 4.32812 32.8863C4.32812 28.7468 6.94919 25.209 10.6478 23.7934C10.5023 23.2008 10.425 22.5864 10.425 21.9557C10.425 17.0675 15.041 13.1055 20.7362 13.1055C24.0058 13.1055 26.9232 14.4138 28.8112 16.4511C30.3254 15.6518 32.0716 15.1934 33.932 15.1934C39.7029 15.1934 44.3812 19.5959 44.3812 25.0259C44.3818 25.1539 44.3787 25.282 44.3719 25.4099C49.1336 26.269 52.7529 30.5719 52.7529 35.7518C52.7529 37.3087 52.427 38.7858 51.8377 40.1143" fill="#FF5CAA"/>
<path d="M48.1378 35.2909C49.8377 36.5268 51.1383 38.1981 51.8383 40.1155M16.6661 42.3538C16.4303 41.531 16.305 40.6628 16.305 39.7639C16.305 36.0953 18.403 32.922 21.4497 31.4049M13.231 23.1818C12.3284 23.2725 11.4627 23.481 10.6484 23.7944M28.8139 16.4539L28.8119 16.4521M28.8119 16.4521C27.5171 17.1409 26.3936 18.0799 25.515 19.2" stroke="#103849" stroke-width="1.47361" stroke-miterlimit="10" stroke-linecap="round" stroke-linejoin="round"/>
<path d="M51.8416 40.1145C52.2251 41.1614 52.4207 42.2659 52.4197 43.3788C52.4197 49.1025 47.314 53.7404 41.0143 53.7404C36.3433 53.7404 32.3295 51.1902 30.5686 47.5383C29.1174 48.5079 27.3765 49.0734 25.5069 49.0734C21.3149 49.0734 17.7782 46.2351 16.6694 42.3529C15.8778 42.5471 15.0649 42.6451 14.2491 42.6447C8.77292 42.6447 4.33191 38.2765 4.33191 32.8863C4.33191 28.7468 6.95297 25.209 10.6516 23.7934C10.5061 23.2008 10.4287 22.5864 10.4287 21.9557C10.4287 17.0675 15.0448 13.1055 20.74 13.1055C24.0096 13.1055 26.9269 14.4138 28.815 16.4511C30.3292 15.6518 32.0754 15.1934 33.9358 15.1934C39.7066 15.1934 44.385 19.5959 44.385 25.0259C44.3856 25.1539 44.3825 25.282 44.3757 25.4099C49.1374 26.269 52.7567 30.5719 52.7567 35.7518C52.7567 37.3087 52.4308 38.7858 51.8415 40.1143L51.8416 40.1145Z" stroke="#103849" stroke-width="1.28933" stroke-miterlimit="10" stroke-linejoin="round"/>
<path d="M35.4577 28.3316C37.2923 26.4322 39.8249 25.2559 42.6209 25.2559C43.2178 25.2559 43.8017 25.3085 44.3708 25.4115M43.7147 37.7575C42.2693 39.5359 40.0455 40.6752 37.5513 40.6752C33.1952 40.6752 29.6641 37.2003 29.6641 32.9143C29.6613 31.1247 30.2898 29.3895 31.4423 28.005" stroke="#103849" stroke-width="1.47361" stroke-miterlimit="10" stroke-linecap="round" stroke-linejoin="round"/>
<path d="M41.0412 44.5171C41.0412 42.9929 40.6505 41.5595 39.9616 40.307M24.5574 39.5603C25.8578 37.6645 27.8823 36.2924 30.2418 35.8267M10.4961 32.8939C11.4952 32.5044 12.5602 32.3046 13.6348 32.3049C15.3579 32.3026 17.0407 32.8173 18.4587 33.7805M26.7118 25.7511C26.1751 25.9067 25.607 25.99 25.0191 25.99C23.4586 25.992 21.9594 25.3926 20.8425 24.3203M52.5976 25.3727C53.4232 24.7666 54.4261 24.4398 55.4561 24.4414C55.7424 24.4413 56.0281 24.4662 56.3099 24.5161" stroke="#103849" stroke-width="1.47361" stroke-miterlimit="10" stroke-linecap="round" stroke-linejoin="round"/>
<path d="M63.7668 28.1856C64.894 26.8092 65.5089 25.1026 65.5089 23.3208C65.5089 19.0394 61.9697 15.5561 57.6198 15.5561C57.3157 15.5561 57.0123 15.5735 56.7114 15.6078C56.4037 10.2672 51.8914 6.01552 46.3891 6.01552C44.5545 6.01552 42.7724 6.48816 41.2024 7.38695C38.7559 4.98142 35.4399 3.62857 31.9814 3.625C26.1846 3.625 21.2616 7.36792 19.5716 12.5258C14.0771 13.0316 9.78225 17.0674 9.78225 21.956C9.78225 22.4425 9.82549 22.9298 9.91072 23.4105C6.11085 25.0863 3.68555 28.7493 3.68555 32.8868C3.68555 38.6172 8.42357 43.2793 14.2473 43.2793C14.9123 43.2794 15.5759 43.2183 16.2294 43.0968C17.6117 47.0182 21.3436 49.708 25.5053 49.708C27.1939 49.7092 28.853 49.2723 30.3154 48.4415C32.3744 52.0682 36.493 54.375 41.0126 54.375C46.5152 54.375 51.165 50.9904 52.6016 46.3838C53.3242 46.5239 54.0675 46.5977 54.8235 46.5977C61.1612 46.5977 66.3174 41.5248 66.3174 35.29C66.3174 32.6926 65.4155 30.191 63.7668 28.1854V28.1856Z" stroke="#103849" stroke-width="2.57879" stroke-miterlimit="10" stroke-linejoin="round"/>
<path d="M31.9798 0C28.5746 0 25.2991 0.99775 22.5076 2.88518C20.0972 4.51489 18.1865 6.71306 16.9244 9.29417C10.7808 10.7591 6.38847 15.6238 6.11079 21.3762C2.3083 23.974 0 28.2634 0 32.8867C0 40.5348 6.25778 46.7721 13.9994 46.902C16.4439 50.8541 20.8016 53.3329 25.5037 53.3329C26.7049 53.3329 27.8854 53.1763 29.0303 52.8658C31.9937 56.1085 36.3476 57.9999 41.011 57.9999C44.17 57.9999 47.2299 57.1185 49.8601 55.4515C51.9974 54.0971 53.7194 52.3093 54.9112 50.2223C63.2397 50.1753 69.9997 43.4947 69.9997 35.29C69.9997 32.755 69.3553 30.2953 68.1242 28.096C68.8277 26.5992 69.1918 24.9697 69.1913 23.3206C69.1913 20.3337 68.0213 17.5093 65.8968 15.3679C64.2213 13.6791 62.1006 12.5635 59.7927 12.1318C59.0126 9.63998 57.5188 7.39491 55.4775 5.68378C52.9409 3.55918 49.7189 2.39174 46.3878 2.39025C44.8352 2.39025 43.2769 2.64948 41.8086 3.14618C38.9565 1.10854 35.519 0 31.9798 0ZM31.9798 2.35613C35.4323 2.35613 38.8182 3.61773 41.4116 5.84513C42.9673 5.1214 44.6667 4.74623 46.3875 4.74665C52.1191 4.74665 56.9317 8.84803 57.8562 14.2904C62.8072 14.4153 66.7965 18.4183 66.7965 23.3207C66.7948 25.0385 66.2968 26.7203 65.3605 28.1701C66.8138 30.2538 67.6049 32.7469 67.6049 35.2902C67.6049 42.2249 61.8703 47.8667 54.8218 47.8667C54.3659 47.8667 53.9084 47.8423 53.453 47.7939C51.4858 52.4662 46.5286 55.6439 41.0108 55.6439C36.4604 55.6439 32.2905 53.5438 29.8439 50.0914C28.4737 50.6748 26.9967 50.9762 25.5037 50.9769C21.1537 50.9769 17.2193 48.4105 15.4077 44.4925C15.0217 44.5296 14.6333 44.548 14.2457 44.548C7.71108 44.548 2.39464 39.3169 2.39464 32.8867C2.39464 28.6178 4.76911 24.7068 8.51883 22.6758C8.50064 22.4363 8.49152 22.1962 8.49148 21.9559C8.49148 16.6819 12.7906 12.2508 18.6212 11.3635C20.7513 5.94287 26.0189 2.35613 31.98 2.35613" fill="#F0F0F0"/>
</g>
<path d="M80.49 40V19H85.35V40H80.49ZM100.504 40.36C98.8638 40.36 97.3338 40.09 95.9138 39.55C94.5138 39.01 93.2938 38.25 92.2537 37.27C91.2338 36.29 90.4338 35.14 89.8538 33.82C89.2938 32.5 89.0138 31.06 89.0138 29.5C89.0138 27.94 89.2938 26.5 89.8538 25.18C90.4338 23.86 91.2438 22.71 92.2838 21.73C93.3238 20.75 94.5438 19.99 95.9438 19.45C97.3438 18.91 98.8638 18.64 100.504 18.64C102.164 18.64 103.684 18.91 105.064 19.45C106.464 19.99 107.674 20.75 108.694 21.73C109.734 22.69 110.544 23.83 111.124 25.15C111.704 26.47 111.994 27.92 111.994 29.5C111.994 31.06 111.704 32.51 111.124 33.85C110.544 35.17 109.734 36.32 108.694 37.3C107.674 38.26 106.464 39.01 105.064 39.55C103.684 40.09 102.164 40.36 100.504 40.36ZM107.374 44.83C106.554 44.83 105.774 44.74 105.034 44.56C104.314 44.38 103.594 44.09 102.874 43.69C102.174 43.29 101.434 42.75 100.654 42.07C99.8938 41.39 99.0638 40.55 98.1638 39.55L103.264 38.26C103.804 39 104.304 39.59 104.764 40.03C105.224 40.47 105.664 40.78 106.084 40.96C106.524 41.14 106.984 41.23 107.464 41.23C108.744 41.23 109.884 40.71 110.884 39.67L113.044 42.25C111.624 43.97 109.734 44.83 107.374 44.83ZM100.504 36.22C101.444 36.22 102.304 36.06 103.084 35.74C103.884 35.42 104.584 34.96 105.184 34.36C105.784 33.76 106.244 33.05 106.564 32.23C106.904 31.39 107.074 30.48 107.074 29.5C107.074 28.5 106.904 27.59 106.564 26.77C106.244 25.95 105.784 25.24 105.184 24.64C104.584 24.04 103.884 23.58 103.084 23.26C102.304 22.94 101.444 22.78 100.504 22.78C99.5638 22.78 98.6938 22.94 97.8938 23.26C97.0938 23.58 96.3938 24.04 95.7938 24.64C95.2138 25.24 94.7538 25.95 94.4138 26.77C94.0938 27.59 93.9338 28.5 93.9338 29.5C93.9338 30.48 94.0938 31.39 94.4138 32.23C94.7538 33.05 95.2138 33.76 95.7938 34.36C96.3938 34.96 97.0938 35.42 97.8938 35.74C98.6938 36.06 99.5638 36.22 100.504 36.22ZM116.5 40.24C115.7 40.24 115.01 39.97 114.43 39.43C113.87 38.87 113.59 38.16 113.59 37.3C113.59 36.44 113.87 35.75 114.43 35.23C115.01 34.69 115.7 34.42 116.5 34.42C117.32 34.42 118.01 34.69 118.57 35.23C119.13 35.75 119.41 36.44 119.41 37.3C119.41 38.16 119.13 38.87 118.57 39.43C118.01 39.97 117.32 40.24 116.5 40.24ZM125.305 40L119.485 23.86H123.895L128.725 37.75H126.625L131.665 23.86H135.625L140.515 37.75H138.415L143.395 23.86H147.535L141.685 40H137.155L132.865 28.09H134.245L129.805 40H125.305ZM149.711 40V23.86H154.391V40H149.711ZM152.051 21.61C151.191 21.61 150.491 21.36 149.951 20.86C149.411 20.36 149.141 19.74 149.141 19C149.141 18.26 149.411 17.64 149.951 17.14C150.491 16.64 151.191 16.39 152.051 16.39C152.911 16.39 153.611 16.63 154.151 17.11C154.691 17.57 154.961 18.17 154.961 18.91C154.961 19.69 154.691 20.34 154.151 20.86C153.631 21.36 152.931 21.61 152.051 21.61ZM162.604 36.7L162.724 31L170.254 23.86H175.834L168.604 31.21L166.174 33.19L162.604 36.7ZM158.734 40V17.74H163.414V40H158.734ZM170.764 40L165.304 33.22L168.244 29.59L176.434 40H170.764ZM178.539 40V23.86H183.219V40H178.539ZM180.879 21.61C180.019 21.61 179.319 21.36 178.779 20.86C178.239 20.36 177.969 19.74 177.969 19C177.969 18.26 178.239 17.64 178.779 17.14C179.319 16.64 180.019 16.39 180.879 16.39C181.739 16.39 182.439 16.63 182.979 17.11C183.519 17.57 183.789 18.17 183.789 18.91C183.789 19.69 183.519 20.34 182.979 20.86C182.459 21.36 181.759 21.61 180.879 21.61Z" fill="white" fill-opacity="0.92"/>
<defs>
<clipPath id="clip0_26636_203230">
<rect width="70" height="58" fill="white"/>
</clipPath>
</defs>
</svg>
