<svg width="200" height="200" viewBox="0 0 200 200" fill="none" xmlns="http://www.w3.org/2000/svg">
<g clip-path="url(#clip0_1_12)">
<path d="M97.914 22.3524C95.6015 18.5321 91.5468 15.8914 86.8202 15.7117C81.9608 15.5242 77.6405 17.8758 75.0702 21.5399C74.7108 22.0555 73.9921 22.1414 73.5233 21.7274C70.0858 18.7274 65.2343 17.3133 60.0858 18.6571C53.7811 20.3055 49.4843 26.1492 49.4843 32.6727C49.4843 33.2899 48.9843 33.7352 48.4218 33.7352C48.2968 33.7352 48.1796 33.7117 48.0546 33.6727C45.7108 32.868 43.164 32.5086 40.5077 32.7039C32.1171 33.3211 25.039 39.5555 23.3515 47.8055C22.8515 50.2821 22.8593 52.6883 23.2655 54.9539C23.3671 55.5086 22.9843 56.0321 22.4296 56.1492C11.328 58.4852 2.99208 68.3289 2.99208 80.1336C2.99208 87.8289 6.54677 94.7039 12.1015 99.1961C12.6171 99.6102 12.6171 100.391 12.1015 100.806C9.39052 102.993 7.14833 105.759 5.57021 108.915C3.92177 112.212 2.99208 115.931 2.99208 119.868C2.99208 131.673 11.328 141.516 22.4296 143.852C22.9843 143.97 23.3671 144.493 23.2655 145.048C22.8593 147.313 22.8515 149.72 23.3515 152.196C25.039 160.446 32.1171 166.681 40.5077 167.298C43.2811 167.501 45.9452 167.095 48.3671 166.22C48.914 166.016 49.4843 166.415 49.4843 166.993V167.009C49.4843 175.048 55.8905 181.821 63.9296 181.852C67.6015 181.868 70.9608 180.509 73.5233 178.274C73.9921 177.86 74.7108 177.946 75.0702 178.462C77.6405 182.126 81.9608 184.477 86.8202 184.29C91.9374 184.095 96.2577 181.016 98.4452 176.688C99.4698 174.683 100.003 172.463 99.9999 170.212V29.7899C99.9999 27.0946 99.2421 24.5321 97.914 22.3524Z" fill="#EF59A3"/>
<path d="M187.898 100.806C187.778 100.709 187.681 100.586 187.614 100.447C187.547 100.308 187.512 100.155 187.512 100.001C187.512 99.8463 187.547 99.6938 187.614 99.5545C187.681 99.4152 187.778 99.2927 187.898 99.1961C193.453 94.7039 197.008 87.8289 197.008 80.1336C197.008 68.3289 188.672 58.4852 177.57 56.1492C177.016 56.0321 176.633 55.5086 176.734 54.9539C177.141 52.6883 177.148 50.2821 176.648 47.8055C174.961 39.5555 167.883 33.3211 159.492 32.7039C156.719 32.5008 154.055 32.9071 151.633 33.7821C151.086 33.9852 150.516 33.5867 150.516 33.0086V32.993C150.516 24.9539 144.109 18.1805 136.07 18.1492C132.398 18.1336 129.039 19.493 126.477 21.7274C126.008 22.1414 125.289 22.0555 124.93 21.5399C122.359 17.8758 118.039 15.5242 113.18 15.7117C105.75 15.993 100 22.3602 100 29.7899V170.212C100 177.641 105.75 184.009 113.18 184.29C118.039 184.477 122.359 182.126 124.93 178.462C125.289 177.946 126.008 177.86 126.477 178.274C129.914 181.274 134.766 182.688 139.914 181.345C146.219 179.696 150.516 173.852 150.516 167.329C150.516 166.712 151.016 166.266 151.578 166.266C151.703 166.266 151.82 166.29 151.945 166.329C154.289 167.134 156.836 167.493 159.492 167.298C167.883 166.681 174.961 160.446 176.648 152.196C177.148 149.72 177.141 147.313 176.734 145.048C176.633 144.493 177.016 143.97 177.57 143.852C188.672 141.516 197.008 131.673 197.008 119.868C197.008 115.931 196.078 112.212 194.43 108.915C192.858 105.776 190.631 103.01 187.898 100.806Z" fill="#EF59A3"/>
<path d="M97.914 22.3524C95.6015 18.5321 91.5468 15.8914 86.8202 15.7117C81.9608 15.5242 77.6405 17.8758 75.0702 21.5399C74.7108 22.0555 73.9921 22.1414 73.5233 21.7274C70.0858 18.7274 65.2343 17.3133 60.0858 18.6571C53.7811 20.3055 49.4843 26.1492 49.4843 32.6727C49.4843 33.2899 48.9843 33.7352 48.4218 33.7352C48.2968 33.7352 48.1796 33.7117 48.0546 33.6727C45.7108 32.868 43.164 32.5086 40.5077 32.7039C32.1171 33.3211 25.039 39.5555 23.3515 47.8055C22.8515 50.2821 22.8593 52.6883 23.2655 54.9539C23.3671 55.5086 22.9843 56.0321 22.4296 56.1492C11.328 58.4852 2.99208 68.3289 2.99208 80.1336C2.99208 87.8289 6.54677 94.7039 12.1015 99.1961C12.6171 99.6102 12.6171 100.391 12.1015 100.805C9.39052 102.993 7.14833 105.759 5.57021 108.915C8.86708 115.501 15.0311 120.391 22.4296 121.946C22.9843 122.063 23.3671 122.587 23.2655 123.141C22.8593 125.407 22.8515 127.813 23.3515 130.29C25.039 138.54 32.1171 144.774 40.5077 145.391C43.2811 145.595 45.9452 145.188 48.3671 144.313C48.914 144.11 49.4843 144.509 49.4843 145.087V145.102C49.4843 153.141 55.8905 159.915 63.9296 159.946C67.6015 159.962 70.9608 158.602 73.5233 156.368C73.9921 155.954 74.7108 156.04 75.0702 156.555C77.6405 160.22 81.9608 162.571 86.8202 162.384C91.9374 162.188 96.2577 159.11 98.4452 154.782C99.4698 152.777 100.003 150.557 99.9999 148.305V29.7899C99.9999 27.0946 99.2421 24.5321 97.914 22.3524Z" fill="#FF5CAA"/>
<path d="M187.898 100.805C187.778 100.709 187.681 100.586 187.614 100.447C187.547 100.308 187.512 100.155 187.512 100.001C187.512 99.8463 187.547 99.6938 187.614 99.5545C187.681 99.4152 187.778 99.2927 187.898 99.1961C193.453 94.7039 197.008 87.8289 197.008 80.1336C197.008 68.3289 188.672 58.4852 177.57 56.1492C177.016 56.0321 176.633 55.5086 176.734 54.9539C177.141 52.6883 177.148 50.2821 176.648 47.8055C174.961 39.5555 167.883 33.3211 159.492 32.7039C156.719 32.5008 154.055 32.9071 151.633 33.7821C151.086 33.9852 150.516 33.5867 150.516 33.0086V32.993C150.516 24.9539 144.109 18.1805 136.07 18.1492C132.398 18.1336 129.039 19.493 126.477 21.7274C126.008 22.1414 125.289 22.0555 124.93 21.5399C122.359 17.8758 118.039 15.5242 113.18 15.7117C105.75 15.993 100 22.3602 100 29.7899V148.305C100 155.735 105.75 162.102 113.18 162.384C118.039 162.571 122.359 160.22 124.93 156.555C125.289 156.04 126.008 155.954 126.477 156.368C129.914 159.368 134.766 160.782 139.914 159.438C146.219 157.79 150.516 151.946 150.516 145.423C150.516 144.805 151.016 144.36 151.578 144.36C151.703 144.36 151.82 144.384 151.945 144.423C154.289 145.227 156.836 145.587 159.492 145.391C167.883 144.774 174.961 138.54 176.648 130.29C177.148 127.813 177.141 125.407 176.734 123.141C176.633 122.587 177.016 122.063 177.57 121.946C184.969 120.391 191.133 115.501 194.43 108.915C192.858 105.776 190.631 103.01 187.898 100.805Z" fill="#FF5CAA"/>
<path d="M84.1204 70.3555C87.7469 70.3555 90.6868 67.4156 90.6868 63.7891C90.6868 60.1625 87.7469 57.2227 84.1204 57.2227C80.4939 57.2227 77.554 60.1625 77.554 63.7891C77.554 67.4156 80.4939 70.3555 84.1204 70.3555Z" fill="#FBFBFB"/>
<path d="M42.8538 78.7508C46.4804 78.7508 49.4202 75.8109 49.4202 72.1844C49.4202 68.5579 46.4804 65.618 42.8538 65.618C39.2273 65.618 36.2874 68.5579 36.2874 72.1844C36.2874 75.8109 39.2273 78.7508 42.8538 78.7508Z" fill="#FBFBFB"/>
<path d="M38.4827 119.528C42.1092 119.528 45.0491 116.588 45.0491 112.962C45.0491 109.335 42.1092 106.395 38.4827 106.395C34.8562 106.395 31.9163 109.335 31.9163 112.962C31.9163 116.588 34.8562 119.528 38.4827 119.528Z" fill="#FBFBFB"/>
<path d="M39.4132 148.797C43.0397 148.797 45.9796 145.857 45.9796 142.23C45.9796 138.604 43.0397 135.664 39.4132 135.664C35.7866 135.664 32.8467 138.604 32.8467 142.23C32.8467 145.857 35.7866 148.797 39.4132 148.797Z" fill="#FBFBFB"/>
<path d="M84.6553 163.588C88.2818 163.588 91.2217 160.648 91.2217 157.021C91.2217 153.395 88.2818 150.455 84.6553 150.455C81.0287 150.455 78.0889 153.395 78.0889 157.021C78.0889 160.648 81.0287 163.588 84.6553 163.588Z" fill="#FBFBFB"/>
<path d="M21.5859 56.3445C21.6797 56.8914 21.2969 57.407 20.75 57.5242C17.2031 58.2664 13.9453 59.782 11.1406 61.8836C14.0703 59.2508 17.6328 57.3211 21.5859 56.3445Z" fill="#FF5CAA"/>
<path d="M189.373 100.001C205.771 86.0738 199.053 59.4793 178.356 54.7215C180.66 39.7738 166.447 27.5543 152.048 31.9988C151.263 18.7363 136.066 11.8957 125.879 20.1918C119.13 11.284 105.167 12.2191 100 23.0019C94.8695 12.2965 80.9375 11.1926 74.121 20.1918C64.175 12.073 48.4867 18.3418 47.9351 31.9949C33.5437 27.5699 19.3382 39.7722 21.6429 54.7222C0.948387 59.4801 -5.77349 86.0715 10.6257 100.002C-5.77193 113.929 0.946043 140.524 21.6429 145.282C19.339 160.229 33.5523 172.449 47.9515 168.004C48.7359 181.262 63.9281 188.109 74.1203 179.811C80.8632 188.712 94.8304 187.787 99.9992 177.001C105.127 187.7 119.062 188.81 125.878 179.811C135.823 187.929 151.512 181.662 152.064 168.008C166.548 172.463 180.646 160.136 178.356 145.281C199.051 140.524 205.772 113.932 189.373 100.001ZM41.2921 34.2504V49.559H24.6601C25.6585 41.1621 32.5937 34.5543 41.2921 34.2504ZM42.8546 67.1808C45.614 67.1808 47.8585 69.4254 47.8585 72.1847C47.8585 74.9441 45.614 77.1886 42.8546 77.1886C40.0953 77.1886 37.8507 74.9441 37.8507 72.1847C37.8507 69.4254 40.0953 67.1808 42.8546 67.1808ZM98.4375 170.209C98.4375 182.269 83.2484 187.389 76.3476 177.562C76.1379 177.262 75.8673 177.009 75.5535 176.821C75.2396 176.633 74.8896 176.512 74.5262 176.468C74.1628 176.424 73.7941 176.457 73.4443 176.565C73.0945 176.673 72.7714 176.854 72.496 177.095C69.057 180.101 64.0703 181.233 59.4179 179.418V158.584H76.6812C77.4125 162.321 80.7078 165.15 84.6554 165.15C89.1375 165.15 92.7843 161.504 92.7843 157.021C92.7843 152.539 89.1382 148.893 84.6554 148.893C80.7078 148.893 77.4117 151.722 76.6812 155.459H59.4179V127.464H68.3554V139.105C68.3554 141.169 71.4804 141.172 71.4804 139.105V127.464H98.3226C98.3617 127.464 98.3984 127.456 98.4367 127.453L98.4375 170.209ZM79.6515 157.022C79.6515 154.263 81.896 152.018 84.6554 152.018C87.4148 152.018 89.6593 154.263 89.6593 157.022C89.6593 159.782 87.4148 162.026 84.6554 162.026C81.896 162.026 79.6515 159.782 79.6515 157.022ZM98.4375 91.9105C98.3992 91.9074 98.3625 91.8988 98.3234 91.8988H85.6836V71.7644C89.4203 71.0332 92.25 67.7379 92.25 63.7902C92.25 59.3082 88.6039 55.6613 84.1211 55.6613C79.6382 55.6613 75.9921 59.3074 75.9921 63.7894C75.9921 67.7371 78.8218 71.0332 82.5586 71.7636V93.4613C82.5586 93.8757 82.7232 94.2731 83.0162 94.5662C83.3092 94.8592 83.7067 95.0238 84.1211 95.0238H98.3234C98.3625 95.0238 98.3992 95.0152 98.4375 95.0121V124.351C98.3992 124.348 98.3625 124.339 98.3234 124.339H57.8554C57.441 124.339 57.0436 124.504 56.7506 124.797C56.4575 125.09 56.2929 125.488 56.2929 125.902V140.668H47.3875C46.6562 136.931 43.3601 134.101 39.4132 134.101C34.9312 134.101 31.2843 137.747 31.2843 142.23C31.2843 146.713 34.9312 150.359 39.4132 150.359C43.3609 150.359 46.657 147.529 47.3875 143.793H56.2921V177.657C54.6562 176.404 53.3318 174.79 52.4221 172.941C51.5124 171.092 51.042 169.058 51.0476 166.997C51.0476 166.217 50.6679 165.484 50.0296 165.037C48.014 163.622 46.857 166.192 40.621 165.737C30.4812 164.996 22.9656 155.561 24.8039 145.325C25.0531 143.938 24.1531 142.621 22.7531 142.326C4.07495 138.394 -2.04224 114.257 13.0843 102.022C13.3859 101.779 13.6291 101.471 13.7963 101.121C13.9634 100.771 14.0501 100.389 14.0501 100.001C14.0501 99.6136 13.9634 99.2309 13.7963 98.8812C13.6291 98.5314 13.3859 98.2235 13.0843 97.9801C10.0788 95.5576 7.73315 92.4158 6.26479 88.8457H21.4804V127.648C21.4804 129.712 24.6054 129.715 24.6054 127.648V114.525H30.5078C31.239 118.261 34.5343 121.091 38.482 121.091C42.964 121.091 46.6109 117.445 46.6109 112.962C46.6109 108.479 42.9648 104.833 38.482 104.833C34.5343 104.833 31.2382 107.663 30.5078 111.4H24.6054V88.8457H55.2046C57.2687 88.8457 57.2718 85.7207 55.2046 85.7207H5.24839C2.02808 72.8426 10.3625 60.2855 22.7539 57.6769C25.5875 57.0816 24.671 54.1918 24.5773 52.684H41.2921V64.2097C37.5554 64.941 34.7257 68.2371 34.7257 72.184C34.7257 76.666 38.3718 80.3129 42.8546 80.3129C47.3375 80.3129 50.9835 76.6668 50.9835 72.184C50.9835 68.2363 48.1539 64.9402 44.4171 64.2097V34.409C47.5765 34.866 48.396 35.916 49.9515 34.8051C50.2906 34.5619 50.5669 34.2415 50.7575 33.8703C50.9481 33.4992 51.0476 33.0879 51.0476 32.6707C51.0445 28.4066 53.0742 24.5488 56.2929 22.1824V75.4746C56.2929 77.5386 59.4179 77.5418 59.4179 75.4746V20.5035C62.1492 19.5183 65.3718 19.3941 68.3554 20.4652V105.386C68.3554 105.8 68.52 106.197 68.8131 106.49C69.1061 106.783 69.5035 106.948 69.9179 106.948C70.3323 106.948 70.7297 106.783 71.0228 106.49C71.3158 106.197 71.4804 105.8 71.4804 105.386V42.4918C71.7226 42.4918 98.1961 42.498 98.4375 42.4801V91.9105ZM84.1203 68.7933C81.3609 68.7933 79.1164 66.5488 79.1164 63.7894C79.1164 61.0301 81.3609 58.7855 84.1203 58.7855C86.8796 58.7855 89.1242 61.0301 89.1242 63.7894C89.1242 66.5488 86.8796 68.7933 84.1203 68.7933ZM44.4171 142.231C44.4171 144.99 42.1726 147.235 39.4132 147.235C36.6539 147.235 34.4093 144.99 34.4093 142.231C34.4093 139.471 36.6546 137.227 39.4132 137.227C42.1718 137.227 44.4171 139.471 44.4171 142.231ZM33.4796 112.962C33.4796 110.203 35.7242 107.958 38.4835 107.958C41.2429 107.958 43.4875 110.203 43.4875 112.962C43.4875 115.721 41.2429 117.966 38.4835 117.966C35.7242 117.966 33.4796 115.721 33.4796 112.962ZM98.4375 39.3777C98.1961 39.3597 71.7226 39.366 71.4804 39.366V22.1113C72.5336 22.8652 73.1312 23.7074 74.5226 23.5355C74.8865 23.4911 75.237 23.3707 75.5514 23.1821C75.8658 22.9936 76.137 22.7411 76.3476 22.441C83.2429 12.6191 98.4375 17.7207 98.4375 29.7941V39.3777ZM177.246 142.326C175.846 142.62 174.946 143.938 175.195 145.325C175.948 149.493 175.145 153.793 172.938 157.408C170.691 156.824 159.505 159.097 159.558 144.369C159.565 142.305 156.44 142.29 156.433 144.358C156.397 154.476 160.935 159.853 170.626 160.421C168.336 162.819 165.407 164.509 162.186 165.294C158.965 166.079 155.587 165.924 152.451 164.849C150.732 164.261 148.951 165.525 148.952 167.332C148.959 178.889 135.598 184.172 127.504 177.095C127.396 177.005 127.281 176.924 127.159 176.852C127.488 168.019 131.793 165.137 140.119 165.053C142.152 165.053 142.267 161.928 140.005 161.928C129.561 161.928 124.283 166.814 124.03 177.136C123.249 177.85 120.284 183 113.24 182.732C106.801 182.488 101.562 176.87 101.562 170.21V149.238C108.366 154.956 115.227 154.612 122.373 147.407C123.826 145.941 121.61 143.737 120.154 145.207C113.611 151.803 108.149 151.605 101.794 145.206C101.723 145.135 101.645 145.071 101.562 145.014V89.2972C103.789 89.6241 106.06 89.4768 108.226 88.865C110.392 88.2533 112.404 87.1908 114.131 85.7472C120.502 91.0402 129.919 90.6379 135.81 84.7457C137.273 83.284 135.059 81.0761 133.601 82.5363C128.891 87.2457 121.437 87.5691 116.343 83.5191C121.488 77.1933 121.119 67.8441 115.235 61.9597C113.777 60.4996 111.563 62.7082 113.026 64.1691C121.927 73.0707 114.099 88.373 101.562 86.1332V29.7941C101.562 17.734 116.751 12.6144 123.652 22.441C123.861 22.7411 124.132 22.9936 124.446 23.1821C124.759 23.3705 125.11 23.4907 125.473 23.5348C125.836 23.5789 126.205 23.5459 126.555 23.4379C126.905 23.3299 127.228 23.1494 127.503 22.9082C135.904 15.5652 148.959 21.6394 148.951 33.0051C148.951 33.7855 149.33 34.5183 149.969 34.9652C151.978 36.3761 153.175 33.809 159.377 34.2652C161.082 34.3938 162.758 34.7764 164.349 35.4004C164.205 44.4027 160.05 47.7902 151.491 47.7902C149.26 47.7902 149.258 50.9152 151.491 50.9152C161.066 50.9152 166.761 46.7965 167.419 36.948C173.377 40.7566 176.442 47.7332 175.194 54.6769C174.945 56.0644 175.845 57.3816 177.245 57.6761C195.923 61.6082 202.041 85.7457 186.914 97.9801C186.612 98.2235 186.369 98.5314 186.202 98.8812C186.035 99.2309 185.948 99.6136 185.948 100.001C185.948 100.389 186.035 100.771 186.202 101.121C186.369 101.471 186.612 101.779 186.914 102.022C202.056 114.268 195.909 138.397 177.246 142.326Z" fill="#491352"/>
<path d="M139.649 115.186C139.649 113.122 136.524 113.119 136.524 115.186C136.524 120.342 132.329 124.537 127.173 124.537C122.017 124.537 117.822 120.342 117.822 115.186C117.822 113.122 114.697 113.119 114.697 115.186C114.697 121.567 119.516 126.838 125.704 127.567C126.434 133.755 131.704 138.574 138.085 138.574C140.149 138.574 140.152 135.449 138.085 135.449C133.419 135.449 129.551 132.009 128.856 127.534C134.94 126.708 139.649 121.493 139.649 115.186ZM132.928 27.8938C132.928 25.8297 129.803 25.8266 129.803 27.8938C129.803 33.05 125.608 37.2446 120.452 37.2446C115.295 37.2446 111.101 33.05 111.101 27.8938C111.101 25.8297 107.976 25.8266 107.976 27.8938C107.976 34.275 112.795 39.5453 118.983 40.275C119.713 46.4633 124.983 51.2821 131.364 51.2821C133.428 51.2821 133.431 48.1571 131.364 48.1571C126.698 48.1571 122.83 44.7172 122.135 40.2414C128.22 39.4149 132.928 34.2 132.928 27.8938ZM179.061 97.1422C181.125 97.1422 181.128 94.0172 179.061 94.0172C172.68 94.0172 167.41 98.836 166.68 105.024C156.395 106.238 153.406 118.968 157.235 118.968C157.65 118.968 158.047 118.803 158.34 118.51C158.633 118.217 158.798 117.82 158.798 117.406C158.798 112.739 162.238 108.871 166.713 108.177C167.54 114.26 172.756 118.968 179.062 118.968C181.126 118.968 181.129 115.843 179.062 115.843C173.906 115.843 169.711 111.648 169.711 106.492C169.711 101.336 173.906 97.1422 179.061 97.1422ZM187.254 73.8617C188.707 72.3961 186.492 70.1922 185.035 71.6617C178.492 78.2578 173.031 78.0602 166.675 71.661C165.223 70.1953 163.001 72.3961 164.458 73.8625C172.032 81.4899 179.481 81.6992 187.254 73.8617ZM158.659 76.9336C148.026 76.9336 142.494 81.8649 142.54 93.0532C142.549 95.1203 145.673 95.1055 145.665 93.0399C145.627 83.725 149.677 80.0578 158.538 80.0578C160.803 80.0578 160.682 76.9406 158.659 76.9336Z" fill="#491352"/>
</g>
<defs>
<clipPath id="clip0_1_12">
<rect width="200" height="200" fill="white"/>
</clipPath>
</defs>
</svg>
