<svg width="212" height="240" viewBox="0 0 212 240" fill="none" xmlns="http://www.w3.org/2000/svg">
<path d="M104.08 0.097045C97.6838 0.983927 92.6589 5.64869 91.322 11.9836C90.9647 13.6306 90.9647 16.3604 91.3105 17.9959C91.4488 18.6294 91.5179 19.1823 91.4718 19.2168C91.4257 19.2629 76.6507 27.8092 58.6256 38.1984L25.8601 57.0993L25.0649 56.3968C23.0595 54.6 20.8121 53.4482 18.0923 52.8262C16.4557 52.4576 13.6436 52.4576 11.961 52.8147C5.9795 54.1047 1.51933 58.5621 0.274631 64.5054C-0.0480686 66.0488 -0.0826435 68.6634 0.217006 70.1607C0.98918 74.0653 2.97148 77.2788 6.0256 79.5363C7.18962 80.4001 9.17192 81.4137 10.4858 81.8053L11.4654 82.1048V120.022V157.939L10.4397 158.261C7.61604 159.148 5.0114 160.957 3.22503 163.237C-1.43107 169.203 -1.00464 177.715 4.23922 183.014C5.49545 184.292 6.52117 185.041 8.14619 185.858C10.4166 187.022 12.3759 187.482 15.0266 187.482C17.6313 187.482 19.602 187.01 21.8609 185.858C23.0826 185.225 24.0046 184.591 25.1455 183.589L25.8601 182.967L26.3557 183.244C26.8051 183.486 91.4603 220.781 91.541 220.838C91.564 220.85 91.4603 221.391 91.322 222.048C90.9532 223.752 90.9647 226.436 91.322 228.141C92.6013 234.153 97.3841 238.783 103.4 239.832C104.702 240.062 107.376 240.05 108.69 239.832C110.649 239.486 112.701 238.645 114.499 237.436C115.617 236.687 117.645 234.66 118.406 233.52C119.616 231.711 120.411 229.742 120.78 227.634C121.103 225.757 120.964 222.854 120.469 221.023C120.446 220.931 132.962 213.64 153.165 201.984C171.167 191.594 185.965 183.06 186.034 183.025C186.115 182.99 186.507 183.267 186.899 183.624C188.962 185.49 191.705 186.837 194.448 187.31C195.738 187.54 198.32 187.529 199.622 187.31C205.016 186.365 209.511 182.518 211.239 177.347C211.873 175.446 212.035 174.271 211.965 172.048C211.885 169.468 211.493 167.902 210.364 165.679C208.543 162.12 205.477 159.528 201.605 158.273L200.59 157.95V120.022C200.59 89.7758 200.625 82.0818 200.74 82.0357C200.809 82.0127 201.247 81.886 201.685 81.7477C205.304 80.6535 208.715 77.705 210.49 74.1689C212.127 70.9094 212.461 66.6362 211.355 63.0081C210.433 59.9328 208.151 56.8805 205.419 55.0722C203.011 53.4712 199.841 52.4922 197.018 52.4922C193.456 52.4922 189.48 54.0471 186.933 56.4198L186.184 57.1224L153.303 38.1523L120.411 19.1708L120.642 18.2954C120.964 17.0169 121.045 13.8725 120.791 12.4097C119.869 7.13451 116.112 2.65403 111.064 0.845711C109.14 0.154635 106.039 -0.179386 104.08 0.097045ZM108.379 6.19004C111.422 7.05388 113.796 9.34595 114.718 12.3406C116.251 17.3164 113.196 22.6031 108.079 23.824C106.558 24.1926 104.564 24.1004 103.181 23.6167C100.772 22.7759 98.94 21.1749 97.799 18.8943C95.3903 14.0798 97.9949 8.00987 103.204 6.32825C103.619 6.19004 104.218 6.02879 104.53 5.9712C105.406 5.79843 107.388 5.91361 108.379 6.19004ZM152.75 46.0421C181.217 62.4552 182.611 63.273 182.565 63.5494C182.531 63.7106 182.415 64.229 182.312 64.7012C182.162 65.3347 182.116 66.0949 182.116 67.5231C182.104 69.4235 182.22 70.2528 182.75 72.1648C182.773 72.257 175.973 76.2422 164.932 82.6116C155.113 88.2784 147.068 92.9086 147.045 92.8856C147.022 92.8741 146.907 92.3903 146.78 91.8259C145.973 88.1172 143.853 84.4429 140.925 81.6211C135.301 76.2076 127.072 74.3993 119.685 76.9563C118.89 77.2327 118.083 77.5207 117.887 77.6013C117.541 77.751 117.507 77.7395 116.688 77.083C114.741 75.5281 111.998 73.9501 109.854 73.1554L108.967 72.8213V51.2598V29.6982L109.462 29.5715C111.986 28.938 114.314 27.694 116.055 26.0815L116.85 25.3444L119.869 27.0836C121.529 28.0396 136.327 36.5744 152.75 46.0421ZM96.0587 26.1852C97.9834 27.8668 100.358 29.0877 102.778 29.6175L103.089 29.6866V50.6032V71.5313L101.625 71.4507C95.9781 71.1397 89.3627 73.2475 84.7643 76.8296C82.7243 78.4191 80.9264 80.3426 79.4858 82.4734C78.5177 83.9246 78.2757 84.3393 77.3768 86.1361C76.57 87.7601 76.4202 87.9674 76.0399 87.9674C75.625 87.9674 73.6657 88.4857 72.3058 88.9465C69.9892 89.7527 67.3039 91.204 65.7019 92.5516C65.287 92.8971 65.0796 93.0008 64.9528 92.9202C64.1691 92.494 29.3752 72.3952 29.3176 72.3261C29.2715 72.28 29.3637 71.7617 29.5135 71.1743C30.0321 69.1356 30.0667 66.3713 29.6057 64.229C29.502 63.7222 29.4328 63.296 29.4559 63.273C29.5942 63.1348 94.9869 25.4365 95.0791 25.4365C95.1483 25.4365 95.5862 25.7705 96.0587 26.1852ZM16.3059 58.493C18.3112 58.8155 19.9017 59.6448 21.3884 61.1191C25.0072 64.7357 24.9842 70.368 21.3192 73.9731C20.2705 75.0098 19.1756 75.6893 17.7465 76.1846C16.8937 76.4725 16.6977 76.4956 14.9805 76.5071C13.2057 76.5071 13.1019 76.4956 12.1338 76.15C9.06819 75.0558 6.90149 72.7062 6.09475 69.5963C5.81815 68.5136 5.81815 66.4289 6.09475 65.3923C6.59032 63.5955 7.38554 62.2364 8.72244 60.9463C10.7624 58.9768 13.609 58.0553 16.3059 58.493ZM198.573 58.5391C201.881 59.115 204.555 61.4301 205.696 64.6782C205.996 65.542 206.053 65.8875 206.099 67.12C206.134 68.1796 206.099 68.767 205.961 69.3544C205.385 71.7962 204.002 73.8234 202.019 75.1019C200.394 76.15 198.908 76.5877 197.018 76.5877C194.459 76.5762 192.212 75.5972 190.437 73.7197C189.181 72.3837 188.42 70.9094 188.074 69.101C187.256 64.8509 189.849 60.3935 193.975 58.9307C195.531 58.3778 196.96 58.2627 198.573 58.5391ZM104.726 76.5532C107.964 77.2558 111.145 78.8107 113.957 81.0452L114.856 81.7593L113.415 83.1645C111.191 85.3529 109.658 87.6219 109.658 88.7161C109.658 89.1768 109.716 89.315 110.05 89.6491C110.373 89.9716 110.534 90.0407 110.914 90.0407C111.652 90.0407 111.998 89.7988 112.539 88.8658C113.657 86.9769 115.559 84.9037 117.53 83.4409C121.252 80.6535 126.646 79.8127 131.302 81.2985C135.048 82.4964 138.471 85.2722 140.476 88.7161C141.525 90.5359 142.366 93.2081 142.424 94.9243L142.447 95.8227L141.41 96.2488C140.153 96.7556 139.024 97.3661 138.148 98.0111C137.099 98.7828 136.972 98.9671 136.972 99.6582C136.972 100.384 137.238 100.787 137.848 100.983C138.425 101.179 138.874 101.052 139.6 100.51C140.58 99.7733 141.974 99.0823 143.542 98.5524C144.729 98.1608 145.178 98.0687 146.146 98.0111C148.809 97.8844 151.586 98.7367 153.649 100.326C154.513 100.994 155.816 102.365 156.369 103.194C158.674 106.684 158.962 111.165 157.13 114.839C156.623 115.852 156.254 116.417 156.115 116.417C156.069 116.417 155.447 115.921 154.732 115.323C153.188 114.021 153.154 113.998 152.508 113.998C151.701 113.998 151.148 114.574 151.148 115.403C151.16 115.956 151.333 116.198 152.37 117.073C155.009 119.308 156.473 120.863 157.372 122.418C158.351 124.088 159.273 126.725 159.619 128.902C160.092 131.77 159.642 135.444 158.455 138.37C156.519 143.173 152.278 147.147 147.333 148.771C144.913 149.565 141.917 149.888 139.542 149.588L138.378 149.45L138.402 146.444C138.413 143.472 138.413 143.403 138.079 142.102C137.894 141.376 137.745 140.616 137.745 140.432C137.733 140.236 137.929 139.464 138.171 138.704C138.609 137.299 138.978 135.387 139.105 133.809L139.174 132.945H142.02C145.962 132.933 147.518 132.634 147.898 131.793C148.255 131.01 147.852 130.031 147.091 129.847C146.78 129.766 146.285 129.801 145.305 129.962C143.864 130.192 140.764 130.261 139.704 130.089C139.047 129.973 139.058 129.996 138.713 128.165C137.353 121.012 132.236 115.104 125.494 112.892C124.802 112.673 124.203 112.432 124.157 112.351C124.111 112.27 124.064 111.948 124.064 111.637C124.064 110.335 123.477 107.629 122.854 106.051L122.566 105.302L122.958 104.035C123.707 101.685 125.021 99.3241 126.75 97.2048C127.522 96.2604 127.637 96.0646 127.637 95.6729C127.637 95.0395 127.349 94.5442 126.888 94.3484C125.989 93.9798 125.517 94.1871 124.491 95.4311C123.315 96.8363 122.267 98.4718 121.425 100.199C121.01 101.075 120.63 101.789 120.584 101.789C120.549 101.789 120.25 101.455 119.927 101.052C118.97 99.854 116.884 97.942 115.582 97.0666C112.24 94.8321 107.999 93.5652 104.011 93.6112C103.285 93.6227 102.628 93.6227 102.547 93.6227C102.213 93.5997 101.383 90.9621 101.118 89.0732C100.934 87.7947 100.657 87.4031 99.8505 87.3109C99.159 87.2303 98.6288 87.4952 98.3983 88.0596C98.0987 88.7967 98.3868 90.8815 99.1013 92.9547C99.3664 93.7149 99.4471 94.1065 99.3549 94.1295C98.0641 94.5903 95.2059 95.5693 95.1828 95.5693C95.1598 95.5693 94.791 95.2583 94.3646 94.8667C91.2989 92.1254 87.0347 90.3632 82.4016 89.9255C81.641 89.8449 80.9956 89.7642 80.9725 89.7412C80.8573 89.6375 82.4247 86.712 83.2545 85.4796C86.6889 80.3656 91.3796 77.4516 97.8912 76.3919C99.3895 76.15 103.262 76.2422 104.726 76.5532ZM61.0459 97.5158C61.1035 97.5619 60.8038 98.2414 60.4005 99.0247C59.5822 100.626 59.1558 101.777 58.8215 103.298C58.5565 104.53 58.3375 106.926 58.4297 107.721C58.4643 108.032 58.4527 108.354 58.4066 108.423C58.3605 108.481 57.7958 108.873 57.1619 109.287C48.9792 114.62 45.5217 124.422 48.5412 133.751C49.9358 138.07 52.4828 141.63 55.9864 144.175C56.8738 144.808 56.9775 144.924 56.7931 145.027C56.6779 145.085 49.7744 149.07 41.4534 153.873L26.3096 162.604L25.3991 161.751C23.6934 160.139 21.6535 158.929 19.5444 158.273L18.4956 157.95L18.5187 120.022L18.5533 82.0818L19.7288 81.6902C21.9301 80.953 23.8893 79.7667 25.4106 78.2578L26.2519 77.417L43.6086 87.4261C53.1512 92.9317 60.9998 97.4697 61.0459 97.5158ZM186.668 78.35C188.305 79.8934 190.183 81.0106 192.385 81.7477L193.387 82.0818L193.422 120.022L193.445 157.973L192.5 158.261C190.402 158.918 188.293 160.173 186.691 161.705L185.735 162.627L172.216 154.829C164.782 150.533 158.685 147.008 158.662 146.997C158.639 146.974 158.939 146.582 159.331 146.11C161.025 144.106 162.546 141.388 163.365 138.877C164.194 136.366 164.517 134.27 164.517 131.413C164.517 127.105 163.434 123.212 161.186 119.492L160.622 118.548L161.417 116.935C162.754 114.217 163.203 112.144 163.088 109.218C162.881 103.666 160.218 98.8404 155.793 96.007C155.274 95.6729 154.859 95.362 154.871 95.3159C154.894 95.2237 185.481 77.5207 185.654 77.4976C185.7 77.4861 186.161 77.8777 186.668 78.35ZM84.1995 92.6783C87.0001 93.2542 89.9275 94.5903 92.0596 96.2719C92.3823 96.5368 92.6474 96.7787 92.6358 96.8017C92.6243 96.8247 92.1518 97.1933 91.5986 97.608C90.4922 98.4372 88.4753 100.407 87.9452 101.19C87.3113 102.111 87.5648 103.148 88.4984 103.505C89.236 103.782 89.697 103.551 90.6535 102.422C91.6216 101.271 92.7972 100.223 93.9266 99.5084C94.3761 99.232 95.1022 98.7598 95.5401 98.4488C97.0499 97.4237 98.26 96.9514 100.68 96.4677C102.559 96.0876 105.694 96.0876 107.549 96.4677C113.116 97.5849 117.795 101.167 120.077 106.062C120.884 107.79 121.529 110.163 121.529 111.406V111.775L119.374 111.844C116.93 111.925 115.709 112.132 113.75 112.777C111.272 113.606 108.967 114.954 106.927 116.751C105.302 118.179 105.014 119.066 105.924 119.861C106.235 120.137 106.431 120.218 106.812 120.218C107.399 120.218 107.584 120.091 108.805 118.962C111.675 116.256 115.594 114.689 119.443 114.689C123.096 114.689 125.252 115.196 127.695 116.636C132.27 119.319 135.128 123.397 136.292 128.856C136.719 130.849 136.65 135.087 136.166 136.389C136.108 136.573 136.027 136.504 135.705 135.986C134.483 133.993 131.936 131.298 130.403 130.365C129.424 129.778 128.213 130.353 128.213 131.425C128.213 131.978 128.444 132.427 128.928 132.795C131.302 134.615 132.973 136.711 134.379 139.625C135.636 142.194 135.993 143.726 135.981 146.421C135.981 149.116 135.566 150.809 134.276 153.447C133.342 155.359 132.374 156.718 130.922 158.169C128.997 160.081 126.519 161.648 123.776 162.661C118.705 164.539 112.632 164.205 107.768 161.774C104.149 159.966 101.591 157.57 99.6776 154.173C98.7095 152.468 98.3407 152.295 97.1997 152.929C93.7653 154.841 91.5525 155.44 88.3485 155.313C86.0781 155.232 84.3724 154.795 82.4016 153.816C78.7597 152.007 75.9592 148.794 74.6799 144.947C74.1037 143.207 73.8962 141.871 73.8962 139.856C73.8847 135.479 75.4636 131.586 78.4832 128.557C79.5319 127.497 80.3732 126.875 82.4823 125.574C83.6348 124.859 83.1047 123.051 81.7447 123.063C80.8803 123.063 78.7828 124.341 77.0656 125.908C76.547 126.391 76.0744 126.783 76.0168 126.783C75.9707 126.783 75.4867 126.576 74.9565 126.334C70.8882 124.422 66.647 124.157 62.3251 125.527C61.0113 125.954 60.6771 126.276 60.6771 127.151C60.6771 127.658 60.7232 127.773 61.0804 128.131C61.4492 128.499 61.5299 128.534 62.0255 128.488C62.3367 128.453 63.0397 128.292 63.6159 128.119C66.7161 127.186 69.7472 127.301 72.6976 128.465C74.2996 129.098 74.265 129.052 73.7694 129.881C72.3749 132.162 71.5105 134.73 71.1533 137.61C71.015 138.785 71.0726 141.56 71.2685 142.724C71.3377 143.104 71.3722 143.426 71.3492 143.449C71.3377 143.472 70.7499 143.542 70.0699 143.599C65.4369 144.048 60.5618 142.217 57.1043 138.762C52.6211 134.281 51.1344 128.073 53.0936 121.945C53.8773 119.492 55.1105 117.476 56.9775 115.599C58.1761 114.413 59.9395 113.111 61.2879 112.432C62.0485 112.04 64.9989 111.153 66.0938 110.992C67.3731 110.796 67.8341 110.635 68.0876 110.289C68.3988 109.863 68.3988 109.034 68.0876 108.608C67.6266 107.986 67.4307 107.963 65.4253 108.308C64.4342 108.469 63.5353 108.619 63.4431 108.631C63.2932 108.642 63.2702 108.377 63.2817 106.857C63.2932 105.336 63.3509 104.899 63.5929 103.943C64.2267 101.536 65.6213 99.2665 67.6958 97.2624C70.4272 94.6248 73.5505 93.162 77.8493 92.5055C79.2784 92.2867 82.7704 92.3788 84.1995 92.6783ZM65.022 148.103C66.0477 148.298 66.9005 148.356 68.514 148.368C69.6896 148.379 70.7038 148.425 70.7845 148.471C70.8536 148.517 71.1302 148.955 71.4068 149.45C74.8182 155.693 80.281 159.31 87.4726 160.081C89.7431 160.323 92.0942 160.047 94.9178 159.194C95.8513 158.918 96.658 158.688 96.7157 158.688C96.7848 158.688 97.0499 158.964 97.3034 159.31C98.6864 161.129 100.369 162.753 102.132 163.974L103.077 164.619L103.089 187.482V210.357L102.259 210.564C99.8966 211.163 97.4994 212.488 95.7015 214.17C95.3903 214.457 95.1022 214.665 95.0561 214.63C92.6819 213.294 29.6864 176.921 29.5711 176.828C29.4444 176.702 29.4444 176.552 29.6057 175.884C30.1013 173.672 30.0667 171.092 29.502 168.858C29.3406 168.236 29.2484 167.718 29.2945 167.695C29.3522 167.672 37.0854 163.203 46.5013 157.766C55.9172 152.33 63.6274 147.872 63.639 147.872C63.639 147.861 64.2613 147.976 65.022 148.103ZM168.24 159.333C176.111 163.871 182.611 167.637 182.681 167.695C182.784 167.764 182.761 167.971 182.6 168.478C182.012 170.39 181.897 173.385 182.335 175.446C182.438 175.953 182.531 176.46 182.542 176.575C182.554 176.748 175.305 180.975 149.731 195.741L116.907 214.676L116.262 214.123C114.13 212.269 112.274 211.244 109.923 210.622L108.967 210.369V188.922V167.476L110.442 167.856C113.969 168.754 118.36 168.858 122.048 168.121C124.744 167.579 128.317 166.094 130.691 164.504C134.149 162.201 136.604 159.436 138.482 155.774L139.174 154.426H141.271C144.164 154.426 145.743 154.219 148.267 153.481C149.65 153.09 151.92 152.122 152.935 151.512C153.315 151.282 153.695 151.097 153.776 151.086C153.868 151.086 160.368 154.795 168.24 159.333ZM17.2625 163.744C20.4318 164.562 23.0134 167.211 23.8663 170.494C24.1544 171.634 24.1313 173.546 23.8086 174.755C22.7022 178.902 19.1871 181.631 14.9805 181.631C10.7393 181.62 7.16657 178.809 6.09475 174.64C5.82967 173.58 5.82967 171.599 6.09475 170.494C6.41745 169.134 7.29334 167.499 8.23839 166.485C8.68787 166.002 9.29869 165.426 9.59834 165.207C10.6817 164.424 12.203 163.779 13.6321 163.525C14.4388 163.375 16.2483 163.491 17.2625 163.744ZM198.839 163.64C202.273 164.343 205.074 167.05 205.892 170.436C207.24 176.114 202.953 181.597 197.133 181.631C195.542 181.643 194.494 181.389 193.007 180.664C189.757 179.074 187.694 175.55 187.947 172.002C188.212 168.271 190.679 165.069 194.159 163.94C195.923 163.364 197.156 163.283 198.839 163.64ZM107.526 216.105C111.929 216.876 115.086 220.631 115.086 225.089C115.086 229.247 112.286 232.852 108.218 233.911C107.007 234.234 105.094 234.245 103.953 233.957C100.715 233.14 98.0987 230.617 97.2228 227.45C95.7706 222.255 99.3434 216.865 104.76 216.047C105.705 215.909 106.454 215.92 107.526 216.105Z" fill="white"/>
<path d="M141.122 110.442C139.532 110.684 137.423 111.628 136.627 112.446C136.178 112.918 136.074 113.483 136.339 114.047C136.766 114.946 137.665 115.049 138.84 114.335C139.278 114.07 139.981 113.725 140.408 113.552C141.111 113.287 141.341 113.252 142.966 113.252C144.107 113.241 144.845 113.183 145.006 113.103C145.433 112.872 145.617 112.492 145.617 111.859C145.617 111.133 145.329 110.718 144.718 110.546C144.107 110.373 141.998 110.304 141.122 110.442Z" fill="white"/>
<path d="M79.9568 110.245C79.3229 110.533 79.0348 111.489 79.369 112.215C79.5995 112.733 81.2707 113.977 82.6306 114.633C85.1431 115.866 87.5748 116.211 90.3062 115.716C91.574 115.497 92.0465 115.313 92.3346 114.933C92.6804 114.46 92.5767 113.608 92.1272 113.124C91.7584 112.733 91.2398 112.675 90.0988 112.906C88.7158 113.182 87.0447 113.159 85.8576 112.86C84.3133 112.445 83.276 111.88 81.5703 110.475C81.1324 110.118 80.4639 110.015 79.9568 110.245Z" fill="white"/>
<path d="M99.2369 116.879C98.799 117.017 98.4763 117.328 97.7848 118.33C96.5977 120.046 95.595 122.454 95.2378 124.481C94.9266 126.185 95.0879 129.756 95.5489 131.288C95.5835 131.438 95.3991 131.553 94.7076 131.795C92.2989 132.647 90.2359 133.972 88.2652 135.941C86.5364 137.669 85.9141 138.567 85.9141 139.339C85.9141 139.995 86.2022 140.41 86.79 140.606C87.6428 140.894 88.0001 140.675 89.2217 139.109C90.3051 137.726 91.7111 136.517 93.3707 135.538C94.3619 134.962 96.3672 134.156 96.5977 134.236C96.6899 134.271 96.8858 134.536 97.0241 134.835C97.5428 135.849 98.7529 137.392 99.8017 138.394C102.049 140.548 104.884 142 107.8 142.495C109.114 142.714 111.972 142.737 113.263 142.518C114.3 142.345 114.185 142.264 114.646 143.601C115.026 144.706 115.291 146.019 115.372 147.148C115.487 148.807 115.522 148.991 115.891 149.36C116.19 149.659 116.328 149.705 116.847 149.705C117.585 149.705 117.977 149.406 118.196 148.691C118.484 147.724 117.942 144.234 117.204 142.276C117.043 141.85 116.928 141.481 116.939 141.458C116.962 141.447 117.343 141.239 117.781 141.009C119.118 140.295 120.132 139.569 121.284 138.475C122.748 137.07 123.025 136.69 123.025 135.987C123.025 135.538 122.967 135.354 122.713 135.077C122.368 134.697 121.768 134.536 121.25 134.663C121.088 134.697 120.431 135.262 119.774 135.918C118.426 137.266 117.469 137.98 116.156 138.636C114.185 139.615 112.445 139.984 110.232 139.869C107.339 139.731 105.022 138.924 102.913 137.323C100.724 135.665 99.1217 133.304 98.2804 130.528C97.9922 129.549 97.9692 129.353 97.9692 127.245C97.9692 125.299 98.0038 124.884 98.2112 124.112C98.6837 122.442 99.479 120.83 100.608 119.252C100.92 118.825 101.012 118.584 101.012 118.204C101.012 117.466 100.585 117.006 99.744 116.821C99.6518 116.798 99.4213 116.833 99.2369 116.879Z" fill="white"/>
</svg>
