<svg width="70" height="58" viewBox="0 0 70 58" fill="none" xmlns="http://www.w3.org/2000/svg">
<g id="braindao-logo 5" clip-path="url(#clip0_26636_203400)">
<path id="Vector" d="M65.6716 35.2906C65.6716 36.6264 65.4231 37.9042 64.9682 39.0822C63.4117 43.1058 59.4571 45.964 54.8227 45.964C50.0797 45.964 46.0494 42.9699 44.5738 38.7976C35.8119 39.4173 30.8017 35.5641 28.7184 28.22C23.456 26.8119 19.5879 22.0779 19.5879 16.4537C19.5879 12.8162 21.2068 9.55002 23.7744 7.31731C25.9592 5.41425 28.8327 4.25977 31.9805 4.25977C35.5868 4.25977 38.8342 5.77474 41.0961 8.19639C42.6175 7.21754 44.4355 6.65015 46.3883 6.65015C47.7511 6.65015 49.0499 6.92759 50.2269 7.42783C53.6327 8.87416 56.0273 12.1871 56.0806 16.0569C56.0824 16.1021 56.0824 16.1456 56.0824 16.191L56.0806 16.3524V16.3542C56.5759 16.2472 57.0898 16.191 57.6186 16.191C59.98 16.191 62.078 17.3039 63.4003 19.0257H63.4024C64.3196 20.2201 64.863 21.708 64.863 23.3211C64.8663 24.9941 64.2673 26.6141 63.1721 27.8938C63.0898 27.9925 63.0044 28.0886 62.9159 28.182C64.631 30.0687 65.6715 32.5608 65.6715 35.2906" fill="white"/>
<g id="Group">
<path id="Vector_2" d="M46.2682 15.5917C44.3054 17.6907 43.1067 20.4924 43.1067 23.5698C43.1067 30.0783 48.469 35.3546 55.0836 35.3546C55.937 35.355 56.788 35.2661 57.6223 35.0893M31.457 11.7876C31.7567 16.044 35.3606 19.4053 39.7624 19.4053M53.0026 17.8247C53.8928 17.0969 54.9488 16.592 56.0805 16.3532M41.096 8.19531C39.7018 9.08867 38.5558 10.3267 37.7843 11.7876" stroke="#103849" stroke-width="1.47361" stroke-miterlimit="10" stroke-linecap="round" stroke-linejoin="round"/>
<path id="Vector_3" d="M65.6716 35.2885C65.6716 41.1842 60.8144 45.962 54.8227 45.962C50.0797 45.962 46.0494 42.9679 44.5738 38.7956C35.8119 39.4153 30.8017 35.5622 28.7184 28.2181C23.456 26.81 19.5879 22.0759 19.5879 16.4517C19.5879 9.71689 25.1357 4.25781 31.9805 4.25781C35.5868 4.25781 38.8342 5.77279 41.0961 8.19444C42.6175 7.21558 44.4355 6.6482 46.3883 6.6482C51.7427 6.6482 56.0824 10.9203 56.0824 16.1891L56.0806 16.3504V16.3522C56.5759 16.2452 57.0898 16.1891 57.6186 16.1891C61.6192 16.1891 64.863 19.3807 64.863 23.3192C64.863 25.1987 64.1244 26.9061 62.9159 28.18C64.631 30.0668 65.6715 32.5588 65.6715 35.2887L65.6716 35.2885Z" stroke="#103849" stroke-width="1.28933" stroke-miterlimit="10" stroke-linejoin="round"/>
<path id="Vector_4" d="M62.9169 28.1802C62.9169 28.1802 62.0758 27.3215 60.9255 26.4277M30.5666 47.5372C30.0918 46.5612 29.788 45.5133 29.668 44.4377" stroke="#103849" stroke-width="1.47361" stroke-miterlimit="10" stroke-linecap="round" stroke-linejoin="round"/>
</g>
<path id="Vector_5" d="M51.8378 40.1145C52.2213 41.1614 52.4169 42.2659 52.416 43.3788C52.416 49.1025 47.3102 53.7404 41.0106 53.7404C36.3395 53.7404 32.3257 51.1902 30.5648 47.5383C29.1136 48.5079 27.3727 49.0734 25.5031 49.0734C21.3111 49.0734 17.7744 46.2351 16.6656 42.3529C15.874 42.5471 15.0611 42.6451 14.2453 42.6447C8.76913 42.6447 4.32812 38.2765 4.32812 32.8863C4.32812 28.7468 6.94919 25.209 10.6478 23.7934C10.5023 23.2008 10.425 22.5864 10.425 21.9557C10.425 17.0675 15.041 13.1055 20.7362 13.1055C24.0058 13.1055 26.9232 14.4138 28.8112 16.4511C30.3254 15.6518 32.0716 15.1934 33.932 15.1934C39.7029 15.1934 44.3812 19.5959 44.3812 25.0259C44.3818 25.1539 44.3787 25.282 44.3719 25.4099C49.1336 26.269 52.7529 30.5719 52.7529 35.7518C52.7529 37.3087 52.427 38.7858 51.8377 40.1143" fill="white"/>
<g id="Group_2">
<path id="Vector_6" d="M48.1378 35.2899C49.8377 36.5258 51.1383 38.1971 51.8383 40.1146M16.6661 42.3528C16.4303 41.53 16.305 40.6618 16.305 39.7629C16.305 36.0943 18.403 32.921 21.4497 31.404M13.231 23.1808C12.3284 23.2715 11.4627 23.48 10.6484 23.7935M28.8139 16.4529L28.8119 16.4512M28.8119 16.4512C27.5171 17.1399 26.3936 18.079 25.515 19.1991" stroke="#103849" stroke-width="1.47361" stroke-miterlimit="10" stroke-linecap="round" stroke-linejoin="round"/>
<path id="Vector_7" d="M51.8415 40.1145C52.2249 41.1614 52.4206 42.2659 52.4196 43.3788C52.4196 49.1025 47.3139 53.7404 41.0142 53.7404C36.3432 53.7404 32.3293 51.1902 30.5685 47.5383C29.1173 48.5079 27.3763 49.0734 25.5068 49.0734C21.3147 49.0734 17.778 46.2351 16.6693 42.3529C15.8776 42.5471 15.0648 42.6451 14.2489 42.6447C8.7728 42.6447 4.33179 38.2765 4.33179 32.8863C4.33179 28.7468 6.95285 25.209 10.6515 23.7934C10.506 23.2008 10.4286 22.5864 10.4286 21.9557C10.4286 17.0675 15.0447 13.1055 20.7399 13.1055C24.0094 13.1055 26.9268 14.4138 28.8149 16.4511C30.3291 15.6518 32.0753 15.1934 33.9357 15.1934C39.7065 15.1934 44.3849 19.5959 44.3849 25.0259C44.3855 25.1539 44.3824 25.282 44.3756 25.4099C49.1373 26.269 52.7566 30.5719 52.7566 35.7518C52.7566 37.3087 52.4307 38.7858 51.8413 40.1143L51.8415 40.1145Z" stroke="#103849" stroke-width="1.28933" stroke-miterlimit="10" stroke-linejoin="round"/>
<g id="Group_3">
<path id="Vector_8" d="M35.4577 28.3316C37.2923 26.4322 39.8249 25.2559 42.6209 25.2559C43.2178 25.2559 43.8017 25.3085 44.3708 25.4115M43.7147 37.7575C42.2693 39.5359 40.0455 40.6752 37.5513 40.6752C33.1952 40.6752 29.6641 37.2003 29.6641 32.9143C29.6613 31.1247 30.2898 29.3895 31.4423 28.005" stroke="#103849" stroke-width="1.47361" stroke-miterlimit="10" stroke-linecap="round" stroke-linejoin="round"/>
<path id="Vector_9" d="M41.0412 44.5171C41.0412 42.9929 40.6505 41.5595 39.9616 40.307M24.5574 39.5603C25.8578 37.6645 27.8823 36.2924 30.2418 35.8267M10.4961 32.8939C11.4952 32.5044 12.5602 32.3046 13.6348 32.3049C15.3579 32.3026 17.0407 32.8173 18.4587 33.7805M26.7118 25.7511C26.1751 25.9067 25.607 25.99 25.0191 25.99C23.4586 25.992 21.9594 25.3926 20.8425 24.3203M52.5976 25.3727C53.4232 24.7666 54.4261 24.4398 55.4561 24.4414C55.7424 24.4413 56.0281 24.4662 56.3099 24.5161" stroke="#103849" stroke-width="1.47361" stroke-miterlimit="10" stroke-linecap="round" stroke-linejoin="round"/>
</g>
<path id="Vector_10" d="M63.7668 28.1856C64.894 26.8092 65.5089 25.1026 65.5089 23.3208C65.5089 19.0394 61.9697 15.5561 57.6198 15.5561C57.3157 15.5561 57.0123 15.5735 56.7114 15.6078C56.4037 10.2672 51.8914 6.01552 46.3891 6.01552C44.5545 6.01552 42.7724 6.48816 41.2024 7.38695C38.7559 4.98142 35.4399 3.62857 31.9814 3.625C26.1846 3.625 21.2616 7.36792 19.5716 12.5258C14.0771 13.0316 9.78225 17.0674 9.78225 21.956C9.78225 22.4425 9.82549 22.9298 9.91072 23.4105C6.11085 25.0863 3.68555 28.7493 3.68555 32.8868C3.68555 38.6172 8.42357 43.2793 14.2473 43.2793C14.9123 43.2794 15.5759 43.2183 16.2294 43.0968C17.6117 47.0182 21.3436 49.708 25.5053 49.708C27.1939 49.7092 28.853 49.2723 30.3154 48.4415C32.3744 52.0682 36.493 54.375 41.0126 54.375C46.5152 54.375 51.165 50.9904 52.6016 46.3838C53.3242 46.5239 54.0675 46.5977 54.8235 46.5977C61.1612 46.5977 66.3174 41.5248 66.3174 35.29C66.3174 32.6926 65.4155 30.191 63.7668 28.1854V28.1856Z" stroke="#103849" stroke-width="2.57879" stroke-miterlimit="10" stroke-linejoin="round"/>
</g>
<path id="Vector_11" d="M31.9798 0C28.5746 0 25.2991 0.99775 22.5076 2.88518C20.0972 4.51489 18.1865 6.71306 16.9244 9.29417C10.7808 10.7591 6.38847 15.6238 6.11079 21.3762C2.3083 23.974 0 28.2634 0 32.8867C0 40.5348 6.25778 46.7721 13.9994 46.902C16.4439 50.8541 20.8016 53.3329 25.5037 53.3329C26.7049 53.3329 27.8854 53.1763 29.0303 52.8658C31.9937 56.1085 36.3476 57.9999 41.011 57.9999C44.17 57.9999 47.2299 57.1185 49.8601 55.4515C51.9974 54.0971 53.7194 52.3093 54.9112 50.2223C63.2397 50.1753 69.9997 43.4947 69.9997 35.29C69.9997 32.755 69.3553 30.2953 68.1242 28.096C68.8277 26.5992 69.1918 24.9697 69.1913 23.3206C69.1913 20.3337 68.0213 17.5093 65.8968 15.3679C64.2213 13.6791 62.1006 12.5635 59.7927 12.1318C59.0126 9.63998 57.5188 7.39491 55.4775 5.68378C52.9409 3.55918 49.7189 2.39174 46.3878 2.39025C44.8352 2.39025 43.2769 2.64948 41.8086 3.14618C38.9565 1.10854 35.519 0 31.9798 0ZM31.9798 2.35613C35.4323 2.35613 38.8182 3.61773 41.4116 5.84513C42.9673 5.1214 44.6667 4.74623 46.3875 4.74665C52.1191 4.74665 56.9317 8.84803 57.8562 14.2904C62.8072 14.4153 66.7965 18.4183 66.7965 23.3207C66.7948 25.0385 66.2968 26.7203 65.3605 28.1701C66.8138 30.2538 67.6049 32.7469 67.6049 35.2902C67.6049 42.2249 61.8703 47.8667 54.8218 47.8667C54.3659 47.8667 53.9084 47.8423 53.453 47.7939C51.4858 52.4662 46.5286 55.6439 41.0108 55.6439C36.4604 55.6439 32.2905 53.5438 29.8439 50.0914C28.4737 50.6748 26.9967 50.9762 25.5037 50.9769C21.1537 50.9769 17.2193 48.4105 15.4077 44.4925C15.0217 44.5296 14.6333 44.548 14.2457 44.548C7.71108 44.548 2.39464 39.3169 2.39464 32.8867C2.39464 28.6178 4.76911 24.7068 8.51883 22.6758C8.50064 22.4363 8.49152 22.1962 8.49148 21.9559C8.49148 16.6819 12.7906 12.2508 18.6212 11.3635C20.7513 5.94287 26.0189 2.35613 31.98 2.35613" fill="#F0F0F0"/>
</g>
<defs>
<clipPath id="clip0_26636_203400">
<rect width="70" height="58" fill="white"/>
</clipPath>
</defs>
</svg>
