<svg width="187" height="58" viewBox="0 0 187 58" fill="none" xmlns="http://www.w3.org/2000/svg">
<g clip-path="url(#clip0_26636_203251)">
<path d="M66.1716 35.2916C66.1716 36.6274 65.9231 37.9052 65.4682 39.0832C63.9117 43.1068 59.9571 45.9649 55.3227 45.9649C50.5797 45.9649 46.5494 42.9709 45.0738 38.7985C36.3119 39.4183 31.3017 35.5651 29.2184 28.221C23.956 26.8129 20.0879 22.0789 20.0879 16.4546C20.0879 12.8172 21.7068 9.55099 24.2744 7.31829C26.4592 5.41522 29.3327 4.26074 32.4805 4.26074C36.0868 4.26074 39.3342 5.77572 41.5961 8.19737C43.1175 7.21851 44.9355 6.65113 46.8883 6.65113C48.2511 6.65113 49.5499 6.92857 50.7269 7.4288C54.1327 8.87513 56.5273 12.1881 56.5806 16.0578C56.5824 16.1031 56.5824 16.1466 56.5824 16.192L56.5806 16.3534V16.3551C57.0759 16.2482 57.5898 16.192 58.1186 16.192C60.48 16.192 62.578 17.3049 63.9003 19.0266H63.9024C64.8196 20.2211 65.363 21.709 65.363 23.3221C65.3663 24.9951 64.7673 26.6151 63.6721 27.8948C63.5898 27.9935 63.5044 28.0896 63.4159 28.183C65.131 30.0697 66.1715 32.5618 66.1715 35.2916" fill="#FF5CAA"/>
<path d="M46.7684 15.5927C44.8056 17.6916 43.6069 20.4934 43.6069 23.5708C43.6069 30.0792 48.9692 35.3556 55.5838 35.3556C56.4373 35.356 57.2883 35.2671 58.1226 35.0903M31.9573 11.7886C32.2569 16.0449 35.8609 19.4063 40.2627 19.4063M53.5028 17.8257C54.393 17.0979 55.4491 16.593 56.5807 16.3542M41.5962 8.19629C40.202 9.08964 39.0561 10.3277 38.2845 11.7886" stroke="#103849" stroke-width="1.47361" stroke-miterlimit="10" stroke-linecap="round" stroke-linejoin="round"/>
<path d="M66.1719 35.2895C66.1719 41.1852 61.3146 45.963 55.3229 45.963C50.5799 45.963 46.5496 42.9689 45.0741 38.7966C36.3121 39.4163 31.3019 35.5631 29.2187 28.2191C23.9562 26.8109 20.0881 22.0769 20.0881 16.4527C20.0881 9.71787 25.636 4.25879 32.4807 4.25879C36.0871 4.25879 39.3345 5.77377 41.5964 8.19542C43.1178 7.21656 44.9358 6.64918 46.8885 6.64918C52.2429 6.64918 56.5827 10.9213 56.5827 16.1901L56.5809 16.3514V16.3532C57.0761 16.2462 57.59 16.1901 58.1189 16.1901C62.1195 16.1901 65.3633 19.3816 65.3633 23.3202C65.3633 25.1997 64.6246 26.907 63.4161 28.181C65.1312 30.0678 66.1717 32.5598 66.1717 35.2896L66.1719 35.2895Z" stroke="#103849" stroke-width="1.28933" stroke-miterlimit="10" stroke-linejoin="round"/>
<path d="M63.4171 28.1802C63.4171 28.1802 62.5761 27.3215 61.4257 26.4277M31.0669 47.5372C30.592 46.5612 30.2882 45.5133 30.1682 44.4377" stroke="#103849" stroke-width="1.47361" stroke-miterlimit="10" stroke-linecap="round" stroke-linejoin="round"/>
<path d="M52.3378 40.1145C52.7213 41.1614 52.9169 42.2659 52.916 43.3788C52.916 49.1025 47.8102 53.7404 41.5106 53.7404C36.8395 53.7404 32.8257 51.1902 31.0648 47.5383C29.6136 48.5079 27.8727 49.0734 26.0031 49.0734C21.8111 49.0734 18.2744 46.2351 17.1656 42.3529C16.374 42.5471 15.5611 42.6451 14.7453 42.6447C9.26913 42.6447 4.82812 38.2765 4.82812 32.8863C4.82812 28.7468 7.44919 25.209 11.1478 23.7934C11.0023 23.2008 10.925 22.5864 10.925 21.9557C10.925 17.0675 15.541 13.1055 21.2362 13.1055C24.5058 13.1055 27.4232 14.4138 29.3112 16.4511C30.8254 15.6518 32.5716 15.1934 34.432 15.1934C40.2029 15.1934 44.8812 19.5959 44.8812 25.0259C44.8818 25.1539 44.8787 25.282 44.8719 25.4099C49.6336 26.269 53.2529 30.5719 53.2529 35.7518C53.2529 37.3087 52.927 38.7858 52.3377 40.1143" fill="#FF5CAA"/>
<path d="M48.6378 35.2909C50.3377 36.5268 51.6383 38.1981 52.3383 40.1155M17.1661 42.3538C16.9303 41.531 16.805 40.6628 16.805 39.7639C16.805 36.0953 18.903 32.922 21.9497 31.4049M13.731 23.1818C12.8284 23.2725 11.9627 23.481 11.1484 23.7944M29.3139 16.4539L29.3119 16.4521M29.3119 16.4521C28.0171 17.1409 26.8936 18.0799 26.015 19.2" stroke="#103849" stroke-width="1.47361" stroke-miterlimit="10" stroke-linecap="round" stroke-linejoin="round"/>
<path d="M52.3415 40.1145C52.7249 41.1614 52.9206 42.2659 52.9196 43.3788C52.9196 49.1025 47.8139 53.7404 41.5142 53.7404C36.8432 53.7404 32.8293 51.1902 31.0685 47.5383C29.6173 48.5079 27.8763 49.0734 26.0068 49.0734C21.8147 49.0734 18.278 46.2351 17.1693 42.3529C16.3776 42.5471 15.5648 42.6451 14.7489 42.6447C9.2728 42.6447 4.83179 38.2765 4.83179 32.8863C4.83179 28.7468 7.45285 25.209 11.1515 23.7934C11.006 23.2008 10.9286 22.5864 10.9286 21.9557C10.9286 17.0675 15.5447 13.1055 21.2399 13.1055C24.5094 13.1055 27.4268 14.4138 29.3149 16.4511C30.8291 15.6518 32.5753 15.1934 34.4357 15.1934C40.2065 15.1934 44.8849 19.5959 44.8849 25.0259C44.8855 25.1539 44.8824 25.282 44.8756 25.4099C49.6373 26.269 53.2566 30.5719 53.2566 35.7518C53.2566 37.3087 52.9307 38.7858 52.3413 40.1143L52.3415 40.1145Z" stroke="#103849" stroke-width="1.28933" stroke-miterlimit="10" stroke-linejoin="round"/>
<path d="M35.9577 28.3316C37.7923 26.4322 40.3249 25.2559 43.1209 25.2559C43.7178 25.2559 44.3017 25.3085 44.8708 25.4115M44.2147 37.7575C42.7693 39.5359 40.5455 40.6752 38.0513 40.6752C33.6952 40.6752 30.1641 37.2003 30.1641 32.9143C30.1613 31.1247 30.7898 29.3895 31.9423 28.005" stroke="#103849" stroke-width="1.47361" stroke-miterlimit="10" stroke-linecap="round" stroke-linejoin="round"/>
<path d="M41.5412 44.5171C41.5412 42.9929 41.1505 41.5595 40.4616 40.307M25.0574 39.5603C26.3578 37.6645 28.3823 36.2924 30.7418 35.8267M10.9961 32.8939C11.9952 32.5044 13.0602 32.3046 14.1348 32.3049C15.8579 32.3026 17.5407 32.8173 18.9587 33.7805M27.2118 25.7511C26.6751 25.9067 26.107 25.99 25.5191 25.99C23.9586 25.992 22.4594 25.3926 21.3425 24.3203M53.0976 25.3727C53.9232 24.7666 54.9261 24.4398 55.9561 24.4414C56.2424 24.4413 56.5281 24.4662 56.8099 24.5161" stroke="#103849" stroke-width="1.47361" stroke-miterlimit="10" stroke-linecap="round" stroke-linejoin="round"/>
<path d="M64.2668 28.1856C65.394 26.8092 66.0089 25.1026 66.0089 23.3208C66.0089 19.0394 62.4697 15.5561 58.1198 15.5561C57.8157 15.5561 57.5123 15.5735 57.2114 15.6078C56.9037 10.2672 52.3914 6.01552 46.8891 6.01552C45.0545 6.01552 43.2724 6.48816 41.7024 7.38695C39.2559 4.98142 35.9399 3.62857 32.4814 3.625C26.6846 3.625 21.7616 7.36792 20.0716 12.5258C14.5771 13.0316 10.2822 17.0674 10.2822 21.956C10.2822 22.4425 10.3255 22.9298 10.4107 23.4105C6.61085 25.0863 4.18555 28.7493 4.18555 32.8868C4.18555 38.6172 8.92357 43.2793 14.7473 43.2793C15.4123 43.2794 16.0759 43.2183 16.7294 43.0968C18.1117 47.0182 21.8436 49.708 26.0053 49.708C27.6939 49.7092 29.353 49.2723 30.8154 48.4415C32.8744 52.0682 36.993 54.375 41.5126 54.375C47.0152 54.375 51.665 50.9904 53.1016 46.3838C53.8242 46.5239 54.5675 46.5977 55.3235 46.5977C61.6612 46.5977 66.8174 41.5248 66.8174 35.29C66.8174 32.6926 65.9155 30.191 64.2668 28.1854V28.1856Z" stroke="#103849" stroke-width="2.57879" stroke-miterlimit="10" stroke-linejoin="round"/>
<path d="M32.4798 0C29.0746 0 25.7991 0.99775 23.0076 2.88518C20.5972 4.51489 18.6865 6.71306 17.4244 9.29417C11.2808 10.7591 6.88847 15.6238 6.61079 21.3762C2.8083 23.974 0.5 28.2634 0.5 32.8867C0.5 40.5348 6.75778 46.7721 14.4994 46.902C16.9439 50.8541 21.3016 53.3329 26.0037 53.3329C27.2049 53.3329 28.3854 53.1763 29.5303 52.8658C32.4937 56.1085 36.8476 57.9999 41.511 57.9999C44.67 57.9999 47.7299 57.1185 50.3601 55.4515C52.4974 54.0971 54.2194 52.3093 55.4112 50.2223C63.7397 50.1753 70.4997 43.4947 70.4997 35.29C70.4997 32.755 69.8553 30.2953 68.6242 28.096C69.3277 26.5992 69.6918 24.9697 69.6913 23.3206C69.6913 20.3337 68.5213 17.5093 66.3968 15.3679C64.7213 13.6791 62.6006 12.5635 60.2927 12.1318C59.5126 9.63998 58.0188 7.39491 55.9775 5.68378C53.4409 3.55918 50.2189 2.39174 46.8878 2.39025C45.3352 2.39025 43.7769 2.64948 42.3086 3.14618C39.4565 1.10854 36.019 0 32.4798 0ZM32.4798 2.35613C35.9323 2.35613 39.3182 3.61773 41.9116 5.84513C43.4673 5.1214 45.1667 4.74623 46.8875 4.74665C52.6191 4.74665 57.4317 8.84803 58.3562 14.2904C63.3072 14.4153 67.2965 18.4183 67.2965 23.3207C67.2948 25.0385 66.7968 26.7203 65.8605 28.1701C67.3138 30.2538 68.1049 32.7469 68.1049 35.2902C68.1049 42.2249 62.3703 47.8667 55.3218 47.8667C54.8659 47.8667 54.4084 47.8423 53.953 47.7939C51.9858 52.4662 47.0286 55.6439 41.5108 55.6439C36.9604 55.6439 32.7905 53.5438 30.3439 50.0914C28.9737 50.6748 27.4967 50.9762 26.0037 50.9769C21.6537 50.9769 17.7193 48.4105 15.9077 44.4925C15.5217 44.5296 15.1333 44.548 14.7457 44.548C8.21108 44.548 2.89464 39.3169 2.89464 32.8867C2.89464 28.6178 5.26911 24.7068 9.01883 22.6758C9.00064 22.4363 8.99152 22.1962 8.99148 21.9559C8.99148 16.6819 13.2906 12.2508 19.1212 11.3635C21.2513 5.94287 26.5189 2.35613 32.48 2.35613" fill="#F0F0F0"/>
</g>
<path d="M80.99 40V19H85.85V40H80.99ZM101.004 40.36C99.3638 40.36 97.8338 40.09 96.4138 39.55C95.0138 39.01 93.7938 38.25 92.7537 37.27C91.7338 36.29 90.9338 35.14 90.3538 33.82C89.7938 32.5 89.5138 31.06 89.5138 29.5C89.5138 27.94 89.7938 26.5 90.3538 25.18C90.9338 23.86 91.7438 22.71 92.7838 21.73C93.8238 20.75 95.0438 19.99 96.4438 19.45C97.8438 18.91 99.3638 18.64 101.004 18.64C102.664 18.64 104.184 18.91 105.564 19.45C106.964 19.99 108.174 20.75 109.194 21.73C110.234 22.69 111.044 23.83 111.624 25.15C112.204 26.47 112.494 27.92 112.494 29.5C112.494 31.06 112.204 32.51 111.624 33.85C111.044 35.17 110.234 36.32 109.194 37.3C108.174 38.26 106.964 39.01 105.564 39.55C104.184 40.09 102.664 40.36 101.004 40.36ZM107.874 44.83C107.054 44.83 106.274 44.74 105.534 44.56C104.814 44.38 104.094 44.09 103.374 43.69C102.674 43.29 101.934 42.75 101.154 42.07C100.394 41.39 99.5638 40.55 98.6638 39.55L103.764 38.26C104.304 39 104.804 39.59 105.264 40.03C105.724 40.47 106.164 40.78 106.584 40.96C107.024 41.14 107.484 41.23 107.964 41.23C109.244 41.23 110.384 40.71 111.384 39.67L113.544 42.25C112.124 43.97 110.234 44.83 107.874 44.83ZM101.004 36.22C101.944 36.22 102.804 36.06 103.584 35.74C104.384 35.42 105.084 34.96 105.684 34.36C106.284 33.76 106.744 33.05 107.064 32.23C107.404 31.39 107.574 30.48 107.574 29.5C107.574 28.5 107.404 27.59 107.064 26.77C106.744 25.95 106.284 25.24 105.684 24.64C105.084 24.04 104.384 23.58 103.584 23.26C102.804 22.94 101.944 22.78 101.004 22.78C100.064 22.78 99.1938 22.94 98.3938 23.26C97.5938 23.58 96.8938 24.04 96.2938 24.64C95.7138 25.24 95.2538 25.95 94.9138 26.77C94.5938 27.59 94.4338 28.5 94.4338 29.5C94.4338 30.48 94.5938 31.39 94.9138 32.23C95.2538 33.05 95.7138 33.76 96.2938 34.36C96.8938 34.96 97.5938 35.42 98.3938 35.74C99.1938 36.06 100.064 36.22 101.004 36.22ZM117 40.24C116.2 40.24 115.51 39.97 114.93 39.43C114.37 38.87 114.09 38.16 114.09 37.3C114.09 36.44 114.37 35.75 114.93 35.23C115.51 34.69 116.2 34.42 117 34.42C117.82 34.42 118.51 34.69 119.07 35.23C119.63 35.75 119.91 36.44 119.91 37.3C119.91 38.16 119.63 38.87 119.07 39.43C118.51 39.97 117.82 40.24 117 40.24ZM125.805 40L119.985 23.86H124.395L129.225 37.75H127.125L132.165 23.86H136.125L141.015 37.75H138.915L143.895 23.86H148.035L142.185 40H137.655L133.365 28.09H134.745L130.305 40H125.805ZM150.211 40V23.86H154.891V40H150.211ZM152.551 21.61C151.691 21.61 150.991 21.36 150.451 20.86C149.911 20.36 149.641 19.74 149.641 19C149.641 18.26 149.911 17.64 150.451 17.14C150.991 16.64 151.691 16.39 152.551 16.39C153.411 16.39 154.111 16.63 154.651 17.11C155.191 17.57 155.461 18.17 155.461 18.91C155.461 19.69 155.191 20.34 154.651 20.86C154.131 21.36 153.431 21.61 152.551 21.61ZM163.104 36.7L163.224 31L170.754 23.86H176.334L169.104 31.21L166.674 33.19L163.104 36.7ZM159.234 40V17.74H163.914V40H159.234ZM171.264 40L165.804 33.22L168.744 29.59L176.934 40H171.264ZM179.039 40V23.86H183.719V40H179.039ZM181.379 21.61C180.519 21.61 179.819 21.36 179.279 20.86C178.739 20.36 178.469 19.74 178.469 19C178.469 18.26 178.739 17.64 179.279 17.14C179.819 16.64 180.519 16.39 181.379 16.39C182.239 16.39 182.939 16.63 183.479 17.11C184.019 17.57 184.289 18.17 184.289 18.91C184.289 19.69 184.019 20.34 183.479 20.86C182.959 21.36 182.259 21.61 181.379 21.61Z" fill="white" fill-opacity="0.92"/>
<defs>
<clipPath id="clip0_26636_203251">
<rect width="70" height="58" fill="white" transform="translate(0.5)"/>
</clipPath>
</defs>
</svg>
