<svg width="234" height="79" viewBox="0 0 234 79" fill="none" xmlns="http://www.w3.org/2000/svg">
<path d="M34.3661 0.0319441C32.2541 0.323876 30.5949 1.85936 30.1535 3.94459C30.0355 4.48675 30.0355 5.38529 30.1497 5.92366C30.1953 6.13218 30.2182 6.31417 30.203 6.32554C30.1877 6.34071 25.3092 9.15387 19.3575 12.5736L8.53871 18.7952L8.27613 18.5639C7.61399 17.9725 6.87194 17.5934 5.97386 17.3886C5.43349 17.2673 4.50497 17.2673 3.94937 17.3848C1.97436 17.8095 0.501665 19.2767 0.09068 21.233C-0.0158717 21.7411 -0.027288 22.6017 0.0716529 23.0946C0.326616 24.3798 0.981148 25.4376 1.98958 26.1807C2.37393 26.465 3.02846 26.7987 3.46228 26.9276L3.78574 27.0262V39.5072V51.9882L3.44706 52.0944C2.51473 52.3863 1.65471 52.9816 1.06487 53.7322C-0.472522 55.6961 -0.331721 58.4979 1.39974 60.2419C1.81453 60.6628 2.15322 60.9092 2.68978 61.1784C3.43945 61.5613 4.08637 61.713 4.96162 61.713C5.82164 61.713 6.47237 61.5575 7.21823 61.1784C7.6216 60.9699 7.92604 60.7614 8.30277 60.4315L8.53871 60.2268L8.70234 60.3178C8.85075 60.3974 30.1991 72.6737 30.2258 72.6927C30.2334 72.6964 30.1991 72.8746 30.1535 73.0907C30.0317 73.6519 30.0355 74.5352 30.1535 75.0963C30.5759 77.0754 32.1551 78.5995 34.1416 78.9445C34.5716 79.0204 35.4544 79.0166 35.8882 78.9445C36.5352 78.8308 37.2125 78.554 37.8062 78.1559C38.1753 77.9095 38.8451 77.2422 39.0962 76.8669C39.4958 76.2717 39.7584 75.6233 39.8801 74.9295C39.9867 74.3115 39.941 73.3561 39.7774 72.7533C39.7698 72.723 43.9025 70.3231 50.5734 66.4863C56.5174 63.0665 61.4036 60.2571 61.4264 60.2457C61.453 60.2344 61.5824 60.3254 61.7118 60.4429C62.393 61.0571 63.2987 61.5007 64.2044 61.6561C64.6306 61.7319 65.483 61.7281 65.913 61.6561C67.6939 61.3452 69.1781 60.0789 69.7489 58.3766C69.9582 57.751 70.0114 57.3643 69.9886 56.6326C69.962 55.7833 69.8326 55.2677 69.4597 54.536C68.8584 53.3645 67.8462 52.5114 66.5675 52.0982L66.2327 51.992V39.5072C66.2327 29.5512 66.2441 27.0186 66.2821 27.0034C66.305 26.9958 66.4496 26.9541 66.5942 26.9086C67.7891 26.5485 68.9155 25.5779 69.5015 24.4139C70.0419 23.341 70.1522 21.9344 69.7869 20.7402C69.4825 19.7279 68.729 18.7232 67.8271 18.1279C67.0318 17.6009 65.9853 17.2787 65.053 17.2787C63.8771 17.2787 62.5642 17.7905 61.7232 18.5715L61.4759 18.8028L50.619 12.5585L39.7584 6.31038L39.8345 6.02223C39.941 5.6014 39.9677 4.56637 39.8839 4.08487C39.5795 2.34844 38.3389 0.873618 36.6722 0.27838C36.0367 0.0509008 35.013 -0.0590476 34.3661 0.0319441ZM35.7855 2.03755C36.7901 2.3219 37.574 3.07638 37.8785 4.06212C38.3846 5.69997 37.3762 7.44019 35.6866 7.84207C35.1842 7.96339 34.5259 7.93306 34.0693 7.77383C33.2739 7.49706 32.6689 6.97007 32.2921 6.21938C31.4968 4.63461 32.3568 2.63658 34.0769 2.08305C34.2139 2.03755 34.4117 1.98448 34.5145 1.96552C34.8037 1.90865 35.4582 1.94656 35.7855 2.03755ZM50.4364 15.1555C59.8357 20.5582 60.2962 20.8274 60.281 20.9183C60.2696 20.9714 60.2315 21.142 60.1973 21.2975C60.1478 21.506 60.1326 21.7562 60.1326 22.2263C60.1288 22.8519 60.1668 23.1249 60.3419 23.7543C60.3495 23.7846 58.1043 25.0964 54.4587 27.193C51.2165 29.0583 48.5603 30.5824 48.5527 30.5748C48.5451 30.5711 48.507 30.4118 48.4652 30.226C48.1988 29.0052 47.4986 27.7958 46.532 26.8669C44.675 25.085 41.9579 24.4898 39.5186 25.3314C39.256 25.4224 38.9897 25.5172 38.925 25.5438C38.8108 25.593 38.7994 25.5893 38.5292 25.3731C37.8861 24.8613 36.9804 24.3419 36.2726 24.0803L35.9796 23.9704V16.873V9.77564L36.1432 9.73394C36.9766 9.52542 37.7453 9.11595 38.3199 8.58517L38.5825 8.34252L39.5795 8.91501C40.1275 9.22969 45.0136 12.0391 50.4364 15.1555ZM31.7175 8.61929C32.353 9.17282 33.1369 9.5747 33.9361 9.74911L34.0388 9.77185V16.6569V23.5457L33.5555 23.5192C31.6909 23.4168 29.5066 24.1106 27.9882 25.2897C27.3146 25.8129 26.721 26.4461 26.2453 27.1475C25.9257 27.6252 25.8458 27.7617 25.5489 28.3531C25.2825 28.8877 25.2331 28.9559 25.1075 28.9559C24.9705 28.9559 24.3236 29.1266 23.8745 29.2782C23.1097 29.5436 22.223 30.0213 21.694 30.4649C21.557 30.5786 21.4885 30.6128 21.4467 30.5862C21.1879 30.4459 9.69936 23.8301 9.68033 23.8073C9.66511 23.7922 9.69556 23.6216 9.74503 23.4282C9.91627 22.7571 9.92769 21.8472 9.77547 21.142C9.74122 20.9752 9.71839 20.8349 9.726 20.8274C9.77166 20.7819 31.3636 8.37286 31.3941 8.37286C31.4169 8.37286 31.5615 8.4828 31.7175 8.61929ZM5.38402 19.254C6.04616 19.3601 6.57131 19.6331 7.06221 20.1184C8.25711 21.3088 8.2495 23.1628 7.03937 24.3495C6.69308 24.6907 6.33157 24.9144 5.85969 25.0774C5.57809 25.1722 5.5134 25.1798 4.94639 25.1836C4.36036 25.1836 4.32611 25.1798 4.00646 25.0661C2.99421 24.7059 2.2788 23.9324 2.01242 22.9088C1.92109 22.5524 1.92109 21.8662 2.01242 21.525C2.17605 20.9335 2.43862 20.4861 2.88005 20.0615C3.55361 19.4132 4.49355 19.1099 5.38402 19.254ZM65.5667 19.2691C66.6589 19.4587 67.5417 20.2207 67.9185 21.2899C68.0174 21.5742 68.0364 21.688 68.0516 22.0937C68.0631 22.4425 68.0516 22.6358 68.006 22.8292C67.8157 23.6329 67.3591 24.3002 66.7045 24.721C66.168 25.0661 65.6771 25.2101 65.053 25.2101C64.2082 25.2063 63.4661 24.8841 62.8801 24.2661C62.4653 23.8263 62.2141 23.341 62.1 22.7458C61.8298 21.3468 62.686 19.8795 64.0483 19.398C64.5621 19.216 65.034 19.1781 65.5667 19.2691ZM34.5792 25.1987C35.6485 25.43 36.6988 25.9418 37.6273 26.6774L37.9241 26.9124L37.4485 27.375C36.714 28.0953 36.2079 28.8422 36.2079 29.2024C36.2079 29.354 36.2269 29.3995 36.3373 29.5095C36.4438 29.6156 36.4971 29.6384 36.6227 29.6384C36.8662 29.6384 36.9804 29.5588 37.1593 29.2517C37.5284 28.6299 38.1563 27.9475 38.807 27.466C40.0362 26.5485 41.8171 26.2717 43.3545 26.7608C44.5912 27.1551 45.7215 28.0688 46.3836 29.2024C46.7299 29.8014 47.0077 30.681 47.0267 31.2459L47.0343 31.5416L46.6918 31.6819C46.277 31.8487 45.9041 32.0497 45.6149 32.262C45.2686 32.516 45.2267 32.5767 45.2267 32.8041C45.2267 33.043 45.3143 33.1757 45.516 33.2401C45.7062 33.3046 45.8546 33.2629 46.0944 33.0847C46.4178 32.8421 46.8783 32.6146 47.3958 32.4402C47.7878 32.3113 47.9362 32.2809 48.2559 32.262C49.1349 32.2203 50.052 32.5008 50.7332 33.024C51.0186 33.2439 51.4486 33.6951 51.6313 33.9681C52.3923 35.1168 52.4875 36.5917 51.8824 37.8011C51.715 38.1347 51.5932 38.3205 51.5475 38.3205C51.5323 38.3205 51.3268 38.1575 51.0909 37.9603C50.581 37.5319 50.5696 37.5243 50.3564 37.5243C50.0901 37.5243 49.9074 37.7139 49.9074 37.9869C49.9112 38.1689 49.9683 38.2485 50.3108 38.5366C51.1822 39.2721 51.6655 39.784 51.9623 40.2958C52.2858 40.8455 52.5902 41.7138 52.7044 42.4303C52.8604 43.3744 52.712 44.5838 52.32 45.5468C51.6807 47.1278 50.2803 48.4358 48.6478 48.9703C47.8487 49.2319 46.8593 49.3381 46.0754 49.2395L45.691 49.194L45.6986 48.2045C45.7024 47.2263 45.7024 47.2036 45.5921 46.7752C45.5312 46.5363 45.4817 46.2861 45.4817 46.2254C45.4779 46.161 45.5426 45.907 45.6225 45.6567C45.7671 45.1942 45.8889 44.5648 45.9307 44.0454L45.9536 43.7611H46.8935C48.195 43.7573 48.7087 43.6587 48.8343 43.3819C48.9523 43.1241 48.8191 42.8019 48.5679 42.7412C48.4652 42.7147 48.3015 42.726 47.9781 42.7791C47.5024 42.8549 46.4787 42.8777 46.1286 42.8208C45.9117 42.7829 45.9155 42.7905 45.8014 42.1877C45.3523 39.8333 43.6627 37.8883 41.4365 37.1604C41.2082 37.0883 41.0103 37.0087 40.9951 36.9822C40.9799 36.9556 40.9647 36.8495 40.9647 36.7471C40.9647 36.3187 40.7706 35.4277 40.5651 34.9083L40.47 34.6619L40.5994 34.2448C40.8467 33.4714 41.2805 32.6942 41.8513 31.9966C42.1063 31.6857 42.1444 31.6212 42.1444 31.4923C42.1444 31.2838 42.0492 31.1208 41.897 31.0563C41.6002 30.935 41.4442 31.0033 41.1055 31.4127C40.7173 31.8753 40.371 32.4136 40.0932 32.9823C39.9562 33.2705 39.8307 33.5055 39.8154 33.5055C39.804 33.5055 39.7051 33.3956 39.5985 33.2629C39.2827 32.8686 38.5939 32.2392 38.1639 31.9511C37.0603 31.2156 35.6599 30.7985 34.3432 30.8137C34.1035 30.8175 33.8866 30.8175 33.86 30.8175C33.7496 30.8099 33.4756 29.9417 33.3881 29.3199C33.3272 28.8991 33.2359 28.7702 32.9695 28.7398C32.7412 28.7133 32.5661 28.8005 32.49 28.9863C32.3911 29.2289 32.4862 29.9152 32.7221 30.5976C32.8097 30.8478 32.8363 30.9767 32.8059 30.9843C32.3797 31.136 31.4359 31.4582 31.4283 31.4582C31.4207 31.4582 31.2989 31.3559 31.1581 31.227C30.1459 30.3246 28.7379 29.7445 27.2081 29.6005C26.9569 29.5739 26.7438 29.5474 26.7362 29.5398C26.6982 29.5057 27.2157 28.5427 27.4897 28.137C28.6237 26.4537 30.1725 25.4945 32.3226 25.1457C32.8173 25.0661 34.0959 25.0964 34.5792 25.1987ZM20.1567 32.099C20.1757 32.1141 20.0767 32.3378 19.9435 32.5956C19.6734 33.1226 19.5326 33.5017 19.4222 34.0022C19.3347 34.4079 19.2624 35.1965 19.2928 35.4581C19.3042 35.5604 19.3004 35.6666 19.2852 35.6893C19.27 35.7083 19.0835 35.8372 18.8742 35.9737C16.1724 37.7291 15.0308 40.9555 16.0278 44.0265C16.4882 45.4482 17.3292 46.6197 18.4861 47.4576C18.7791 47.6661 18.8133 47.704 18.7525 47.7382C18.7144 47.7571 16.435 49.0689 13.6874 50.6499L8.68712 53.5237L8.38649 53.2432C7.82329 52.7124 7.14973 52.3143 6.45334 52.0982L6.10705 51.992L6.11466 39.5072L6.12607 27.0186L6.51423 26.8897C7.24106 26.647 7.88798 26.2565 8.3903 25.7599L8.66809 25.4831L14.3991 28.7778C17.5499 30.59 20.1414 32.0838 20.1567 32.099ZM61.6357 25.7902C62.1761 26.2982 62.7964 26.666 63.5232 26.9086L63.8543 27.0186L63.8657 39.5072L63.8733 51.9996L63.5613 52.0944C62.8687 52.3105 62.1723 52.7238 61.6433 53.228L61.3275 53.5313L56.8637 50.9646C54.4092 49.5504 52.3962 48.3903 52.3885 48.3865C52.3809 48.3789 52.4799 48.25 52.6093 48.0945C53.1687 47.4349 53.671 46.5401 53.9412 45.7136C54.2151 44.8871 54.3217 44.1971 54.3217 43.2568C54.3217 41.8389 53.964 40.5574 53.2219 39.3328L53.0355 39.0219L53.298 38.4911C53.7395 37.5964 53.8879 36.9139 53.8498 35.9509C53.7813 34.1235 52.9023 32.535 51.441 31.6023C51.2697 31.4923 51.1328 31.39 51.1366 31.3748C51.1442 31.3445 61.2438 25.5172 61.3008 25.5096C61.3161 25.5058 61.4683 25.6347 61.6357 25.7902ZM27.8017 30.5066C28.7265 30.6962 29.693 31.136 30.397 31.6895C30.5036 31.7767 30.5911 31.8563 30.5873 31.8639C30.5835 31.8715 30.4275 31.9928 30.2448 32.1293C29.8795 32.4023 29.2135 33.0506 29.0385 33.3084C28.8292 33.6117 28.9129 33.9529 29.2212 34.0704C29.4647 34.1614 29.6169 34.0856 29.9328 33.7141C30.2524 33.3349 30.6406 32.9899 31.0135 32.7549C31.1619 32.6639 31.4017 32.5084 31.5463 32.4061C32.0448 32.0686 32.4443 31.9132 33.2435 31.7539C33.8638 31.6288 34.8988 31.6288 35.5115 31.7539C37.3495 32.1217 38.8945 33.3008 39.648 34.9121C39.9144 35.4808 40.1275 36.2618 40.1275 36.6713V36.7926L39.4159 36.8154C38.6091 36.8419 38.2057 36.9101 37.5588 37.1225C36.7407 37.3954 35.9796 37.839 35.306 38.4305C34.7695 38.9006 34.6743 39.1925 34.9749 39.4541C35.0777 39.5451 35.1424 39.5717 35.268 39.5717C35.462 39.5717 35.5229 39.5299 35.9263 39.1584C36.8739 38.2674 38.1677 37.7518 39.4387 37.7518C40.645 37.7518 41.3566 37.9186 42.1634 38.3926C43.6741 39.2759 44.6179 40.6181 45.0022 42.4151C45.143 43.071 45.1202 44.4663 44.9604 44.8947C44.9413 44.9553 44.9147 44.9326 44.8081 44.762C44.4048 44.1061 43.5638 43.2189 43.0577 42.9118C42.7342 42.7185 42.3346 42.908 42.3346 43.2606C42.3346 43.4426 42.4107 43.5905 42.5706 43.7118C43.3545 44.3108 43.9063 45.0008 44.3705 45.96C44.7853 46.8055 44.9033 47.3097 44.8995 48.1969C44.8995 49.0841 44.7625 49.6414 44.3363 50.5096C44.028 51.139 43.7084 51.5864 43.2289 52.0641C42.5934 52.6934 41.7752 53.209 40.8695 53.5427C39.1952 54.1607 37.1897 54.0507 35.5838 53.2507C34.3889 52.6555 33.5441 51.8669 32.9124 50.7485C32.5928 50.1874 32.471 50.1305 32.0942 50.339C30.9602 50.9684 30.2296 51.1655 29.1717 51.1238C28.422 51.0973 27.8588 50.9532 27.2081 50.6309C26.0056 50.0357 25.0809 48.9779 24.6585 47.7116C24.4682 47.1391 24.3997 46.6993 24.3997 46.0359C24.3959 44.5952 24.9172 43.3137 25.9142 42.3166C26.2605 41.9678 26.5383 41.763 27.2347 41.3346C27.6153 41.0996 27.4402 40.5043 26.9912 40.5081C26.7058 40.5081 26.0132 40.9289 25.4462 41.4446C25.2749 41.6038 25.1189 41.7327 25.0999 41.7327C25.0847 41.7327 24.9248 41.6645 24.7498 41.5848C23.4065 40.9555 22.0061 40.8683 20.5791 41.3195C20.1452 41.4597 20.0349 41.5659 20.0349 41.854C20.0349 42.0208 20.0501 42.0588 20.1681 42.1763C20.2898 42.2976 20.3165 42.309 20.4801 42.2938C20.5829 42.2824 20.815 42.2294 21.0053 42.1725C22.0289 41.8654 23.0297 41.9033 24.0039 42.2862C24.5329 42.4948 24.5215 42.4796 24.3578 42.7526C23.8974 43.5033 23.612 44.3487 23.494 45.2966C23.4483 45.6833 23.4674 46.597 23.5321 46.9799C23.5549 47.105 23.5663 47.2112 23.5587 47.2188C23.5549 47.2263 23.3608 47.2491 23.1363 47.268C21.6065 47.4159 19.9968 46.8131 18.8552 45.6757C17.3749 44.2009 16.884 42.1573 17.5309 40.1404C17.7897 39.3328 18.1969 38.6693 18.8133 38.0513C19.2091 37.6608 19.7913 37.2324 20.2366 37.0087C20.4877 36.8798 21.4619 36.5879 21.8234 36.5348C22.2458 36.4704 22.398 36.4173 22.4818 36.3035C22.5845 36.1633 22.5845 35.8903 22.4818 35.75C22.3295 35.5453 22.2649 35.5377 21.6027 35.6514C21.2754 35.7045 20.9786 35.7538 20.9482 35.7576C20.8987 35.7614 20.8911 35.6742 20.8949 35.1737C20.8987 34.6733 20.9177 34.5292 20.9976 34.2145C21.2069 33.4221 21.6674 32.6752 22.3524 32.0155C23.2543 31.1473 24.2855 30.6658 25.705 30.4497C26.1768 30.3777 27.3299 30.408 27.8017 30.5066ZM21.4695 48.7504C21.8082 48.8149 22.0898 48.8339 22.6226 48.8376C23.0107 48.8414 23.3456 48.8566 23.3722 48.8718C23.3951 48.8869 23.4864 49.031 23.5777 49.194C24.7041 51.2489 26.5079 52.4394 28.8825 52.6934C29.6321 52.773 30.4084 52.682 31.3408 52.4015C31.649 52.3105 31.9154 52.2347 31.9344 52.2347C31.9573 52.2347 32.0448 52.3257 32.1285 52.4394C32.5851 53.0384 33.1407 53.573 33.723 53.9749L34.035 54.1872L34.0388 61.713V69.2425L33.7648 69.3108C32.9847 69.5079 32.1932 69.9439 31.5995 70.4975C31.4968 70.5923 31.4017 70.6605 31.3864 70.6491C30.6025 70.2093 9.80211 58.2363 9.76405 58.206C9.72219 58.1643 9.72219 58.115 9.77547 57.8951C9.9391 57.1672 9.92769 56.3179 9.74122 55.5824C9.68794 55.3777 9.6575 55.2071 9.67272 55.1995C9.69175 55.1919 12.2452 53.7209 15.3542 51.9314C18.4632 50.1419 21.0091 48.6746 21.0129 48.6746C21.0129 48.6708 21.2184 48.7087 21.4695 48.7504ZM55.5508 52.447C58.1499 53.9408 60.2962 55.1805 60.319 55.1995C60.3533 55.2222 60.3457 55.2905 60.2924 55.4573C60.0983 56.0867 60.0603 57.0724 60.2049 57.751C60.2391 57.9179 60.2696 58.0847 60.2734 58.1226C60.2772 58.1795 57.8836 59.5709 49.4393 64.4314L38.6015 70.6643L38.3884 70.4823C37.6844 69.8719 37.0717 69.5345 36.2954 69.3297L35.9796 69.2463V62.1869V55.1275L36.4667 55.2526C37.6311 55.5483 39.081 55.5824 40.2987 55.3398C41.1892 55.1616 42.3689 54.6725 43.1528 54.1493C44.2944 53.391 45.105 52.4811 45.7253 51.2755L45.9536 50.8319H46.6462C47.6013 50.8319 48.1227 50.7636 48.9561 50.521C49.4127 50.3921 50.1624 50.0736 50.4973 49.8727C50.6228 49.7969 50.7484 49.7362 50.775 49.7324C50.8055 49.7324 52.9517 50.9532 55.5508 52.447ZM5.69987 53.8991C6.74636 54.1682 7.59877 55.0403 7.88037 56.1208C7.97551 56.4961 7.9679 57.1255 7.86134 57.5236C7.49602 58.8884 6.33537 59.787 4.94639 59.787C3.546 59.7832 2.36632 58.8581 2.01242 57.4857C1.92489 57.1369 1.92489 56.4847 2.01242 56.1208C2.11897 55.6734 2.40818 55.135 2.72022 54.8014C2.86864 54.6422 3.07032 54.4526 3.16926 54.3806C3.52697 54.1227 4.02929 53.9104 4.50116 53.827C4.76754 53.7777 5.36499 53.8157 5.69987 53.8991ZM65.6542 53.8649C66.7882 54.0962 67.713 54.9872 67.9832 56.1018C68.4284 57.9709 67.0128 59.7756 65.091 59.787C64.5659 59.7908 64.2196 59.7074 63.7287 59.4685C62.6556 58.9453 61.9744 57.7852 62.0581 56.6174C62.1456 55.3891 62.96 54.3351 64.1092 53.9635C64.6915 53.7739 65.0986 53.7474 65.6542 53.8649ZM35.5039 71.1344C36.9576 71.3884 38.0003 72.6244 38.0003 74.0916C38.0003 75.4603 37.0755 76.647 35.7322 76.9958C35.3327 77.102 34.701 77.1058 34.3242 77.011C33.2549 76.7418 32.3911 75.9115 32.1019 74.8689C31.6224 73.159 32.8021 71.3846 34.5906 71.1155C34.9026 71.07 35.15 71.0738 35.5039 71.1344Z" fill="black"/>
<path d="M46.5975 36.353C46.0723 36.4326 45.376 36.7435 45.1134 37.0127C44.965 37.1681 44.9307 37.3539 45.0182 37.5397C45.159 37.8354 45.4559 37.8695 45.844 37.6345C45.9886 37.5473 46.2208 37.4335 46.3616 37.3767C46.5937 37.2895 46.6698 37.2781 47.2064 37.2781C47.5831 37.2743 47.8266 37.2553 47.8799 37.2288C48.0207 37.153 48.0816 37.0279 48.0816 36.8193C48.0816 36.5805 47.9865 36.444 47.7848 36.3871C47.5831 36.3303 46.8867 36.3075 46.5975 36.353Z" fill="black"/>
<path d="M26.4006 36.2876C26.1913 36.3824 26.0962 36.6971 26.2066 36.936C26.2827 37.1066 26.8344 37.516 27.2835 37.7321C28.1131 38.1378 28.916 38.2515 29.8179 38.0885C30.2365 38.0165 30.3925 37.9558 30.4876 37.8307C30.6018 37.6753 30.5676 37.3947 30.4192 37.2355C30.2974 37.1066 30.1261 37.0876 29.7494 37.1634C29.2927 37.2544 28.741 37.2468 28.349 37.1483C27.8391 37.0118 27.4966 36.826 26.9334 36.3635C26.7888 36.2459 26.5681 36.2118 26.4006 36.2876Z" fill="black"/>
<path d="M32.7663 38.4721C32.6216 38.5176 32.5151 38.6199 32.2868 38.9498C31.8948 39.5147 31.5637 40.3071 31.4458 40.9743C31.343 41.5355 31.3963 42.7108 31.5485 43.215C31.5599 43.2643 31.499 43.3022 31.2707 43.3818C30.4754 43.6624 29.7942 44.0984 29.1435 44.7467C28.5727 45.3154 28.3672 45.6111 28.3672 45.8652C28.3672 46.0813 28.4623 46.2177 28.6564 46.2822C28.938 46.377 29.056 46.3049 29.4593 45.7893C29.8171 45.3344 30.2813 44.9363 30.8293 44.614C31.1566 44.4245 31.8187 44.1591 31.8948 44.1856C31.9253 44.197 31.9899 44.2842 32.0356 44.3827C32.2069 44.7164 32.6064 45.2244 32.9527 45.5543C33.6948 46.2632 34.6309 46.7409 35.5937 46.904C36.0275 46.976 36.9712 46.9836 37.3974 46.9116C37.7399 46.8547 37.7019 46.8281 37.8541 47.2679C37.9797 47.6319 38.0672 48.0641 38.0938 48.4357C38.1319 48.9816 38.1433 49.0423 38.2651 49.1636C38.364 49.2622 38.4097 49.2773 38.5809 49.2773C38.8245 49.2773 38.9539 49.1788 39.0262 48.9437C39.1213 48.6252 38.9424 47.4765 38.6989 46.8319C38.6456 46.6917 38.6076 46.5703 38.6114 46.5628C38.619 46.559 38.7446 46.4907 38.8892 46.4149C39.3306 46.1798 39.6655 45.941 40.046 45.5808C40.5293 45.1183 40.6206 44.9931 40.6206 44.7619C40.6206 44.614 40.6016 44.5534 40.5179 44.4624C40.4037 44.3372 40.2058 44.2842 40.0346 44.3259C39.9813 44.3372 39.7644 44.523 39.5475 44.7391C39.1023 45.1827 38.7864 45.4178 38.3526 45.6339C37.7019 45.9561 37.1273 46.0775 36.3966 46.0396C35.4415 45.9941 34.6766 45.7287 33.9802 45.2017C33.2572 44.6557 32.7282 43.8785 32.4504 42.9648C32.3553 42.6425 32.3477 42.5781 32.3477 41.8843C32.3477 41.2435 32.3591 41.107 32.4276 40.853C32.5836 40.3033 32.8462 39.7725 33.2191 39.2531C33.3218 39.1128 33.3523 39.0332 33.3523 38.9081C33.3523 38.6654 33.2115 38.5138 32.9337 38.4531C32.9032 38.4455 32.8271 38.4569 32.7663 38.4721Z" fill="black"/>
<path d="M80.49 50.5V29.5H90.75C93.39 29.5 95.37 30 96.69 31C98.03 32 98.7 33.32 98.7 34.96C98.7 36.06 98.43 37.02 97.89 37.84C97.35 38.64 96.61 39.26 95.67 39.7C94.73 40.14 93.65 40.36 92.43 40.36L93 39.13C94.32 39.13 95.49 39.35 96.51 39.79C97.53 40.21 98.32 40.84 98.88 41.68C99.46 42.52 99.75 43.55 99.75 44.77C99.75 46.57 99.04 47.98 97.62 49C96.2 50 94.11 50.5 91.35 50.5H80.49ZM85.32 46.84H90.99C92.25 46.84 93.2 46.64 93.84 46.24C94.5 45.82 94.83 45.16 94.83 44.26C94.83 43.38 94.5 42.73 93.84 42.31C93.2 41.87 92.25 41.65 90.99 41.65H84.96V38.11H90.15C91.33 38.11 92.23 37.91 92.85 37.51C93.49 37.09 93.81 36.46 93.81 35.62C93.81 34.8 93.49 34.19 92.85 33.79C92.23 33.37 91.33 33.16 90.15 33.16H85.32V46.84ZM103.099 50.5V34.36H107.569V38.92L106.939 37.6C107.419 36.46 108.189 35.6 109.249 35.02C110.309 34.42 111.599 34.12 113.119 34.12V38.44C112.919 38.42 112.739 38.41 112.579 38.41C112.419 38.39 112.249 38.38 112.069 38.38C110.789 38.38 109.749 38.75 108.949 39.49C108.169 40.21 107.779 41.34 107.779 42.88V50.5H103.099ZM124.748 50.5V47.35L124.448 46.66V41.02C124.448 40.02 124.138 39.24 123.518 38.68C122.918 38.12 121.988 37.84 120.728 37.84C119.868 37.84 119.018 37.98 118.178 38.26C117.358 38.52 116.658 38.88 116.078 39.34L114.398 36.07C115.278 35.45 116.338 34.97 117.578 34.63C118.818 34.29 120.078 34.12 121.358 34.12C123.818 34.12 125.728 34.7 127.088 35.86C128.448 37.02 129.128 38.83 129.128 41.29V50.5H124.748ZM119.828 50.74C118.568 50.74 117.488 50.53 116.588 50.11C115.688 49.67 114.998 49.08 114.518 48.34C114.038 47.6 113.798 46.77 113.798 45.85C113.798 44.89 114.028 44.05 114.488 43.33C114.968 42.61 115.718 42.05 116.738 41.65C117.758 41.23 119.088 41.02 120.728 41.02H125.018V43.75H121.238C120.138 43.75 119.378 43.93 118.958 44.29C118.558 44.65 118.358 45.1 118.358 45.64C118.358 46.24 118.588 46.72 119.048 47.08C119.528 47.42 120.178 47.59 120.998 47.59C121.778 47.59 122.478 47.41 123.098 47.05C123.718 46.67 124.168 46.12 124.448 45.4L125.168 47.56C124.828 48.6 124.208 49.39 123.308 49.93C122.408 50.47 121.248 50.74 119.828 50.74ZM133.363 50.5V34.36H138.043V50.5H133.363ZM135.703 32.11C134.843 32.11 134.143 31.86 133.603 31.36C133.063 30.86 132.793 30.24 132.793 29.5C132.793 28.76 133.063 28.14 133.603 27.64C134.143 27.14 134.843 26.89 135.703 26.89C136.563 26.89 137.263 27.13 137.803 27.61C138.343 28.07 138.613 28.67 138.613 29.41C138.613 30.19 138.343 30.84 137.803 31.36C137.283 31.86 136.583 32.11 135.703 32.11ZM152.197 34.12C153.477 34.12 154.617 34.38 155.617 34.9C156.637 35.4 157.437 36.18 158.017 37.24C158.597 38.28 158.887 39.62 158.887 41.26V50.5H154.207V41.98C154.207 40.68 153.917 39.72 153.337 39.1C152.777 38.48 151.977 38.17 150.937 38.17C150.197 38.17 149.527 38.33 148.927 38.65C148.347 38.95 147.887 39.42 147.547 40.06C147.227 40.7 147.067 41.52 147.067 42.52V50.5H142.387V34.36H146.857V38.83L146.017 37.48C146.597 36.4 147.427 35.57 148.507 34.99C149.587 34.41 150.817 34.12 152.197 34.12ZM163.459 50.5V29.5H172.999C175.279 29.5 177.289 29.94 179.029 30.82C180.769 31.68 182.129 32.89 183.109 34.45C184.089 36.01 184.579 37.86 184.579 40C184.579 42.12 184.089 43.97 183.109 45.55C182.129 47.11 180.769 48.33 179.029 49.21C177.289 50.07 175.279 50.5 172.999 50.5H163.459ZM168.319 46.51H172.759C174.159 46.51 175.369 46.25 176.389 45.73C177.429 45.19 178.229 44.43 178.789 43.45C179.369 42.47 179.659 41.32 179.659 40C179.659 38.66 179.369 37.51 178.789 36.55C178.229 35.57 177.429 34.82 176.389 34.3C175.369 33.76 174.159 33.49 172.759 33.49H168.319V46.51ZM185.191 50.5L194.551 29.5H199.351L208.741 50.5H203.641L195.961 31.96H197.881L190.171 50.5H185.191ZM189.871 46L191.161 42.31H201.961L203.281 46H189.871ZM220.827 50.86C219.167 50.86 217.627 50.59 216.207 50.05C214.807 49.51 213.587 48.75 212.547 47.77C211.527 46.79 210.727 45.64 210.147 44.32C209.587 43 209.307 41.56 209.307 40C209.307 38.44 209.587 37 210.147 35.68C210.727 34.36 211.537 33.21 212.577 32.23C213.617 31.25 214.837 30.49 216.237 29.95C217.637 29.41 219.157 29.14 220.797 29.14C222.457 29.14 223.977 29.41 225.357 29.95C226.757 30.49 227.967 31.25 228.987 32.23C230.027 33.21 230.837 34.36 231.417 35.68C231.997 36.98 232.287 38.42 232.287 40C232.287 41.56 231.997 43.01 231.417 44.35C230.837 45.67 230.027 46.82 228.987 47.8C227.967 48.76 226.757 49.51 225.357 50.05C223.977 50.59 222.467 50.86 220.827 50.86ZM220.797 46.72C221.737 46.72 222.597 46.56 223.377 46.24C224.177 45.92 224.877 45.46 225.477 44.86C226.077 44.26 226.537 43.55 226.857 42.73C227.197 41.91 227.367 41 227.367 40C227.367 39 227.197 38.09 226.857 37.27C226.537 36.45 226.077 35.74 225.477 35.14C224.897 34.54 224.207 34.08 223.407 33.76C222.607 33.44 221.737 33.28 220.797 33.28C219.857 33.28 218.987 33.44 218.187 33.76C217.407 34.08 216.717 34.54 216.117 35.14C215.517 35.74 215.047 36.45 214.707 37.27C214.387 38.09 214.227 39 214.227 40C214.227 40.98 214.387 41.89 214.707 42.73C215.047 43.55 215.507 44.26 216.087 44.86C216.687 45.46 217.387 45.92 218.187 46.24C218.987 46.56 219.857 46.72 220.797 46.72Z" fill="#1A202C"/>
</svg>
