<svg width="234" height="79" viewBox="0 0 234 79" fill="none" xmlns="http://www.w3.org/2000/svg">
<path fill-rule="evenodd" clip-rule="evenodd" d="M34.3764 2.03895C32.8416 2.34276 31.7265 4.00264 32.0523 5.498C32.6788 8.37153 36.4779 8.86433 37.7131 6.23226C38.7521 4.01803 36.7961 1.55996 34.3764 2.03895ZM4.1279 19.3555C1.52041 20.2152 1.16852 23.6297 3.55846 24.88C6.14693 26.2345 8.92323 23.4829 7.61434 20.8607C7.02428 19.6782 5.34606 18.9538 4.1279 19.3555ZM64.101 19.4021C62.2473 20.0535 61.4646 22.2101 62.4985 23.8191C64.1839 26.4421 68.1656 25.1629 68.0162 22.0464C67.9239 20.1265 65.91 18.766 64.101 19.4021ZM32.0653 25.2154C29.7721 25.6336 28.0205 26.9471 26.9558 29.0477C26.6839 29.5831 26.6756 29.5661 27.2296 29.6159C28.6879 29.7476 30.0847 30.3217 31.1182 31.2146L31.4257 31.4801L32.1089 31.2481C32.4846 31.1203 32.8024 31.0078 32.8151 30.998C32.8282 30.9881 32.777 30.7932 32.7018 30.5648C32.2916 29.3199 32.4133 28.6354 33.0212 28.7684C33.2724 28.8232 33.3207 28.9143 33.4127 29.5074C33.4531 29.7686 33.5557 30.1682 33.6409 30.3951L33.7955 30.8074L34.6479 30.8516C36.6582 30.9562 38.4434 31.836 39.6116 33.2986L39.8157 33.5539L40.1113 32.9696C40.8963 31.4198 41.5926 30.7577 42.0055 31.1688C42.229 31.3917 42.1688 31.5878 41.6786 32.2302C40.7723 33.4186 40.3863 34.4401 40.6071 35.0654C40.7913 35.5886 40.9459 36.3177 40.9475 36.6724C40.9486 36.992 40.9459 36.9897 41.6504 37.2552C43.7911 38.0625 45.3497 39.9279 45.8054 42.2282L45.9183 42.7987L46.4081 42.8444C46.6931 42.8709 47.2601 42.8543 47.7638 42.8046L48.6293 42.7194L48.7517 42.8697C49.2427 43.473 48.3321 43.8584 46.5948 43.7831C45.9037 43.7527 45.9021 43.7539 45.9021 44.1903C45.9021 44.5099 45.7424 45.282 45.5657 45.8158C45.4325 46.2167 45.4321 46.2337 45.5482 46.6049C45.6382 46.893 45.6707 47.2441 45.6826 48.0671C45.7008 49.3487 45.6053 49.2413 46.7359 49.248C52.4767 49.2812 54.9182 42.1244 50.3681 38.5998C49.9176 38.2511 49.7979 37.9974 49.973 37.763C50.2251 37.4253 50.4961 37.4722 51.0537 37.9512C51.5946 38.416 51.5621 38.4215 51.8795 37.806C53.6917 34.2913 49.3996 30.7242 46.1529 33.0465C45.6651 33.3953 45.1757 33.2686 45.1757 32.794C45.1757 32.5273 46.1553 31.8561 46.9094 31.606C47.2815 31.4825 46.7454 29.6557 46.0673 28.736C43.8284 25.7003 39.3172 25.8692 37.2807 29.0647C36.8872 29.6821 36.615 29.8131 36.3253 29.5251C36.0194 29.2201 36.3693 28.5158 37.3184 27.5275L37.9072 26.914L37.6611 26.719C35.9821 25.3882 34.0154 24.8595 32.0653 25.2154ZM25.9472 30.448C23.1547 30.6989 21.0144 32.6693 20.8868 35.1069L20.8507 35.7898L21.0425 35.7559C21.1475 35.737 21.4681 35.6829 21.7542 35.6352L22.2749 35.5484L22.4315 35.7299C22.6906 36.0297 22.5032 36.4953 22.1232 36.4953C21.9635 36.4953 21.0524 36.7178 20.6066 36.8658C19.4737 37.241 18.2008 38.4878 17.6944 39.718C16.1767 43.4035 18.903 47.4055 22.8392 47.2698C23.6366 47.2425 23.5731 47.308 23.4951 46.5895C23.3659 45.4015 23.6587 43.9938 24.2448 42.9802C24.3891 42.7308 24.4988 42.5201 24.4885 42.5118C23.9274 42.0407 22.1493 41.8427 21.1305 42.1378C20.4846 42.3244 20.2472 42.3244 20.1148 42.1362C19.3679 41.0741 22.6776 40.6555 24.6784 41.5586L25.1127 41.7547L25.4519 41.4501C26.4735 40.5324 27.2133 40.2893 27.4107 40.8066C27.5082 41.0615 27.3853 41.2595 26.9938 41.4797C24.1553 43.0745 23.5129 47.1265 25.7218 49.5002C27.3358 51.2342 29.5973 51.6039 31.7959 50.4933C32.5171 50.1291 32.5698 50.146 32.9902 50.8795C35.0021 54.3899 40.319 54.9762 43.2601 52.0115C45.5977 49.6556 45.3925 46.1465 42.7854 43.9003C42.1933 43.3905 42.2017 42.8081 42.8008 42.8081C43.0747 42.8081 44.2183 43.8924 44.6665 44.5765L44.9415 44.9963L45.0029 44.7407C45.0366 44.6002 45.0656 44.0707 45.0675 43.5645C45.0862 38.5702 39.5716 35.9066 35.9354 39.1534C35.3968 39.634 35.1935 39.692 34.9498 39.4339C34.7136 39.1838 34.7636 38.9778 35.1531 38.5955C36.2619 37.5069 37.6707 36.9068 39.268 36.8425L40.1303 36.8078L40.0784 36.3757C39.6766 33.0524 35.9488 30.8903 32.4676 31.9611C31.8474 32.1517 30.5987 32.9999 30.0122 33.6289C29.5105 34.1666 29.3877 34.2156 29.1024 33.9919C28.6911 33.6699 29.056 33.0942 30.311 32.085L30.6031 31.8502L30.1787 31.5504C29.3877 30.9921 28.2841 30.5549 27.4753 30.4799C26.6122 30.3998 26.5076 30.3979 25.9472 30.448ZM27.1091 36.5296C27.8022 37.095 28.7251 37.34 29.5934 37.1889C30.2159 37.0808 30.3546 37.108 30.4882 37.3653C31.0996 38.543 27.7547 38.3974 26.4525 37.1901C25.7606 36.5486 26.3752 35.9307 27.1091 36.5296ZM47.933 36.5138C48.3824 36.9258 48.0693 37.2438 47.1737 37.2844C46.4949 37.3156 46.4236 37.3325 45.9465 37.5768C45.2574 37.9299 44.8571 37.7713 45.0006 37.2023C45.1615 36.5635 47.4107 36.0352 47.933 36.5138ZM33.2213 38.5998C33.4178 38.7955 33.3833 39.0181 33.0897 39.4462C30.1668 43.7093 35.7602 48.3098 39.5442 44.7553C40.1585 44.1784 40.6186 44.1958 40.6186 44.7955C40.6186 45.1455 39.3097 46.3003 38.6736 46.5114C38.6292 46.5264 38.657 46.7 38.7497 46.9896C39.1931 48.3733 39.123 49.2528 38.5686 49.2528C38.2235 49.2528 38.1355 49.1013 38.082 48.414C38.0586 48.1153 37.973 47.66 37.8918 47.4019L37.7444 46.9328L36.5559 46.9218C34.5781 46.9032 33.1238 46.1346 32.1977 44.6187C31.887 44.111 31.8644 44.1082 31.0802 44.4889C30.5147 44.7636 29.8494 45.2879 29.488 45.7444C29.0168 46.339 28.7877 46.4321 28.4866 46.1504C27.9294 45.6292 29.6461 43.9614 31.3794 43.3404L31.5522 43.2788L31.4654 42.7967C31.1024 40.7754 32.3677 37.75 33.2213 38.5998ZM4.21112 53.8923C2.70448 54.2561 1.67654 55.8702 2.00743 57.3522C2.73183 60.593 7.23669 60.5619 7.90243 57.3111C8.33001 55.2239 6.33833 53.379 4.21112 53.8923ZM64.2627 53.9093C62.7208 54.3106 61.7309 55.9412 62.1185 57.4421C62.7264 59.798 65.5649 60.5725 67.2166 58.8337C69.2867 56.6546 67.1841 53.149 64.2627 53.9093ZM34.0031 71.2385C31.9048 71.9933 31.3164 74.6944 32.9217 76.2059C34.8436 78.0157 37.9797 76.6991 37.9944 74.0765C38.0055 72.0272 35.9247 70.5472 34.0031 71.2385Z" fill="#FB5BAB"/>
<path fill-rule="evenodd" clip-rule="evenodd" d="M34.3107 0.0622048C32.9915 0.270529 31.8966 0.905368 31.0205 1.97066C30.2644 2.88918 29.8891 4.62324 30.136 6.05744L30.1883 6.36086L24.8195 9.44113C21.8665 11.1353 19.1381 12.6986 18.7569 12.9152C18.3753 13.1318 18.0484 13.3251 18.0305 13.3456C18.0123 13.3658 17.9081 13.4265 17.7991 13.4806C17.5415 13.6088 16.8179 14.0254 16.7755 14.0704C16.7573 14.0898 16.6238 14.1675 16.4783 14.2436C15.8431 14.5766 15.4139 14.8205 15.3172 14.9037C15.2598 14.9526 15.1781 14.9929 15.1357 14.9929C15.0933 14.9929 15.0585 15.0158 15.0585 15.0434C15.0585 15.071 14.9467 15.1444 14.8108 15.2071C14.6745 15.2695 14.4442 15.393 14.2988 15.4821C14.1534 15.5709 13.9604 15.6849 13.8696 15.735C13.7789 15.7852 13.5855 15.8948 13.4401 15.9785C13.295 16.0617 13.0125 16.2188 12.8128 16.3273C12.6131 16.4354 12.405 16.5569 12.3503 16.5967C12.296 16.637 12.1803 16.7096 12.0935 16.7581C11.6576 17.0027 11.4413 17.1266 11.2606 17.2347C11.1516 17.2998 10.9883 17.3945 10.8976 17.4446C10.8068 17.4951 10.6249 17.5973 10.4938 17.6723C10.3626 17.7469 10.1843 17.8479 10.0975 17.8968C10.0107 17.9453 9.895 18.0179 9.84071 18.0582C9.78603 18.098 9.57798 18.2195 9.37825 18.328C9.17853 18.4362 8.91145 18.5833 8.78424 18.6551L8.55361 18.7849L8.15694 18.4657C7.93859 18.2898 7.72222 18.1154 7.67586 18.0775C7.62949 18.04 7.39173 17.9197 7.14762 17.8104C6.90312 17.7007 6.64396 17.5843 6.57144 17.5512C6.26551 17.4123 5.66476 17.3306 4.95344 17.3306C4.24173 17.3306 3.64098 17.4123 3.33506 17.5512C3.26254 17.5843 3.00337 17.7007 2.75927 17.8104C2.51516 17.9197 2.27739 18.0404 2.23063 18.0787C2.18427 18.117 1.97543 18.2835 1.7666 18.4484C0.720825 19.275 0.0848031 20.5332 0.0162474 21.9126C-0.0170397 22.5845 0.0741031 23.4924 0.19893 23.7342C0.228254 23.791 0.30315 23.9808 0.364969 24.156C0.78304 25.3373 2.24252 26.661 3.46464 26.9672L3.76501 27.0426L3.74797 39.5057L3.73133 51.9692L3.46741 52.0592C3.32198 52.1089 3.10957 52.1934 2.99505 52.2466C2.88053 52.3003 2.75728 52.3441 2.72122 52.3441C2.64118 52.3441 1.67427 53.0286 1.47296 53.2275C0.981576 53.714 0.26392 54.8688 0.26392 55.173C0.26392 55.2302 0.237764 55.3052 0.205666 55.3395C0.110956 55.4401 0 56.2253 0 56.7927C0 61.1087 5.05291 63.3103 8.34794 60.4296L8.55995 60.2442L12.0567 62.2521C13.9802 63.3561 15.643 64.3109 15.752 64.3732C15.8609 64.4356 16.1526 64.6028 16.4007 64.7445C16.6483 64.8865 16.9012 65.0325 16.9618 65.0688C17.0228 65.1051 17.2958 65.2617 17.5681 65.4172C17.8407 65.5723 18.1673 65.7616 18.2945 65.8374C18.4217 65.9132 18.6891 66.0639 18.8889 66.1724C19.0886 66.2805 19.2966 66.402 19.3513 66.4422C19.4056 66.4821 19.5213 66.5547 19.6081 66.6036C20.0444 66.8478 20.2608 66.9717 20.4411 67.0798C20.5501 67.1449 20.7137 67.2396 20.8045 67.2901C20.8952 67.3403 21.0811 67.4452 21.217 67.5237C21.3533 67.6018 21.5669 67.7234 21.6917 67.794C21.8166 67.8642 22.0317 67.9909 22.1704 68.0749C22.3091 68.1589 22.5116 68.2714 22.6206 68.3251C22.7296 68.3783 22.8334 68.4367 22.8516 68.4549C22.8699 68.473 22.9741 68.5322 23.0831 68.5866C23.192 68.6407 23.2959 68.7015 23.3141 68.722C23.349 68.7606 23.8281 69.0345 24.2719 69.2688C24.4169 69.3458 24.5509 69.4235 24.5691 69.4416C24.5873 69.4598 24.6911 69.5186 24.8001 69.573C24.9091 69.6271 25.0129 69.6878 25.0311 69.7084C25.066 69.747 25.5451 70.0208 25.9889 70.2552C26.1344 70.3321 26.2679 70.4119 26.2861 70.4328C26.3044 70.4537 26.5568 70.6044 26.8477 70.7673C29.7658 72.4059 30.1958 72.677 30.1538 72.8541C29.1195 77.2029 33.9259 80.6075 37.7076 78.2043C39.4175 77.1177 40.3785 74.7148 39.8348 72.8857C39.7774 72.6931 39.7884 72.6722 40.0143 72.5499C40.839 72.1025 41.0581 71.9798 41.1465 71.9147C41.2598 71.8311 41.4259 71.736 41.939 71.4598C42.1388 71.3521 42.3468 71.2313 42.4015 71.1911C42.4558 71.1512 42.5715 71.0786 42.6583 71.0297C43.1128 70.7748 43.3113 70.6608 43.4912 70.5519C43.6002 70.4856 43.7785 70.3866 43.8875 70.3314C43.9965 70.2765 44.2045 70.1566 44.3496 70.065C44.495 69.9739 44.6583 69.8804 44.713 69.8575C44.7673 69.8346 44.8564 69.7798 44.9111 69.7356C44.9654 69.6914 45.2032 69.5553 45.4393 69.4334C45.6755 69.311 45.8836 69.1962 45.9018 69.1785C45.92 69.1603 46.0016 69.1086 46.0833 69.0633C46.1653 69.0179 46.2989 68.9441 46.3805 68.8987C46.4625 68.8538 46.5739 68.7839 46.6282 68.7437C46.6828 68.7034 46.8909 68.5815 47.0906 68.4722C47.4259 68.2888 48.5065 67.6744 48.9729 67.4022C49.0819 67.3383 49.4829 67.1079 49.8645 66.8893C50.2462 66.6711 53.0078 65.0866 56.0021 63.3687L61.4461 60.245L61.781 60.5239C64.9658 63.1757 69.7505 61.1848 69.9882 57.1087C70.0909 55.3533 69.2824 53.6441 67.9272 52.7493C67.4929 52.4628 67.4077 52.4127 67.2345 52.3425C67.1438 52.3058 67.0102 52.247 66.9373 52.2123C66.8648 52.1772 66.6864 52.1113 66.541 52.0651L66.2771 51.9819L66.2605 39.5096L66.2434 27.0374L66.4586 26.9948C68.8628 26.5194 70.5902 23.342 69.8107 20.8291C68.986 18.171 65.773 16.5198 63.437 17.5539C63.3645 17.5863 63.0895 17.7082 62.8259 17.825C62.5628 17.9418 62.3472 18.0605 62.3472 18.0889C62.3472 18.1174 62.2874 18.1596 62.2141 18.1829C62.1408 18.2057 61.9403 18.3537 61.7683 18.5115L61.4556 18.7984L61.1913 18.65C59.672 17.7974 57.158 16.3352 57.1406 16.2945C57.1287 16.2657 57.0942 16.2424 57.0645 16.2424C57.0169 16.2424 56.7296 16.087 55.9573 15.6427C55.5788 15.4249 55.2551 15.2419 54.9499 15.073C54.7867 14.9826 54.5739 14.8536 54.4776 14.7865C54.3813 14.7191 54.2695 14.6642 54.2299 14.6642C54.1903 14.6642 54.1574 14.6417 54.1574 14.6141C54.1574 14.5865 54.046 14.5127 53.9097 14.4504C53.7738 14.388 53.5432 14.2641 53.3981 14.175C53.2527 14.0862 53.0597 13.9722 52.9686 13.9221C52.7304 13.7903 52.3064 13.5465 52.0769 13.4092C51.968 13.3437 51.8047 13.2494 51.714 13.1989C51.6232 13.1487 51.4413 13.0462 51.3102 12.9716C51.179 12.8966 51.0007 12.7956 50.9139 12.7471C50.8271 12.6982 50.7114 12.6256 50.6571 12.5857C50.6024 12.5455 50.3948 12.424 50.1946 12.3158C49.9949 12.2073 49.7274 12.0566 49.6002 11.9809C49.473 11.9051 49.1465 11.7157 48.8739 11.5607C48.6016 11.4052 48.327 11.2486 48.2636 11.2123C48.2006 11.176 46.2747 10.0697 43.9838 8.75343L39.8182 6.36086L39.8713 5.99155C40.3821 2.44452 37.6529 -0.466102 34.3107 0.0622048ZM35.9858 2.1127C38.0718 2.82684 38.7086 5.42024 37.1976 7.04541C35.3446 9.03829 31.966 7.69444 31.966 4.96493C31.966 2.89825 34.0218 1.43959 35.9858 2.1127ZM31.6359 8.6177C31.6359 8.8059 33.0894 9.60842 33.6743 9.74257L34.0135 9.82069V16.6721V23.5235L33.2705 23.5216C30.6923 23.5137 28.1637 24.6804 26.6741 26.5651C26.4593 26.8374 26.258 27.0915 26.2275 27.1297C26.1629 27.2106 25.6628 28.0936 25.4139 28.5655C25.2479 28.8808 25.2336 28.8902 24.7581 29.0086C23.5665 29.3053 22.34 29.881 21.7298 30.4298C21.5657 30.5774 21.3327 30.6302 21.3327 30.5198C21.3327 30.4878 21.2808 30.4444 21.217 30.4235C21.1536 30.4026 20.9234 30.2791 20.7054 30.1493C20.4875 30.0191 20.2568 29.8964 20.1934 29.8758C20.13 29.8557 20.0777 29.8186 20.0777 29.7934C20.0777 29.7681 19.9739 29.707 19.8467 29.6573C19.7195 29.6075 19.6156 29.5428 19.6156 29.5136C19.6156 29.484 19.5843 29.46 19.5463 29.46C19.5083 29.46 19.3224 29.3617 19.1334 29.2418C18.9443 29.1218 18.6935 28.9818 18.5754 28.9301C18.4573 28.8784 18.3606 28.8192 18.3606 28.7987C18.3606 28.7782 18.2564 28.7206 18.1296 28.6709C18.0024 28.6212 17.8982 28.5596 17.8982 28.5344C17.8982 28.5087 17.7868 28.4393 17.6505 28.3805C17.5146 28.3213 17.2693 28.1872 17.1056 28.0826C16.9424 27.9776 16.7716 27.8897 16.726 27.8869C16.6804 27.8841 16.6436 27.8557 16.6436 27.8242C16.6436 27.7922 16.5469 27.7275 16.4288 27.6798C16.3107 27.6324 16.1993 27.5736 16.1811 27.5492C16.1629 27.5251 15.9616 27.4051 15.7337 27.2824C15.5055 27.1601 15.219 27.0007 15.0969 26.9281C14.9749 26.8559 14.6416 26.6638 14.3559 26.5012C14.0702 26.3387 13.7852 26.1757 13.7222 26.1394C13.6596 26.1031 12.7157 25.5586 11.6251 24.9297C10.26 24.1426 9.6608 23.7634 9.70241 23.7133C9.83001 23.5598 9.92591 22.5383 9.87558 21.87C9.78602 20.6788 9.68379 20.8812 10.6333 20.3663C10.833 20.2582 11.041 20.1367 11.0957 20.0964C11.15 20.0566 11.2657 19.984 11.3525 19.9351C11.4389 19.8865 11.6172 19.7855 11.7488 19.7106C11.8799 19.636 12.0614 19.5334 12.1522 19.4833C12.2433 19.4328 12.4066 19.3385 12.5156 19.273C12.6959 19.1649 12.9122 19.0414 13.3485 18.7968C13.4353 18.7482 13.5506 18.6753 13.6053 18.6346C13.6596 18.5936 13.8974 18.4606 14.1336 18.3387C14.3697 18.2164 14.5778 18.1016 14.596 18.0838C14.6142 18.0657 14.6998 18.0112 14.7866 17.9623C14.8734 17.9138 15.0422 17.8191 15.1623 17.7524C15.282 17.6853 15.4932 17.5614 15.6319 17.4774C15.7706 17.3934 15.9731 17.2809 16.0821 17.2272C16.191 17.174 16.2948 17.1132 16.3131 17.0923C16.3313 17.0714 16.5841 16.9207 16.8746 16.7577C17.1651 16.5948 17.9231 16.1623 18.5588 15.797C31.9085 8.12293 31.6359 8.27247 31.6359 8.6177ZM42.9959 10.9491C45.1207 12.1691 47.0228 13.2576 47.2226 13.3681C47.4227 13.4782 47.6993 13.6392 47.838 13.7252C47.9767 13.8116 48.1847 13.9347 48.3004 13.9986C48.6357 14.1848 49.3965 14.62 49.6232 14.7562C49.7377 14.8244 49.9949 14.9692 50.1946 15.0777C50.3948 15.1858 50.6024 15.3073 50.6571 15.3476C50.7114 15.3874 50.8271 15.46 50.9139 15.509C51.0007 15.5575 51.179 15.6585 51.3102 15.7335C51.4413 15.808 51.6232 15.9106 51.714 15.9607C51.8047 16.0112 51.968 16.1055 52.0769 16.171C52.2576 16.2791 52.474 16.4026 52.9099 16.6473C52.9967 16.6958 53.1124 16.7688 53.1667 16.8094C53.2214 16.8504 53.4592 16.9834 53.6953 17.1053C53.9311 17.2276 54.1392 17.3421 54.1574 17.3602C54.1907 17.3934 54.3825 17.5066 54.686 17.6719C54.7768 17.7212 54.9698 17.8337 55.1152 17.9221C55.2606 18.01 55.4833 18.1327 55.6105 18.1947C55.7377 18.2562 55.8566 18.3233 55.8749 18.3434C55.8931 18.3636 55.9969 18.4239 56.1059 18.4784C56.2149 18.5324 56.3187 18.5944 56.3369 18.6161C56.3718 18.6575 56.8449 18.9274 57.2947 19.1621C57.4401 19.2383 57.5737 19.316 57.5919 19.3349C57.6343 19.3799 58.3579 19.797 58.6155 19.9248C58.7245 19.9793 58.8287 20.0404 58.8469 20.0617C58.8648 20.0826 59.1869 20.272 59.5626 20.4827C60.2022 20.8417 60.2426 20.8765 60.2038 21.0367C60.0968 21.475 60.0904 22.8583 60.1935 23.3401C60.2509 23.6088 60.291 23.8333 60.2822 23.8388C60.2739 23.8447 58.1305 25.0745 55.5198 26.5722C52.9087 28.07 50.6947 29.3404 50.5992 29.3953C50.5041 29.4501 50.203 29.6214 49.9307 29.7756C49.6581 29.9299 49.3906 30.0842 49.3363 30.1185C49.2816 30.1528 49.0815 30.2692 48.8909 30.3773L48.5449 30.5738L48.5045 30.3951C48.3242 29.5961 48.2901 29.4971 47.9414 28.7695C47.45 27.7429 45.7476 25.909 45.2864 25.909C45.2646 25.909 45.1045 25.8261 44.9305 25.7251C43.4274 24.8516 41.007 24.723 39.2162 25.4217L38.8112 25.5795L38.5327 25.3661C38.3793 25.2489 38.199 25.1163 38.1316 25.0718C38.0643 25.0272 37.8974 24.9167 37.7603 24.8263C37.4536 24.6235 36.7288 24.257 36.3088 24.0921L35.9953 23.969V16.8903L35.9949 9.81122L36.3416 9.73113C36.986 9.58278 37.9731 9.02843 38.4237 8.56207L38.5743 8.40661L38.8532 8.56878C39.0066 8.65795 40.8707 9.72876 42.9959 10.9491ZM5.78602 19.3401C7.62276 19.9047 8.51596 21.924 7.66793 23.5934C6.23381 26.416 1.92947 25.4158 1.91678 22.2566C1.90886 20.2543 3.89341 18.7581 5.78602 19.3401ZM65.7389 19.3058C67.6288 19.7911 68.6013 21.7761 67.8012 23.516C66.6167 26.0921 62.7257 25.7015 62.0869 22.9424C61.58 20.7534 63.588 18.7538 65.7389 19.3058ZM34.9238 25.2753C35.7211 25.4845 36.7486 25.9891 37.4298 26.5064L37.9731 26.9191L37.3628 27.5484C36.1918 28.7557 35.8986 29.6135 36.6571 29.6135C36.8937 29.6135 36.8873 29.6198 37.3204 28.9546C39.9168 24.9672 46.1023 26.1461 46.9919 30.7975C47.1326 31.533 47.1291 31.5558 46.8429 31.6691C45.5004 32.2009 44.9468 32.7707 45.4152 33.1376C45.6502 33.3215 45.6926 33.3144 46.1407 33.0106C49.5424 30.7068 53.7207 34.2357 51.8859 37.8632C51.578 38.472 51.6054 38.4684 51.0229 37.9756C50.4792 37.5156 50.287 37.4564 50.0627 37.6797C49.8328 37.9085 49.8923 38.1232 50.2775 38.4578C51.6605 39.6584 52.1764 40.3777 52.5505 41.6252C53.7718 45.701 50.1606 49.8919 45.968 49.265L45.6708 49.2204L45.664 48.234C45.6597 47.5416 45.6232 47.104 45.542 46.7651C45.4167 46.2427 45.4215 46.1693 45.6292 45.4603C45.7052 45.2007 45.8023 44.7067 45.8447 44.3627L45.922 43.7373L46.7871 43.742C48.2061 43.7503 48.8077 43.5862 48.8077 43.1908C48.8077 42.7931 48.5267 42.659 48.0147 42.8125C47.8879 42.8507 47.3894 42.8831 46.9071 42.8847C45.9767 42.8882 45.8356 42.8484 45.8356 42.5836C45.8356 42.2471 45.4936 41.1766 45.1869 40.5548C44.3662 38.8894 43.0641 37.744 41.3621 37.1905C40.94 37.0532 40.9705 37.1033 40.8826 36.3998C40.8429 36.081 40.7252 35.557 40.6214 35.2358L40.4328 34.6519L40.5489 34.2755C40.7958 33.4734 41.2416 32.6716 41.8312 31.9689C42.2327 31.4911 42.0765 30.9399 41.5753 31.0654C41.3173 31.1297 40.5961 32.0901 40.203 32.8926C39.7964 33.7235 39.8768 33.6955 39.4346 33.1621C38.2751 31.7642 36.3924 30.9048 34.4736 30.8981C33.8257 30.8958 33.8114 30.8926 33.7223 30.7206C33.5855 30.4558 33.4223 29.8715 33.3553 29.4063C33.2848 28.9139 33.2075 28.8023 32.9372 28.8023C32.3916 28.8023 32.3595 29.6371 32.856 30.9119C32.8881 30.9952 32.7502 31.0658 32.1617 31.2662L31.4274 31.5164L31.2511 31.3744C29.9517 30.3288 28.7145 29.789 27.3723 29.6817C26.6357 29.6225 26.6444 29.634 26.9107 29.0812C28.3674 26.0546 31.7555 24.4452 34.9238 25.2753ZM20.1276 32.1177C20.1411 32.1315 20.0424 32.3599 19.9081 32.6255C19.4678 33.4963 19.2867 34.2451 19.2859 35.2003C19.2852 35.7058 19.2824 35.7148 19.0803 35.8253C17.0557 36.932 15.6541 39.3858 15.6541 41.8225C15.6541 43.3159 16.2727 45.2117 17.0232 46.0178C17.0688 46.0663 17.1056 46.1295 17.1056 46.1579C17.1056 46.2435 18.0218 47.1383 18.403 47.4252C18.5996 47.5727 18.7522 47.701 18.7422 47.71C18.7319 47.7195 18.6166 47.7866 18.4855 47.8592C18.0012 48.1279 17.9291 48.1697 17.8324 48.2415C17.7777 48.2814 17.5697 48.4025 17.3699 48.5098C16.8568 48.786 16.6907 48.8811 16.5774 48.9647C16.5227 49.005 16.3147 49.1265 16.1149 49.2346C15.9152 49.3431 15.6477 49.495 15.5205 49.5719C15.3933 49.6493 15.2154 49.7483 15.1243 49.7917C15.0335 49.8351 14.9146 49.9053 14.8603 49.9476C14.8057 49.9894 14.5976 50.1125 14.3979 50.221C13.8823 50.5003 13.5851 50.6696 13.2958 50.8499C13.1571 50.9363 12.8805 51.0965 12.6808 51.2066C12.4807 51.3163 11.5003 51.8765 10.5013 52.4514L8.68477 53.4962L8.51993 53.3155C8.29564 53.07 7.4056 52.434 7.16387 52.3464C7.05608 52.3074 6.90828 52.247 6.83576 52.2123C6.76284 52.1772 6.58452 52.1113 6.43948 52.0651L6.17516 51.9819L6.15852 39.5128L6.14188 27.0441L6.45573 26.9585C7.09096 26.7853 8.00913 26.2266 8.48743 25.7224L8.66536 25.5346L14.384 28.8137C17.5292 30.6176 20.1138 32.1043 20.1276 32.1177ZM61.4295 25.6723C61.58 25.8632 62.4324 26.5008 62.537 26.5008C62.5779 26.5008 62.6115 26.5284 62.6115 26.562C62.6115 26.5959 62.6781 26.6437 62.7601 26.6681C62.8418 26.6926 62.9979 26.7529 63.1069 26.8019C63.2159 26.8512 63.4239 26.9293 63.5689 26.9759L63.8333 27.0603L63.8499 39.5069C63.8658 51.3174 63.8606 51.9554 63.7508 51.9933C62.8006 52.3196 61.9078 52.8321 61.517 53.2756L61.3225 53.4962L56.8572 50.9363L52.3924 48.3764L52.7439 47.9436C52.9369 47.7057 53.1334 47.437 53.1806 47.3463C53.2273 47.2559 53.2824 47.1671 53.3026 47.149C53.3232 47.1308 53.4536 46.8795 53.5923 46.5903C54.7245 44.2301 54.5719 41.5191 53.1774 39.226L53.0581 39.0295L53.3379 38.4369C54.4855 36.0088 53.708 33.0982 51.5241 31.6462L51.135 31.3874L54.6773 29.3574C56.6254 28.2408 58.2291 27.3041 58.2414 27.2757C58.2533 27.2473 58.2953 27.224 58.3345 27.224C58.4019 27.224 59.4366 26.6468 59.5071 26.5699C59.5254 26.5498 59.6442 26.4823 59.7714 26.4192C59.8986 26.356 60.2105 26.1848 60.4649 26.0384C60.7193 25.8916 60.9939 25.7389 61.076 25.6983C61.1576 25.6581 61.2246 25.6001 61.2246 25.5697C61.2246 25.4718 61.3015 25.5105 61.4295 25.6723ZM28.2013 30.5758C28.8635 30.7667 29.704 31.1652 30.222 31.5334C30.7106 31.8806 30.7145 31.8896 30.4348 32.0542C29.8229 32.414 28.8818 33.4856 28.9606 33.733C29.1179 34.227 29.4726 34.182 29.9897 33.6024C30.6793 32.8299 31.8835 32.0731 32.8302 31.8166C36.1796 30.9108 40.1558 33.5262 40.1558 36.6353V36.8807L39.4457 36.8835C37.261 36.8918 34.1887 38.6337 34.9761 39.4177C35.1893 39.6304 35.4544 39.5475 35.9057 39.1269C38.682 36.5414 43.2559 37.6422 44.6852 41.2402C45.1025 42.2912 45.2594 43.8923 45.028 44.7383L44.9408 45.0567L44.7256 44.7256C43.735 43.2031 42.3793 42.3603 42.3793 43.267C42.3793 43.4508 42.4585 43.5526 42.9535 44.0064C45.2757 46.1354 45.5812 49.0993 43.7294 51.5368C41.1021 54.9959 35.1619 54.67 32.9899 50.9477C32.5311 50.1614 32.5303 50.161 31.7318 50.5627C29.6482 51.6114 27.3046 51.2476 25.7876 49.6398C23.4694 47.1825 24.0531 43.1427 26.9689 41.4615C27.469 41.1731 27.5408 40.756 27.1223 40.5659C26.8814 40.4566 25.9148 41.0101 25.3985 41.553C25.1706 41.7925 25.0819 41.802 24.7316 41.6237C23.1869 40.8361 20.0777 40.9853 20.0777 41.847C20.0777 42.2901 20.2842 42.3481 21.0735 42.1255C21.9339 41.8829 22.9444 41.8971 23.7432 42.1622C24.3571 42.3662 24.581 42.4854 24.5104 42.5706C24.4062 42.6965 23.9905 43.5511 23.8451 43.9377C23.5491 44.7256 23.4195 46.1484 23.5721 46.9347L23.6263 47.2137L23.3878 47.2796C22.3178 47.5755 20.3975 47.016 19.2122 46.0628C16.9095 44.2111 16.5647 40.6724 18.4633 38.3804C19.2919 37.3802 20.283 36.8208 21.748 36.5264C22.3547 36.4041 22.5215 36.2972 22.5215 36.0305C22.5215 35.6395 22.2548 35.572 21.3482 35.7338L20.8679 35.8194L20.8275 35.6588C20.7213 35.2378 20.9606 34.006 21.2657 33.4039C22.0777 31.8013 23.5538 30.8062 25.6917 30.4203C26.1443 30.3387 27.7187 30.4361 28.2013 30.5758ZM26.2897 36.4736C25.5697 37.385 29.2043 38.6621 30.3642 37.9054C30.7787 37.6351 30.4284 37.106 29.8946 37.1956C28.7985 37.3791 27.9057 37.1845 27.158 36.5998C26.7086 36.2483 26.4926 36.2167 26.2897 36.4736ZM46.3642 36.4546C45.5475 36.6326 44.8949 37.125 45.0173 37.471C45.1445 37.8312 45.3629 37.8454 45.9672 37.5329C46.4918 37.2611 46.5263 37.2528 47.1588 37.2473C47.9692 37.2398 48.1824 37.0977 48.0203 36.6732C47.9073 36.3777 47.1671 36.2798 46.3642 36.4546ZM32.7137 38.5536C31.8241 39.0472 31.2008 41.4698 31.54 43.1143C31.58 43.3084 31.5677 43.3254 31.3288 43.4027C29.7595 43.9089 28.006 45.6394 28.5318 46.1626C28.7775 46.4072 28.9515 46.3358 29.3791 45.8146C29.9608 45.106 30.5651 44.6499 31.3668 44.3145C31.8942 44.094 31.9517 44.1062 32.1451 44.481C32.9182 45.9803 34.9884 47.0606 36.8203 46.9217C37.1473 46.8969 37.4893 46.8712 37.58 46.8649C37.7964 46.8495 38.0226 47.4887 38.1233 48.3985C38.199 49.0847 38.2885 49.2535 38.5762 49.2535C39.1037 49.2535 39.1532 48.2628 38.6924 46.9371C38.6147 46.7134 38.5794 46.5216 38.6139 46.5102C39.4615 46.2289 40.7466 44.9466 40.5493 44.5797C40.3559 44.2194 40.0761 44.2924 39.4885 44.8562C38.3868 45.914 37.066 46.2948 35.6129 45.974C32.6487 45.3198 31.301 41.8785 33.0565 39.4453C33.4774 38.8626 33.2451 38.2585 32.7137 38.5536ZM21.597 48.7978C21.7967 48.831 22.277 48.8582 22.6642 48.8586L23.368 48.859L23.6065 49.2906C25.1116 52.0174 28.409 53.3715 31.2749 52.4399C31.7797 52.2758 32.0321 52.2383 32.0325 52.3275C32.0333 52.5141 33.1489 53.6204 33.733 54.0138L34.0135 54.2032V61.7151V69.2274L33.7595 69.2676C33.5332 69.3039 33.0288 69.4953 32.5616 69.723C32.4712 69.7671 32.1708 69.9842 31.8938 70.2051L31.3906 70.6071L28.6365 69.0214C27.1219 68.1495 25.832 67.4061 25.7702 67.3698C25.7084 67.3339 25.4203 67.1741 25.1298 67.0151C24.8393 66.8561 24.5873 66.7082 24.5691 66.6865C24.5509 66.6644 24.4169 66.5839 24.2719 66.5077C24.1264 66.4312 23.8292 66.2663 23.6113 66.1412C23.3933 66.0165 23.1409 65.8717 23.0498 65.82C22.959 65.7683 22.8699 65.7111 22.8516 65.693C22.8334 65.6748 22.7296 65.6168 22.6206 65.564C22.5116 65.5111 22.3484 65.4192 22.2572 65.3596C22.1665 65.3004 21.956 65.1769 21.79 65.0854C21.2669 64.7981 21.1686 64.7405 21.1346 64.7035C21.1163 64.6833 20.9975 64.6155 20.8702 64.5527C20.743 64.4896 20.5501 64.3843 20.4411 64.3188C20.2612 64.2103 20.0539 64.0915 19.6081 63.8417C19.5213 63.7928 19.4353 63.736 19.4175 63.7151C19.3993 63.6942 19.1912 63.5727 18.955 63.4456C18.7189 63.3186 18.4217 63.1521 18.2945 63.0759C18.1673 62.9998 17.8407 62.8104 17.5681 62.6553C17.2958 62.4999 17.0212 62.3432 16.9582 62.3069C16.8952 62.2706 16.2711 61.9108 15.5713 61.5076C14.8714 61.1043 14.1772 60.7047 14.0282 60.6198C13.8796 60.535 12.8587 59.9491 11.7603 59.3186L9.76343 58.172L9.7999 57.9704C9.95048 57.141 9.88668 55.4457 9.70043 55.3308C9.59106 55.2638 9.64297 55.1959 9.8736 55.1059C10.0008 55.0562 10.105 54.9951 10.105 54.9698C10.105 54.9446 10.1569 54.9067 10.2203 54.8858C10.2841 54.8649 10.5144 54.7414 10.7323 54.6116C10.9503 54.4814 11.1805 54.3587 11.2443 54.3381C11.3077 54.318 11.3596 54.2809 11.3596 54.2557C11.3596 54.2304 11.4639 54.1693 11.5911 54.1196C11.7179 54.0698 11.8221 54.0051 11.8221 53.9759C11.8221 53.9463 11.8494 53.9223 11.8827 53.9223C11.916 53.9223 12.1696 53.7889 12.4458 53.6264C12.7224 53.4638 12.9776 53.3305 13.0129 53.3305C13.0482 53.3305 13.0771 53.3084 13.0775 53.2811C13.0779 53.2539 13.1445 53.1995 13.2261 53.16C13.3937 53.0783 14.6424 52.3788 14.7942 52.2813C14.8484 52.2462 15.3834 51.9353 15.983 51.5901C16.5822 51.2444 17.9644 50.4471 19.0541 49.8177C20.1439 49.188 21.0799 48.6877 21.1346 48.7055C21.1889 48.7233 21.3969 48.7647 21.597 48.7978ZM51.0843 49.9109C51.2127 49.9835 51.429 50.1062 51.5654 50.1839C51.7013 50.2612 51.9763 50.4135 52.176 50.5216C52.3761 50.6301 52.5838 50.7513 52.6385 50.7915C52.7518 50.8751 52.9179 50.9702 53.431 51.2464C53.6308 51.3537 53.8388 51.4749 53.8935 51.5147C53.9478 51.555 54.0635 51.6276 54.1503 51.6761C54.2367 51.725 54.415 51.826 54.5465 51.9006C54.6777 51.9756 54.8592 52.0777 54.9499 52.1282C55.0411 52.1784 55.2044 52.273 55.3133 52.3381C55.4936 52.4463 55.71 52.5701 56.1463 52.8148C56.2331 52.8633 56.3484 52.9359 56.4031 52.9761C56.4574 53.016 56.6654 53.1375 56.8655 53.246C57.0653 53.3541 57.3225 53.4989 57.437 53.5676C57.6292 53.6828 58.2779 54.0549 58.7479 54.3196C58.8568 54.3811 59.177 54.5686 59.4596 54.7358C59.7421 54.9031 59.9949 55.0412 60.0211 55.0424C60.2561 55.0527 60.2977 55.2133 60.1931 55.7041C60.0984 56.148 60.0952 57.0065 60.1848 58.0138C60.1998 58.1827 56.0888 60.6159 49.8974 64.1029C49.607 64.2667 49.3545 64.4178 49.3363 64.4387C49.3181 64.4596 49.2139 64.5208 49.1049 64.5744C48.9959 64.6281 48.684 64.8021 48.4114 64.9607C47.6731 65.3915 47.4893 65.4961 47.0906 65.7119C46.8909 65.8204 46.6828 65.9416 46.6282 65.9818C46.5739 66.022 46.4582 66.0946 46.3714 66.1432C46.285 66.1917 46.1067 66.2927 45.9751 66.3677C45.8439 66.4426 45.6624 66.5448 45.5717 66.5949C45.4809 66.645 45.2876 66.7595 45.1421 66.8486C44.9971 66.9378 44.8188 67.0392 44.7459 67.0739C44.6733 67.109 44.495 67.2112 44.3496 67.3012C44.2045 67.3911 43.9965 67.5099 43.8875 67.5651C43.7785 67.6204 43.5927 67.7245 43.4746 67.7971C43.3565 67.8697 43.1635 67.9881 43.0454 68.0607C42.9273 68.1333 42.7415 68.2379 42.6325 68.2927C42.5235 68.3479 42.3452 68.4474 42.2362 68.5133C42.0567 68.6225 41.8582 68.7362 41.4033 68.9915C41.3165 69.04 41.2008 69.1126 41.1465 69.1528C41.0918 69.1927 40.8841 69.3142 40.684 69.4223C40.1685 69.702 39.8717 69.8713 39.5824 70.0516C39.4437 70.1376 39.1611 70.3002 38.9547 70.4122L38.5794 70.6158L38.4264 70.4675C37.9156 69.9719 36.9741 69.4468 36.3341 69.2996L35.9949 69.2215V62.189V55.1564L36.1764 55.2006C39.2876 55.9586 42.2287 55.2547 44.2458 53.2689C45.0098 52.5165 45.3383 52.0774 45.7647 51.2362L45.9696 50.8317H46.814C48.0456 50.8317 49.1857 50.5666 50.1946 50.0462C50.7819 49.7432 50.7859 49.7424 51.0843 49.9109ZM5.87796 53.9049C8.03171 54.6033 8.69864 57.3072 7.1076 58.8913C4.68913 61.2992 0.757281 58.5457 2.22033 55.4689C2.8516 54.1417 4.47157 53.4488 5.87796 53.9049ZM66.0358 53.9278C68.1848 54.6613 68.7808 57.4748 67.1101 58.9982C65.1208 60.8116 62.0171 59.4239 62.0171 56.7208C62.0171 54.7149 64.1004 53.2673 66.0358 53.9278ZM35.9949 71.1915C39.1964 72.4513 38.4039 77.0695 34.986 77.0695C31.8923 77.0695 30.8235 72.9492 33.519 71.4136C34.2267 71.0104 35.2919 70.9149 35.9949 71.1915Z" fill="#143C4C"/>
<path fill-rule="evenodd" clip-rule="evenodd" d="M34.8903 8.00069C34.9541 8.01726 35.0579 8.01726 35.1217 8.00069C35.1851 7.98412 35.1332 7.9707 35.006 7.9707C34.8788 7.9707 34.8269 7.98412 34.8903 8.00069ZM4.83954 19.2455C4.90295 19.262 5.00717 19.262 5.07057 19.2455C5.13437 19.2289 5.08206 19.2155 4.95526 19.2155C4.82805 19.2155 4.77614 19.2289 4.83954 19.2455ZM64.9415 19.2455C65.0049 19.262 65.1091 19.262 65.1725 19.2455C65.2359 19.2289 65.184 19.2155 65.0568 19.2155C64.9296 19.2155 64.8777 19.2289 64.9415 19.2455ZM20.8229 35.344C20.8237 35.4884 20.8372 35.5401 20.853 35.458C20.8685 35.3764 20.8681 35.258 20.8515 35.1953C20.8348 35.1321 20.8221 35.1992 20.8229 35.344ZM31.3948 41.821C31.3948 42.0562 31.4066 42.1524 31.4213 42.0349C31.436 41.9173 31.436 41.7251 31.4213 41.6076C31.4066 41.49 31.3948 41.5859 31.3948 41.821ZM23.4677 45.9638C23.4677 46.1631 23.4803 46.2444 23.4954 46.1449C23.5105 46.0455 23.5105 45.8825 23.4954 45.7831C23.4803 45.6837 23.4677 45.765 23.4677 45.9638ZM38.4247 53.9673C38.5067 53.9831 38.6256 53.9823 38.689 53.9662C38.752 53.9496 38.6847 53.9366 38.5396 53.9374C38.3942 53.9381 38.3427 53.9516 38.4247 53.9673Z" fill="#754872"/>
<path fill-rule="evenodd" clip-rule="evenodd" d="M32.8546 2.84471L32.6604 3.05816L32.8752 2.86522C33.0753 2.68531 33.1201 2.63086 33.0693 2.63086C33.0578 2.63086 32.9612 2.72713 32.8546 2.84471ZM37.0816 7.1189L36.8875 7.33275L37.1022 7.13942C37.3024 6.9595 37.3471 6.90506 37.296 6.90506C37.2845 6.90506 37.1882 7.00133 37.0816 7.1189ZM68.0462 22.2271C68.0462 22.3897 68.0589 22.4564 68.0747 22.3751C68.0906 22.2934 68.0906 22.1605 68.0747 22.0792C68.0589 21.9975 68.0462 22.0642 68.0462 22.2271ZM33.1395 25.1011C33.2211 25.1168 33.3547 25.1168 33.4367 25.1011C33.5183 25.0853 33.4514 25.0727 33.2881 25.0727C33.1244 25.0727 33.0575 25.0853 33.1395 25.1011ZM41.6261 26.5483C41.726 26.5637 41.8896 26.5637 41.9895 26.5483C42.0894 26.5333 42.0077 26.5211 41.808 26.5211C41.6079 26.5211 41.5263 26.5333 41.6261 26.5483ZM28.3311 27.0766L28.1032 27.3232L28.3509 27.0967C28.5815 26.8856 28.6291 26.83 28.5787 26.83C28.5676 26.83 28.4563 26.9413 28.3311 27.0766ZM45.3745 27.9687C45.3745 27.9801 45.4708 28.076 45.5889 28.1821L45.8037 28.3755L45.6095 28.1616C45.4288 27.9624 45.3745 27.9178 45.3745 27.9687ZM26.1714 30.4263C26.2352 30.4429 26.339 30.4429 26.4028 30.4263C26.4662 30.4098 26.4143 30.3964 26.2871 30.3964C26.1599 30.3964 26.108 30.4098 26.1714 30.4263ZM26.832 30.4263C26.8954 30.4429 26.9996 30.4429 27.063 30.4263C27.1268 30.4098 27.0745 30.3964 26.9477 30.3964C26.8205 30.3964 26.7686 30.4098 26.832 30.4263ZM34.1286 31.6779C34.2459 31.6925 34.4539 31.6929 34.591 31.6787C34.7278 31.6645 34.6319 31.6522 34.3778 31.6522C34.1234 31.6518 34.0113 31.6633 34.1286 31.6779ZM22.2221 32.1071L21.9609 32.3869L22.2419 32.1269C22.5027 31.885 22.553 31.8278 22.5026 31.8278C22.4919 31.8278 22.3659 31.9537 22.2221 32.1071ZM48.297 32.2677C48.3604 32.2843 48.4646 32.2843 48.528 32.2677C48.5915 32.2512 48.5395 32.2377 48.4123 32.2377C48.2851 32.2377 48.2332 32.2512 48.297 32.2677ZM39.0999 32.7814C39.2231 32.9077 39.3388 33.0115 39.357 33.0115C39.3753 33.0115 39.2893 32.9077 39.166 32.7814C39.0428 32.6548 38.9271 32.551 38.9089 32.551C38.8906 32.551 38.9766 32.6548 39.0999 32.7814ZM47.0099 37.2667C47.0919 37.2821 47.2108 37.2817 47.2738 37.2651C47.3372 37.2486 47.2699 37.2359 47.1244 37.2367C46.9794 37.2375 46.9275 37.2509 47.0099 37.2667ZM35.7604 39.275L35.5667 39.4888L35.781 39.2955C35.9812 39.1156 36.0263 39.0611 35.9752 39.0611C35.9637 39.0611 35.867 39.1574 35.7604 39.275ZM43.195 39.1476C43.195 39.159 43.2913 39.2553 43.4094 39.3614L43.6241 39.5543L43.43 39.3409C43.2493 39.1416 43.195 39.0967 43.195 39.1476ZM46.6129 49.3002C46.6945 49.316 46.828 49.316 46.9101 49.3002C46.9917 49.2848 46.9247 49.2718 46.7615 49.2718C46.5978 49.2718 46.5308 49.2848 46.6129 49.3002ZM28.8795 51.1404C28.9429 51.157 29.0471 51.157 29.1105 51.1404C29.1739 51.1238 29.122 51.1104 28.9948 51.1104C28.8676 51.1104 28.8157 51.1238 28.8795 51.1404ZM29.6059 51.1404C29.6693 51.157 29.7735 51.157 29.8369 51.1404C29.9007 51.1238 29.8484 51.1104 29.7216 51.1104C29.5944 51.1104 29.5425 51.1238 29.6059 51.1404ZM68.0462 56.816C68.0462 56.979 68.0589 57.0457 68.0747 56.964C68.0906 56.8827 68.0906 56.7498 68.0747 56.6681C68.0589 56.5868 68.0462 56.6535 68.0462 56.816Z" fill="#A34E83"/>
<path fill-rule="evenodd" clip-rule="evenodd" d="M34.8884 1.95225C34.9522 1.96843 35.056 1.96843 35.1198 1.95225C35.1832 1.93568 35.1313 1.92188 35.0041 1.92188C34.8769 1.92188 34.825 1.93568 34.8884 1.95225ZM34.03 30.886C34.0934 30.9026 34.1977 30.9026 34.2611 30.886C34.3245 30.8695 34.2726 30.856 34.1454 30.856C34.0181 30.856 33.9662 30.8695 34.03 30.886ZM34.592 30.8872C34.6744 30.903 34.7933 30.9022 34.8563 30.886C34.9193 30.8695 34.8523 30.8564 34.7069 30.8572C34.5614 30.858 34.5099 30.8714 34.592 30.8872ZM39.0833 36.8714C39.1654 36.8868 39.2843 36.8864 39.3473 36.8698C39.4107 36.8533 39.3433 36.8406 39.1979 36.8414C39.0528 36.8422 39.0009 36.8556 39.0833 36.8714ZM39.7106 36.8718C39.8113 36.8872 39.9599 36.8868 40.0411 36.871C40.1224 36.8552 40.04 36.843 39.8585 36.8434C39.677 36.8442 39.6104 36.8568 39.7106 36.8718ZM43.7883 38.6209C43.7883 38.6323 43.8846 38.7282 44.0027 38.8343L44.2175 39.0276L44.0233 38.8138C43.8426 38.6145 43.7883 38.57 43.7883 38.6209ZM22.1759 41.0809C22.2947 41.0955 22.4731 41.0951 22.5721 41.0801C22.6712 41.0651 22.5741 41.0533 22.3562 41.0537C22.1382 41.0541 22.057 41.0663 22.1759 41.0809ZM45.1258 43.565C45.1265 43.7098 45.14 43.7611 45.1559 43.6794C45.1717 43.5974 45.1709 43.479 45.1547 43.4163C45.138 43.3535 45.125 43.4202 45.1258 43.565ZM39.4915 44.8307L39.264 45.0773L39.5117 44.8509C39.648 44.7262 39.7594 44.6153 39.7594 44.6043C39.7594 44.5542 39.7035 44.6015 39.4915 44.8307ZM22.439 47.3287C22.5931 47.3425 22.846 47.3425 23.0001 47.3287C23.1546 47.3148 23.0282 47.3034 22.7195 47.3034C22.4108 47.3034 22.2844 47.3148 22.439 47.3287ZM44.9264 48.201C44.9264 48.3277 44.9399 48.3793 44.9565 48.3162C44.9732 48.2527 44.9732 48.1493 44.9565 48.0858C44.9399 48.0227 44.9264 48.0744 44.9264 48.201ZM45.6528 48.3324C45.6528 48.459 45.6663 48.5107 45.6829 48.4476C45.6996 48.3845 45.6996 48.2807 45.6829 48.2176C45.6663 48.1541 45.6528 48.2057 45.6528 48.3324ZM43.2228 52.0972L43.0287 52.3111L43.2434 52.1177C43.4436 51.9378 43.4883 51.8834 43.4372 51.8834C43.4257 51.8834 43.3294 51.9796 43.2228 52.0972Z" fill="#4C4464"/>
<path d="M80.49 50.5V29.5H90.75C93.39 29.5 95.37 30 96.69 31C98.03 32 98.7 33.32 98.7 34.96C98.7 36.06 98.43 37.02 97.89 37.84C97.35 38.64 96.61 39.26 95.67 39.7C94.73 40.14 93.65 40.36 92.43 40.36L93 39.13C94.32 39.13 95.49 39.35 96.51 39.79C97.53 40.21 98.32 40.84 98.88 41.68C99.46 42.52 99.75 43.55 99.75 44.77C99.75 46.57 99.04 47.98 97.62 49C96.2 50 94.11 50.5 91.35 50.5H80.49ZM85.32 46.84H90.99C92.25 46.84 93.2 46.64 93.84 46.24C94.5 45.82 94.83 45.16 94.83 44.26C94.83 43.38 94.5 42.73 93.84 42.31C93.2 41.87 92.25 41.65 90.99 41.65H84.96V38.11H90.15C91.33 38.11 92.23 37.91 92.85 37.51C93.49 37.09 93.81 36.46 93.81 35.62C93.81 34.8 93.49 34.19 92.85 33.79C92.23 33.37 91.33 33.16 90.15 33.16H85.32V46.84ZM103.099 50.5V34.36H107.569V38.92L106.939 37.6C107.419 36.46 108.189 35.6 109.249 35.02C110.309 34.42 111.599 34.12 113.119 34.12V38.44C112.919 38.42 112.739 38.41 112.579 38.41C112.419 38.39 112.249 38.38 112.069 38.38C110.789 38.38 109.749 38.75 108.949 39.49C108.169 40.21 107.779 41.34 107.779 42.88V50.5H103.099ZM124.748 50.5V47.35L124.448 46.66V41.02C124.448 40.02 124.138 39.24 123.518 38.68C122.918 38.12 121.988 37.84 120.728 37.84C119.868 37.84 119.018 37.98 118.178 38.26C117.358 38.52 116.658 38.88 116.078 39.34L114.398 36.07C115.278 35.45 116.338 34.97 117.578 34.63C118.818 34.29 120.078 34.12 121.358 34.12C123.818 34.12 125.728 34.7 127.088 35.86C128.448 37.02 129.128 38.83 129.128 41.29V50.5H124.748ZM119.828 50.74C118.568 50.74 117.488 50.53 116.588 50.11C115.688 49.67 114.998 49.08 114.518 48.34C114.038 47.6 113.798 46.77 113.798 45.85C113.798 44.89 114.028 44.05 114.488 43.33C114.968 42.61 115.718 42.05 116.738 41.65C117.758 41.23 119.088 41.02 120.728 41.02H125.018V43.75H121.238C120.138 43.75 119.378 43.93 118.958 44.29C118.558 44.65 118.358 45.1 118.358 45.64C118.358 46.24 118.588 46.72 119.048 47.08C119.528 47.42 120.178 47.59 120.998 47.59C121.778 47.59 122.478 47.41 123.098 47.05C123.718 46.67 124.168 46.12 124.448 45.4L125.168 47.56C124.828 48.6 124.208 49.39 123.308 49.93C122.408 50.47 121.248 50.74 119.828 50.74ZM133.363 50.5V34.36H138.043V50.5H133.363ZM135.703 32.11C134.843 32.11 134.143 31.86 133.603 31.36C133.063 30.86 132.793 30.24 132.793 29.5C132.793 28.76 133.063 28.14 133.603 27.64C134.143 27.14 134.843 26.89 135.703 26.89C136.563 26.89 137.263 27.13 137.803 27.61C138.343 28.07 138.613 28.67 138.613 29.41C138.613 30.19 138.343 30.84 137.803 31.36C137.283 31.86 136.583 32.11 135.703 32.11ZM152.197 34.12C153.477 34.12 154.617 34.38 155.617 34.9C156.637 35.4 157.437 36.18 158.017 37.24C158.597 38.28 158.887 39.62 158.887 41.26V50.5H154.207V41.98C154.207 40.68 153.917 39.72 153.337 39.1C152.777 38.48 151.977 38.17 150.937 38.17C150.197 38.17 149.527 38.33 148.927 38.65C148.347 38.95 147.887 39.42 147.547 40.06C147.227 40.7 147.067 41.52 147.067 42.52V50.5H142.387V34.36H146.857V38.83L146.017 37.48C146.597 36.4 147.427 35.57 148.507 34.99C149.587 34.41 150.817 34.12 152.197 34.12ZM163.459 50.5V29.5H172.999C175.279 29.5 177.289 29.94 179.029 30.82C180.769 31.68 182.129 32.89 183.109 34.45C184.089 36.01 184.579 37.86 184.579 40C184.579 42.12 184.089 43.97 183.109 45.55C182.129 47.11 180.769 48.33 179.029 49.21C177.289 50.07 175.279 50.5 172.999 50.5H163.459ZM168.319 46.51H172.759C174.159 46.51 175.369 46.25 176.389 45.73C177.429 45.19 178.229 44.43 178.789 43.45C179.369 42.47 179.659 41.32 179.659 40C179.659 38.66 179.369 37.51 178.789 36.55C178.229 35.57 177.429 34.82 176.389 34.3C175.369 33.76 174.159 33.49 172.759 33.49H168.319V46.51ZM185.191 50.5L194.551 29.5H199.351L208.741 50.5H203.641L195.961 31.96H197.881L190.171 50.5H185.191ZM189.871 46L191.161 42.31H201.961L203.281 46H189.871ZM220.827 50.86C219.167 50.86 217.627 50.59 216.207 50.05C214.807 49.51 213.587 48.75 212.547 47.77C211.527 46.79 210.727 45.64 210.147 44.32C209.587 43 209.307 41.56 209.307 40C209.307 38.44 209.587 37 210.147 35.68C210.727 34.36 211.537 33.21 212.577 32.23C213.617 31.25 214.837 30.49 216.237 29.95C217.637 29.41 219.157 29.14 220.797 29.14C222.457 29.14 223.977 29.41 225.357 29.95C226.757 30.49 227.967 31.25 228.987 32.23C230.027 33.21 230.837 34.36 231.417 35.68C231.997 36.98 232.287 38.42 232.287 40C232.287 41.56 231.997 43.01 231.417 44.35C230.837 45.67 230.027 46.82 228.987 47.8C227.967 48.76 226.757 49.51 225.357 50.05C223.977 50.59 222.467 50.86 220.827 50.86ZM220.797 46.72C221.737 46.72 222.597 46.56 223.377 46.24C224.177 45.92 224.877 45.46 225.477 44.86C226.077 44.26 226.537 43.55 226.857 42.73C227.197 41.91 227.367 41 227.367 40C227.367 39 227.197 38.09 226.857 37.27C226.537 36.45 226.077 35.74 225.477 35.14C224.897 34.54 224.207 34.08 223.407 33.76C222.607 33.44 221.737 33.28 220.797 33.28C219.857 33.28 218.987 33.44 218.187 33.76C217.407 34.08 216.717 34.54 216.117 35.14C215.517 35.74 215.047 36.45 214.707 37.27C214.387 38.09 214.227 39 214.227 40C214.227 40.98 214.387 41.89 214.707 42.73C215.047 43.55 215.507 44.26 216.087 44.86C216.687 45.46 217.387 45.92 218.187 46.24C218.987 46.56 219.857 46.72 220.797 46.72Z" fill="#1A202C"/>
</svg>
