<svg width="212" height="240" viewBox="0 0 212 240" fill="none" xmlns="http://www.w3.org/2000/svg">
<path fill-rule="evenodd" clip-rule="evenodd" d="M104.111 6.19532C99.4623 7.11828 96.0851 12.161 97.0717 16.7038C98.9691 25.4335 110.475 26.9306 114.216 18.9345C117.363 12.2077 111.439 4.74017 104.111 6.19532ZM12.5008 58.8026C4.60378 61.4144 3.53805 71.7875 10.7762 75.586C18.6155 79.7009 27.0238 71.3416 23.0597 63.3754C21.2726 59.7831 16.19 57.5823 12.5008 58.8026ZM194.134 58.944C188.519 60.923 186.149 67.4748 189.28 72.3628C194.385 80.3314 206.444 76.4454 205.991 66.9773C205.712 61.1447 199.612 57.0118 194.134 58.944ZM97.1113 76.6048C90.166 77.8754 84.8613 81.8657 81.6365 88.2472C80.8132 89.8738 80.788 89.8222 82.4658 89.9733C86.8824 90.3736 91.1129 92.1177 94.2429 94.8302L95.1742 95.6369L97.2433 94.9321C98.381 94.5437 99.3435 94.2021 99.382 94.1721C99.4216 94.1421 99.2667 93.55 99.0387 92.856C97.7965 89.0743 98.165 86.9946 100.006 87.3986C100.767 87.5652 100.913 87.8421 101.192 89.6436C101.314 90.4371 101.625 91.6514 101.883 92.3406L102.351 93.5932L104.933 93.7274C111.021 94.0451 116.428 96.718 119.966 101.161L120.584 101.937L121.479 100.162C123.857 95.4535 125.965 93.4421 127.216 94.6911C127.893 95.3684 127.71 95.9641 126.226 97.9155C123.481 101.526 122.312 104.629 122.98 106.529C123.539 108.118 124.007 110.333 124.011 111.411C124.015 112.382 124.007 112.375 126.14 113.181C132.624 115.634 137.344 121.301 138.724 128.289L139.066 130.022L140.549 130.161C141.412 130.242 143.13 130.191 144.655 130.04L147.276 129.781L147.647 130.238C149.134 132.071 146.376 133.242 141.115 133.013C139.022 132.921 139.017 132.924 139.017 134.25C139.017 135.221 138.533 137.567 137.998 139.188C137.595 140.406 137.593 140.458 137.945 141.586C138.218 142.461 138.316 143.527 138.352 146.028C138.407 149.921 138.118 149.595 141.542 149.615C158.929 149.716 166.323 127.974 152.543 117.266C151.178 116.207 150.816 115.436 151.346 114.724C152.109 113.698 152.93 113.841 154.619 115.296C156.257 116.708 156.159 116.725 157.12 114.855C162.608 104.177 149.609 93.3403 139.777 100.395C138.299 101.455 136.817 101.07 136.817 99.6283C136.817 98.8181 139.784 96.7792 142.068 96.0192C143.195 95.644 141.571 90.0943 139.517 87.3003C132.736 78.078 119.074 78.591 112.906 88.2988C111.715 90.1746 110.89 90.5726 110.013 89.6976C109.086 88.771 110.146 86.6315 113.02 83.6289L114.804 81.765L114.059 81.1728C108.974 77.1298 103.017 75.5236 97.1113 76.6048ZM78.5822 92.5012C70.1247 93.2635 63.6427 99.2496 63.2563 106.655L63.1471 108.73L63.7279 108.627C64.046 108.569 65.0169 108.405 65.8834 108.26L67.4604 107.996L67.9344 108.547C68.7193 109.458 68.1517 110.873 67.0007 110.873C66.5171 110.873 63.7579 111.549 62.4078 111.998C58.9765 113.138 55.1216 116.926 53.5879 120.663C48.9913 131.86 57.2483 144.018 69.1694 143.605C71.5841 143.523 71.3921 143.722 71.1556 141.539C70.7644 137.93 71.6513 133.653 73.4263 130.574C73.8632 129.816 74.1956 129.176 74.1644 129.151C72.465 127.72 67.0799 127.118 63.9943 128.015C62.0381 128.582 61.3192 128.582 60.9184 128.01C58.6561 124.783 68.6797 123.511 74.7393 126.255L76.0546 126.851L77.082 125.925C80.176 123.137 82.4166 122.399 83.0143 123.97C83.3096 124.745 82.9375 125.346 81.7518 126.015C73.1551 130.86 71.2096 143.17 77.8993 150.381C82.7875 155.649 89.6367 156.772 96.2952 153.398C98.4794 152.292 98.6391 152.343 99.9124 154.572C106.006 165.236 122.108 167.017 131.015 158.011C138.095 150.854 137.473 140.193 129.578 133.369C127.785 131.82 127.81 130.051 129.624 130.051C130.454 130.051 133.917 133.345 135.275 135.423L136.108 136.699L136.294 135.922C136.396 135.495 136.483 133.887 136.489 132.349C136.546 117.176 119.844 109.084 108.832 118.948C107.201 120.408 106.585 120.584 105.847 119.8C105.132 119.04 105.283 118.415 106.463 117.253C109.821 113.946 114.087 112.123 118.925 111.928L121.537 111.822L121.379 110.51C120.163 100.413 108.873 93.8449 98.3294 97.098C96.4512 97.677 92.6695 100.254 90.8933 102.165C89.3739 103.798 89.0019 103.947 88.1378 103.267C86.892 102.289 87.9973 100.541 91.7982 97.4744L92.6827 96.7612L91.3974 95.8502C89.0019 94.1541 85.6594 92.8261 83.2099 92.5983C80.596 92.355 80.2792 92.349 78.5822 92.5012ZM82.101 110.977C84.2001 112.695 86.9952 113.439 89.6247 112.98C91.5102 112.652 91.9302 112.734 92.3347 113.516C94.1865 117.094 84.056 116.651 80.1124 112.984C78.0169 111.035 79.8783 109.158 82.101 110.977ZM145.168 110.929C146.529 112.181 145.58 113.147 142.868 113.27C140.812 113.365 140.596 113.416 139.151 114.158C137.064 115.231 135.852 114.749 136.287 113.021C136.774 111.08 143.586 109.475 145.168 110.929ZM100.612 117.266C101.207 117.861 101.103 118.537 100.214 119.837C91.3614 132.789 108.301 146.765 119.762 135.966C121.622 134.214 123.015 134.267 123.015 136.089C123.015 137.152 119.051 140.66 117.125 141.302C116.991 141.347 117.075 141.875 117.355 142.754C118.698 146.958 118.486 149.63 116.807 149.63C115.762 149.63 115.495 149.169 115.333 147.081C115.262 146.174 115.003 144.791 114.757 144.007L114.311 142.582L110.711 142.548C104.721 142.492 100.317 140.157 97.5121 135.552C96.5712 134.009 96.5028 134.001 94.1277 135.157C92.4151 135.992 90.4 137.585 89.3055 138.971C87.8785 140.778 87.1848 141.061 86.2727 140.205C84.5853 138.621 89.7844 133.555 95.0338 131.668L95.5571 131.481L95.2942 130.016C94.1949 123.876 98.027 114.685 100.612 117.266ZM12.7528 163.725C8.18983 164.83 5.07664 169.733 6.07877 174.235C8.27264 184.081 21.9159 183.986 23.9322 174.111C25.2271 167.77 19.1952 162.165 12.7528 163.725ZM194.623 163.776C189.954 164.995 186.956 169.949 188.129 174.509C189.97 181.666 198.567 184.019 203.569 178.736C209.839 172.116 203.471 161.466 194.623 163.776ZM102.98 216.422C96.6252 218.715 94.843 226.921 99.7048 231.513C105.526 237.011 115.023 233.011 115.068 225.044C115.101 218.818 108.8 214.322 102.98 216.422Z" fill="#FB5BAB"/>
<path fill-rule="evenodd" clip-rule="evenodd" d="M103.912 0.188977C99.9172 0.82186 96.6012 2.75048 93.9477 5.98682C91.6578 8.77726 90.5212 14.0453 91.2689 18.4024L91.4273 19.3241L75.1677 28.6819C66.2242 33.8289 57.9612 38.5779 56.8067 39.236C55.6509 39.894 54.6608 40.4814 54.6068 40.5437C54.5516 40.6048 54.2359 40.7894 53.9059 40.9536C53.1258 41.3432 50.9343 42.6089 50.8059 42.7456C50.7507 42.8043 50.3462 43.0405 49.9058 43.2718C47.982 44.2835 46.6822 45.0242 46.3894 45.2771C46.2153 45.4258 45.9681 45.548 45.8397 45.548C45.7113 45.548 45.6057 45.6175 45.6057 45.7015C45.6057 45.7854 45.2672 46.0083 44.8556 46.1989C44.4427 46.3883 43.7454 46.7634 43.305 47.0343C42.8645 47.304 42.2801 47.6505 42.0052 47.8027C41.7304 47.9549 41.1447 48.2881 40.7042 48.5422C40.265 48.7951 39.4093 49.2722 38.8044 49.6018C38.1995 49.9303 37.5695 50.2994 37.4038 50.4205C37.2394 50.5428 36.889 50.7633 36.6261 50.9108C35.306 51.6539 34.6507 52.0303 34.1034 52.3587C33.7734 52.5565 33.2789 52.8442 33.0041 52.9964C32.7293 53.1498 32.1784 53.4603 31.7811 53.688C31.3839 53.9145 30.8438 54.2214 30.581 54.37C30.3182 54.5175 29.9677 54.738 29.8033 54.8603C29.6377 54.9814 29.0076 55.3505 28.4027 55.6801C27.7978 56.0086 26.9889 56.4557 26.6037 56.6738L25.9052 57.0682L24.7039 56.0985C24.0426 55.5639 23.3873 55.0341 23.2469 54.919C23.1065 54.8051 22.3864 54.4396 21.6471 54.1075C20.9066 53.7743 20.1217 53.4207 19.9021 53.32C18.9756 52.8981 17.1561 52.65 15.0019 52.65C12.8464 52.65 11.027 52.8981 10.1005 53.32C9.88083 53.4207 9.09593 53.7743 8.35663 54.1075C7.61734 54.4396 6.89725 54.8064 6.75564 54.9226C6.61522 55.0389 5.98274 55.5447 5.35026 56.0457C2.18307 58.5569 0.256832 62.3794 0.0492065 66.5698C-0.051606 68.6111 0.224427 71.3692 0.602473 72.104C0.691284 72.2766 0.918111 72.8531 1.10533 73.3853C2.37149 76.9741 6.79165 80.9955 10.4929 81.9257L11.4026 82.1546L11.351 120.017L11.3006 157.881L10.5013 158.155C10.0608 158.306 9.41757 158.562 9.07072 158.724C8.72388 158.887 8.35063 159.02 8.24142 159.02C7.99899 159.02 5.07063 161.1 4.46096 161.704C2.97277 163.182 0.7993 166.69 0.7993 167.614C0.7993 167.788 0.720086 168.016 0.622874 168.12C0.336038 168.426 0 170.811 0 172.535C0 185.647 15.3031 192.335 25.2823 183.584L25.9244 183.02L36.5145 189.12C42.34 192.474 47.3759 195.375 47.7059 195.564C48.036 195.754 48.9193 196.262 49.6706 196.692C50.4207 197.124 51.1864 197.567 51.37 197.677C51.5548 197.788 52.3817 198.264 53.2062 198.736C54.0319 199.207 55.0208 199.782 55.4061 200.012C55.7913 200.242 56.6014 200.7 57.2063 201.03C57.8112 201.358 58.4413 201.728 58.6069 201.85C58.7713 201.971 59.1217 202.191 59.3846 202.34C60.7059 203.082 61.3612 203.458 61.9073 203.787C62.2373 203.985 62.733 204.272 63.0078 204.426C63.2827 204.578 63.8455 204.897 64.2572 205.135C64.67 205.373 65.3169 205.742 65.695 205.956C66.073 206.17 66.7247 206.555 67.1447 206.81C67.5648 207.065 68.1781 207.407 68.5081 207.57C68.8381 207.732 69.1526 207.909 69.2078 207.964C69.263 208.019 69.5786 208.199 69.9087 208.364C70.2387 208.529 70.5532 208.713 70.6084 208.776C70.714 208.893 72.165 209.725 73.5091 210.437C73.9484 210.671 74.354 210.907 74.4092 210.962C74.4645 211.017 74.7789 211.196 75.1089 211.361C75.439 211.525 75.7534 211.71 75.8086 211.772C75.9142 211.89 77.3652 212.722 78.7094 213.434C79.1498 213.667 79.5543 213.909 79.6095 213.973C79.6647 214.036 80.4292 214.494 81.3101 214.989C90.148 219.967 91.4501 220.791 91.3229 221.329C88.1905 234.54 102.747 244.884 114.2 237.583C119.379 234.282 122.289 226.982 120.643 221.425C120.469 220.84 120.502 220.776 121.186 220.405C123.684 219.046 124.347 218.673 124.615 218.475C124.958 218.221 125.461 217.932 127.015 217.093C127.62 216.766 128.25 216.399 128.416 216.277C128.58 216.156 128.931 215.935 129.194 215.786C130.57 215.012 131.171 214.666 131.716 214.335C132.046 214.134 132.586 213.833 132.917 213.665C133.247 213.498 133.877 213.134 134.316 212.856C134.756 212.579 135.251 212.295 135.416 212.225C135.581 212.156 135.851 211.989 136.016 211.855C136.181 211.721 136.901 211.307 137.616 210.937C138.332 210.565 138.962 210.216 139.017 210.162C139.072 210.107 139.319 209.95 139.567 209.812C139.815 209.675 140.219 209.45 140.467 209.313C140.715 209.176 141.052 208.964 141.217 208.842C141.382 208.719 142.012 208.349 142.617 208.017C143.633 207.46 146.905 205.593 148.318 204.766C148.648 204.572 149.863 203.872 151.018 203.208C152.174 202.545 160.538 197.731 169.606 192.512L186.094 183.023L187.108 183.87C196.754 191.926 211.244 185.878 211.964 173.495C212.275 168.162 209.827 162.969 205.722 160.251C204.407 159.381 204.149 159.229 203.624 159.015C203.35 158.904 202.945 158.725 202.724 158.62C202.505 158.513 201.965 158.313 201.524 158.173L200.725 157.92L200.675 120.029L200.623 82.139L201.275 82.0095C208.556 80.5652 213.787 70.9125 211.427 63.2784C208.929 55.2031 199.198 50.1868 192.123 53.3284C191.904 53.4267 191.071 53.7971 190.273 54.1519C189.476 54.5067 188.823 54.8675 188.823 54.9538C188.823 55.0401 188.642 55.1683 188.42 55.2391C188.198 55.3086 187.59 55.7581 187.07 56.2375L186.123 57.1089L185.322 56.6583C180.721 54.068 173.107 49.6258 173.054 49.5024C173.018 49.4149 172.914 49.3441 172.824 49.3441C172.68 49.3441 171.81 48.8719 169.471 47.5222C168.324 46.8605 167.344 46.3044 166.42 45.7913C165.925 45.5169 165.281 45.1249 164.989 44.9211C164.698 44.7162 164.359 44.5496 164.239 44.5496C164.119 44.5496 164.02 44.4812 164.02 44.3973C164.02 44.3134 163.682 44.0893 163.269 43.8999C162.858 43.7105 162.159 43.3341 161.72 43.0632C161.28 42.7935 160.695 42.4471 160.419 42.2949C159.698 41.8946 158.414 41.1538 157.719 40.7367C157.389 40.5377 156.894 40.2512 156.619 40.0978C156.345 39.9456 155.794 39.6339 155.396 39.4074C154.999 39.1796 154.459 38.8728 154.196 38.7254C153.933 38.5767 153.583 38.3562 153.419 38.2351C153.253 38.1128 152.624 37.7437 152.018 37.4152C151.413 37.0856 150.603 36.6277 150.218 36.3976C149.833 36.1675 148.844 35.5921 148.018 35.121C147.193 34.6488 146.362 34.1729 146.17 34.0626C145.979 33.9524 140.146 30.5914 133.208 26.5927L120.592 19.3241L120.753 18.2022C122.3 7.42638 114.035 -1.41601 103.912 0.188977ZM108.986 6.41833C115.303 8.58788 117.232 16.4666 112.656 21.4038C107.044 27.4581 96.8112 23.3755 96.8112 15.0833C96.8112 8.80483 103.038 4.37345 108.986 6.41833ZM95.8115 26.1804C95.8115 26.7521 100.214 29.1901 101.985 29.5977L103.012 29.835V50.6495V71.4639L100.762 71.4579C92.9539 71.4339 85.2958 74.9783 80.7844 80.7042C80.1339 81.5313 79.5243 82.3032 79.4319 82.4195C79.2362 82.6652 77.7216 85.3478 76.9679 86.7814C76.4651 87.7391 76.4219 87.7678 74.9817 88.1274C71.3729 89.0288 67.6584 90.7776 65.8102 92.4449C65.3133 92.8932 64.6076 93.0539 64.6076 92.7182C64.6076 92.6211 64.4504 92.4893 64.2572 92.4258C64.0651 92.3622 63.3679 91.987 62.7078 91.5927C62.0477 91.1971 61.3492 90.8244 61.1572 90.762C60.9652 90.7009 60.8067 90.5882 60.8067 90.5115C60.8067 90.4348 60.4923 90.249 60.1071 90.098C59.7218 89.947 59.4074 89.7504 59.4074 89.6617C59.4074 89.5718 59.3126 89.4987 59.1974 89.4987C59.0821 89.4987 58.5193 89.2002 57.9468 88.8358C57.3743 88.4714 56.6146 88.0459 56.257 87.8889C55.8993 87.7319 55.6065 87.5521 55.6065 87.4898C55.6065 87.4274 55.2909 87.2524 54.9068 87.1014C54.5216 86.9504 54.2059 86.7634 54.2059 86.6867C54.2059 86.6088 53.8687 86.3978 53.4558 86.2192C53.0442 86.0394 52.3013 85.6319 51.8056 85.3142C51.3112 84.9954 50.7939 84.7281 50.6559 84.7197C50.5179 84.7113 50.4063 84.625 50.4063 84.5291C50.4063 84.432 50.1134 84.2354 49.7558 84.0904C49.3981 83.9466 49.0609 83.768 49.0057 83.6936C48.9505 83.6205 48.3408 83.2561 47.6507 82.8834C46.9594 82.5118 46.0917 82.0275 45.7221 81.807C45.3524 81.5876 44.3431 81.0039 43.4778 80.5101C42.6125 80.0162 41.7496 79.5212 41.5588 79.4109C41.3691 79.3006 38.5104 77.6465 35.2076 75.7359C31.0731 73.3446 29.2584 72.1927 29.3844 72.0404C29.7709 71.5742 30.0613 68.4709 29.9089 66.4404C29.6377 62.8217 29.328 63.4366 32.2036 61.8723C32.8085 61.5439 33.4386 61.1747 33.6042 61.0525C33.7686 60.9314 34.119 60.7109 34.3819 60.5622C34.6435 60.4148 35.1836 60.1079 35.582 59.8802C35.9793 59.6536 36.5289 59.342 36.8038 59.1898C37.0798 59.0364 37.5743 58.7499 37.9043 58.5509C38.4504 58.2225 39.1057 57.8473 40.427 57.1041C40.6899 56.9567 41.0391 56.735 41.2047 56.6115C41.3691 56.4868 42.0892 56.0829 42.8045 55.7125C43.5198 55.3409 44.1499 54.9921 44.2051 54.9382C44.2603 54.8831 44.5195 54.7176 44.7824 54.569C45.0452 54.4216 45.5565 54.1339 45.9201 53.9313C46.2825 53.7276 46.9222 53.3512 47.3423 53.0959C47.7623 52.8406 48.3756 52.499 48.7056 52.3359C49.0357 52.1741 49.3501 51.9895 49.4053 51.926C49.4605 51.8625 50.2262 51.4046 51.1059 50.9096C51.9857 50.4145 54.2815 49.1008 56.2066 47.9909C96.6372 24.6773 95.8115 25.1315 95.8115 26.1804ZM130.216 33.2631C136.651 36.9693 142.412 40.2764 143.017 40.612C143.623 40.9464 144.461 41.4355 144.881 41.6968C145.301 41.9593 145.931 42.3333 146.281 42.5274C147.297 43.0932 149.601 44.4153 150.287 44.8288C150.634 45.0362 151.413 45.4761 152.018 45.8057C152.624 46.1342 153.253 46.5033 153.419 46.6256C153.583 46.7467 153.933 46.9672 154.196 47.1159C154.459 47.2633 154.999 47.5701 155.396 47.7979C155.794 48.0244 156.345 48.3361 156.619 48.4883C156.894 48.6417 157.389 48.9282 157.719 49.1272C158.266 49.4556 158.921 49.8308 160.241 50.5739C160.504 50.7214 160.855 50.9431 161.019 51.0666C161.185 51.1912 161.905 51.5952 162.62 51.9656C163.334 52.3371 163.964 52.6847 164.02 52.7399C164.12 52.8406 164.701 53.1846 165.621 53.6868C165.895 53.8366 166.48 54.1783 166.92 54.4468C167.361 54.7141 168.035 55.0868 168.421 55.275C168.806 55.462 169.166 55.6658 169.221 55.7269C169.276 55.788 169.591 55.9714 169.921 56.1368C170.251 56.3011 170.565 56.4892 170.62 56.5552C170.726 56.681 172.159 57.5009 173.521 58.2141C173.962 58.4454 174.366 58.6816 174.421 58.7391C174.55 58.8757 176.741 60.1427 177.521 60.5311C177.851 60.6965 178.167 60.8823 178.222 60.947C178.276 61.0105 179.252 61.5859 180.39 62.2259C182.327 63.3167 182.449 63.4222 182.331 63.9088C182.007 65.2405 181.988 69.443 182.3 70.9065C182.474 71.7228 182.595 72.4048 182.569 72.4216C182.544 72.4396 176.052 76.1758 168.146 80.7258C160.238 85.2759 153.533 89.1355 153.243 89.3021C152.955 89.4687 152.043 89.9889 151.219 90.4576C150.393 90.9263 149.583 91.3949 149.419 91.4992C149.253 91.6035 148.647 91.9571 148.07 92.2855L147.022 92.8824L146.899 92.3394C146.353 89.9122 146.25 89.6113 145.194 87.401C143.706 84.2822 138.55 78.7109 137.153 78.7109C137.087 78.7109 136.602 78.4592 136.075 78.1523C131.523 75.4985 124.193 75.1078 118.769 77.2306L117.543 77.71L116.699 77.0615C116.234 76.7055 115.688 76.3028 115.484 76.1674C115.28 76.0319 114.775 75.6963 114.36 75.4218C113.431 74.8057 111.236 73.6922 109.964 73.1911L109.014 72.8171V51.3123L109.013 29.8062L110.063 29.5629C112.015 29.1122 115.004 27.4281 116.369 26.0113L116.825 25.5391L117.67 26.0317C118.134 26.3026 123.78 29.5557 130.216 33.2631ZM17.5234 58.7547C23.0861 60.4699 25.7912 66.6046 23.2229 71.676C18.8795 80.2511 5.84352 77.2126 5.80512 67.615C5.78112 61.5319 11.7915 56.9867 17.5234 58.7547ZM199.095 58.6504C204.819 60.1247 207.764 66.1551 205.341 71.4411C201.753 79.267 189.969 78.0804 188.035 69.6983C186.5 63.0482 192.581 56.9735 199.095 58.6504ZM105.769 76.7859C108.184 77.4211 111.296 78.9542 113.359 80.5256L115.004 81.7794L113.156 83.6912C109.61 87.3591 108.721 89.965 111.019 89.965C111.735 89.965 111.716 89.9841 113.028 87.9632C120.891 75.8497 139.624 79.4313 142.318 93.5621C142.745 95.7963 142.734 95.8659 141.867 96.2099C137.801 97.8256 136.124 99.5565 137.543 100.671C138.255 101.23 138.383 101.208 139.741 100.285C150.043 93.2864 162.697 104.007 157.14 115.027C156.208 116.877 156.291 116.866 154.526 115.369C152.88 113.971 152.298 113.792 151.618 114.47C150.922 115.165 151.102 115.817 152.269 116.834C156.457 120.481 158.02 122.666 159.153 126.456C162.852 138.838 151.915 151.57 139.217 149.666L138.317 149.53L138.297 146.534C138.284 144.43 138.173 143.101 137.927 142.071C137.548 140.484 137.562 140.261 138.191 138.107C138.422 137.319 138.716 135.818 138.844 134.773L139.078 132.873L141.698 132.887C145.996 132.912 147.818 132.414 147.818 131.213C147.818 130.004 146.967 129.597 145.416 130.063C145.032 130.179 143.522 130.278 142.062 130.282C139.244 130.293 138.816 130.172 138.816 129.368C138.816 128.345 137.781 125.094 136.852 123.205C134.366 118.145 130.423 114.665 125.268 112.984C123.99 112.567 124.082 112.719 123.816 110.582C123.696 109.613 123.339 108.021 123.025 107.046L122.454 105.272L122.805 104.128C123.553 101.691 124.903 99.2556 126.689 97.1208C127.905 95.6693 127.432 93.9948 125.914 94.376C125.132 94.5713 122.948 97.4888 121.758 99.9269C120.526 102.451 120.77 102.366 119.43 100.746C115.919 96.4987 110.217 93.8881 104.406 93.8677C102.444 93.8605 102.4 93.851 102.13 93.3283C101.716 92.5241 101.222 90.7489 101.019 89.3357C100.805 87.8397 100.571 87.5005 99.7528 87.5005C98.1002 87.5005 98.003 90.0369 99.5067 93.9097C99.604 94.1626 99.1863 94.3772 97.4041 94.9861L95.1802 95.746L94.6462 95.3145C90.7109 92.1381 86.964 90.4983 82.8991 90.1723C80.668 89.9925 80.6944 90.0273 81.5009 88.348C85.9127 79.1532 96.1739 74.2639 105.769 76.7859ZM60.958 97.5727C60.9988 97.6147 60.6999 98.3087 60.2931 99.1154C58.9597 101.761 58.4113 104.036 58.4089 106.938C58.4065 108.473 58.398 108.501 57.786 108.836C51.6544 112.199 47.4095 119.653 47.4095 127.056C47.4095 131.593 49.2829 137.352 51.556 139.801C51.694 139.948 51.8056 140.14 51.8056 140.226C51.8056 140.487 54.5804 143.205 55.7349 144.076C56.3302 144.525 56.7922 144.914 56.7622 144.942C56.731 144.971 56.3818 145.174 55.9846 145.395C54.518 146.211 54.2995 146.338 54.0067 146.556C53.8411 146.678 53.211 147.046 52.6061 147.372C51.0519 148.211 50.5491 148.499 50.2058 148.754C50.0402 148.876 49.4101 149.245 48.8052 149.573C48.2004 149.903 47.3903 150.365 47.005 150.598C46.6198 150.833 46.0809 151.134 45.8049 151.266C45.53 151.398 45.17 151.611 45.0056 151.739C44.84 151.866 44.2099 152.24 43.605 152.57C42.0436 153.419 41.1435 153.933 40.2674 154.481C39.8473 154.743 39.0097 155.23 38.4048 155.564C37.7987 155.897 34.8295 157.6 31.804 159.346L26.3025 162.52L25.8032 161.971C25.1239 161.225 22.4284 159.293 21.6963 159.027C21.3698 158.908 20.9222 158.725 20.7026 158.62C20.4818 158.513 19.9417 158.313 19.5024 158.173L18.7019 157.92L18.6515 120.039L18.6011 82.1594L19.5516 81.8993C21.4755 81.3731 24.2562 79.6758 25.7048 78.1439L26.2437 77.5734L43.563 87.5353C53.0886 93.0155 60.916 97.532 60.958 97.5727ZM186.043 77.9917C186.5 78.5718 189.081 80.5088 189.398 80.5088C189.522 80.5088 189.624 80.5928 189.624 80.6946C189.624 80.7977 189.825 80.9428 190.074 81.0171C190.321 81.0914 190.794 81.2748 191.124 81.4234C191.454 81.5732 192.084 81.8106 192.523 81.952L193.324 82.2085L193.374 120.021C193.422 155.901 193.406 157.839 193.074 157.954C190.196 158.946 187.492 160.503 186.309 161.85L185.719 162.52L172.196 154.743L158.674 146.966L159.739 145.651C160.323 144.929 160.918 144.112 161.061 143.837C161.203 143.562 161.37 143.293 161.431 143.237C161.493 143.182 161.888 142.419 162.308 141.54C165.737 134.37 165.275 126.134 161.052 119.167L160.69 118.571L161.538 116.77C165.013 109.394 162.659 100.551 156.045 96.1404L154.866 95.354L165.594 89.187C171.494 85.7949 176.351 82.9493 176.388 82.863C176.424 82.7767 176.552 82.706 176.67 82.706C176.874 82.706 180.008 80.9524 180.222 80.7186C180.277 80.6575 180.637 80.4525 181.022 80.2607C181.407 80.0689 182.352 79.5487 183.122 79.104C183.893 78.6581 184.725 78.1943 184.973 78.0708C185.22 77.9486 185.423 77.7723 185.423 77.6801C185.423 77.3828 185.656 77.5002 186.043 77.9917ZM85.4098 92.8884C87.4152 93.4686 89.9608 94.6792 91.5294 95.7975C93.0092 96.8524 93.0211 96.8799 92.1738 97.3797C90.3208 98.4729 87.4704 101.728 87.7093 102.48C88.1857 103.981 89.2599 103.844 90.8261 102.083C92.9143 99.7363 96.5616 97.4373 99.4287 96.6582C109.572 93.9061 121.615 101.852 121.615 111.297V112.043L119.464 112.051C112.848 112.076 103.543 117.368 105.928 119.75C106.573 120.396 107.376 120.144 108.743 118.867C117.151 111.012 131.003 114.356 135.332 125.287C136.596 128.48 137.071 133.344 136.371 135.914L136.106 136.881L135.455 135.875C132.454 131.25 128.349 128.69 128.349 131.444C128.349 132.003 128.589 132.312 130.088 133.69C137.121 140.158 138.046 149.162 132.438 156.568C124.481 167.076 106.49 166.086 99.9124 154.778C98.5226 152.389 98.5202 152.388 96.1019 153.608C89.7915 156.794 82.6939 155.689 78.0997 150.804C71.0788 143.339 72.8466 131.066 81.6773 125.959C83.1919 125.083 83.4092 123.816 82.1418 123.238C81.4121 122.906 78.4849 124.588 76.9211 126.237C76.2311 126.965 75.9622 126.993 74.9013 126.452C70.2231 124.059 60.8067 124.512 60.8067 127.13C60.8067 128.476 61.432 128.652 63.8227 127.976C66.4282 127.239 69.4886 127.282 71.9081 128.088C73.7671 128.707 74.4452 129.069 74.2316 129.328C73.916 129.711 72.657 132.307 72.2166 133.482C71.32 135.875 70.9276 140.198 71.3897 142.587L71.5541 143.434L70.8316 143.634C67.5912 144.533 61.7753 142.833 58.1856 139.938C51.2116 134.312 50.1674 123.562 55.9173 116.599C58.4269 113.56 61.4284 111.861 65.8654 110.966C67.7028 110.595 68.2081 110.27 68.2081 109.46C68.2081 108.272 67.4004 108.067 64.6544 108.558L63.1998 108.818L63.0774 108.331C62.7558 107.052 63.4807 103.309 64.4048 101.48C66.8639 96.6114 71.3345 93.5884 77.8093 92.4162C79.1798 92.1681 83.948 92.4641 85.4098 92.8884ZM79.6203 110.806C77.4396 113.575 88.4474 117.455 91.9602 115.156C93.2156 114.335 92.1546 112.727 90.538 112.999C87.2184 113.557 84.5145 112.966 82.2498 111.189C80.8888 110.121 80.2348 110.025 79.6203 110.806ZM140.417 110.748C137.944 111.289 135.967 112.785 136.338 113.836C136.723 114.93 137.385 114.973 139.215 114.024C140.804 113.198 140.908 113.173 142.824 113.156C145.278 113.134 145.924 112.702 145.433 111.412C145.091 110.514 142.849 110.217 140.417 110.748ZM99.0759 117.125C96.3816 118.625 94.4937 125.984 95.521 130.98C95.6423 131.57 95.6051 131.621 94.8814 131.856C90.1288 133.394 84.8181 138.651 86.4107 140.241C87.1548 140.984 87.6817 140.767 88.9766 139.184C90.7385 137.031 92.5687 135.645 94.9966 134.626C96.594 133.956 96.768 133.993 97.3537 135.132C99.6952 139.687 105.965 142.969 111.513 142.547C112.503 142.472 113.539 142.394 113.814 142.374C114.469 142.328 115.154 144.269 115.459 147.034C115.688 149.118 115.96 149.631 116.831 149.631C118.428 149.631 118.578 146.621 117.183 142.594C116.947 141.914 116.84 141.332 116.945 141.297C119.512 140.442 123.404 136.547 122.806 135.432C122.221 134.338 121.373 134.559 119.594 136.272C116.257 139.486 112.257 140.642 107.856 139.668C98.8791 137.681 94.7974 127.226 100.114 119.834C101.389 118.064 100.685 116.228 99.0759 117.125ZM65.4081 148.247C66.013 148.347 67.4676 148.43 68.6401 148.431L70.7716 148.432L71.4941 149.744C76.0522 158.027 86.0387 162.141 94.7182 159.311C96.2472 158.813 97.0116 158.699 97.0128 158.97C97.0152 159.537 100.394 162.898 102.163 164.093L103.012 164.668V187.489V210.311L102.243 210.433C101.558 210.544 100.03 211.125 98.615 211.817C98.3414 211.951 97.4317 212.61 96.5928 213.281L95.0686 214.503L86.7276 209.685C82.1406 207.036 78.2341 204.778 78.0469 204.668C77.8597 204.559 76.9872 204.073 76.1074 203.59C75.2277 203.107 74.4645 202.658 74.4092 202.592C74.354 202.525 73.9484 202.28 73.5091 202.049C73.0687 201.816 72.1686 201.315 71.5085 200.935C70.8484 200.557 70.0839 200.117 69.8079 199.96C69.533 199.803 69.263 199.629 69.2078 199.574C69.1526 199.519 68.8381 199.342 68.5081 199.182C68.1781 199.021 67.6836 198.742 67.4076 198.561C67.1327 198.381 66.4955 198.006 65.9926 197.728C64.4084 196.855 64.1108 196.68 64.0075 196.567C63.9523 196.506 63.5923 196.3 63.207 196.11C62.8218 195.918 62.2373 195.598 61.9073 195.399C61.3624 195.069 60.7347 194.708 59.3846 193.95C59.1217 193.801 58.8613 193.628 58.8073 193.565C58.7521 193.501 58.122 193.132 57.4067 192.746C56.6914 192.36 55.7913 191.854 55.4061 191.623C55.0208 191.392 54.0319 190.816 53.2062 190.345C52.3817 189.873 51.55 189.397 51.3592 189.287C51.1683 189.177 49.2781 188.083 47.1587 186.858C45.0392 185.633 42.9365 184.419 42.4853 184.161C42.0352 183.904 38.9436 182.124 35.6168 180.208L29.5693 176.725L29.6797 176.113C30.1357 173.593 29.9425 168.442 29.3784 168.094C29.0472 167.89 29.2044 167.684 29.9029 167.41C30.2882 167.259 30.6038 167.074 30.6038 166.997C30.6038 166.92 30.761 166.805 30.953 166.742C31.1463 166.678 31.8436 166.303 32.5036 165.909C33.1637 165.513 33.861 165.14 34.0542 165.078C34.2463 165.017 34.4035 164.904 34.4035 164.827C34.4035 164.751 34.7191 164.565 35.1044 164.414C35.4884 164.263 35.804 164.066 35.804 163.978C35.804 163.888 35.8869 163.815 35.9877 163.815C36.0885 163.815 36.8566 163.409 37.6931 162.916C38.5308 162.422 39.3037 162.017 39.4105 162.017C39.5173 162.017 39.6049 161.949 39.6061 161.867C39.6073 161.784 39.8089 161.619 40.0562 161.499C40.5638 161.251 44.3455 159.125 44.8052 158.829C44.9696 158.723 46.5898 157.778 48.4056 156.729C50.2202 155.679 54.4064 153.257 57.7068 151.345C61.0072 149.432 63.8419 147.912 64.0075 147.966C64.172 148.02 64.8021 148.146 65.4081 148.247ZM154.712 151.628C155.101 151.848 155.757 152.221 156.169 152.457C156.581 152.692 157.414 153.155 158.019 153.483C158.625 153.813 159.254 154.181 159.419 154.303C159.763 154.557 160.265 154.846 161.82 155.685C162.425 156.011 163.055 156.379 163.22 156.5C163.385 156.623 163.735 156.843 163.998 156.991C164.26 157.139 164.8 157.446 165.198 157.673C165.595 157.9 166.145 158.211 166.42 158.364C166.696 158.517 167.19 158.804 167.52 159.002C168.066 159.33 168.722 159.707 170.043 160.45C170.306 160.597 170.655 160.818 170.821 160.94C170.985 161.061 171.615 161.43 172.221 161.76C172.826 162.088 173.605 162.528 173.952 162.737C174.534 163.087 176.499 164.217 177.922 165.022C178.252 165.209 179.222 165.778 180.078 166.286C180.933 166.794 181.699 167.214 181.778 167.217C182.49 167.249 182.616 167.736 182.299 169.228C182.012 170.576 182.003 173.184 182.274 176.244C182.319 176.757 169.869 184.15 151.118 194.743C150.238 195.241 149.474 195.7 149.419 195.763C149.363 195.827 149.048 196.012 148.718 196.175C148.388 196.338 147.443 196.867 146.617 197.349C144.382 198.658 143.825 198.976 142.617 199.631C142.012 199.961 141.382 200.329 141.217 200.451C141.052 200.573 140.702 200.794 140.439 200.941C140.177 201.089 139.637 201.396 139.239 201.623C138.842 201.851 138.292 202.161 138.017 202.314C137.742 202.466 137.157 202.814 136.716 203.084C136.277 203.355 135.737 203.663 135.516 203.769C135.296 203.876 134.756 204.186 134.316 204.459C133.877 204.733 133.247 205.093 132.917 205.261C132.586 205.429 132.024 205.745 131.666 205.966C131.308 206.187 130.724 206.546 130.366 206.767C130.009 206.987 129.446 207.305 129.116 207.471C128.786 207.639 128.246 207.941 127.915 208.142C127.372 208.474 126.771 208.819 125.393 209.594C125.13 209.742 124.779 209.962 124.615 210.085C124.449 210.206 123.821 210.575 123.214 210.903C121.653 211.753 120.754 212.267 119.878 212.815C119.458 213.076 118.602 213.57 117.977 213.911L116.841 214.529L116.377 214.078C114.83 212.573 111.979 210.978 110.04 210.53L109.013 210.293V188.928V167.564L109.563 167.698C118.985 170.001 127.893 167.862 134.001 161.83C136.315 159.544 137.31 158.21 138.602 155.654L139.222 154.426H141.78C145.51 154.426 148.962 153.62 152.018 152.039C153.797 151.119 153.809 151.116 154.712 151.628ZM17.8018 163.762C24.3246 165.883 26.3445 174.098 21.5259 178.91C14.2014 186.226 2.29348 177.86 6.72443 168.513C8.63627 164.481 13.5425 162.376 17.8018 163.762ZM199.994 163.831C206.502 166.06 208.307 174.607 203.248 179.235C197.223 184.744 187.823 180.528 187.823 172.317C187.823 166.223 194.133 161.825 199.994 163.831ZM109.013 216.278C118.709 220.105 116.309 234.135 105.958 234.135C96.588 234.135 93.3512 221.618 101.515 216.953C103.658 215.728 106.884 215.438 109.013 216.278Z" fill="#143C4C"/>
<path fill-rule="evenodd" clip-rule="evenodd" d="M105.663 24.3098C105.856 24.3602 106.171 24.3602 106.364 24.3098C106.556 24.2595 106.399 24.2188 106.014 24.2188C105.628 24.2188 105.471 24.2595 105.663 24.3098ZM14.6522 58.4712C14.8442 58.5215 15.1599 58.5215 15.3519 58.4712C15.5451 58.4208 15.3867 58.3801 15.0027 58.3801C14.6174 58.3801 14.4602 58.4208 14.6522 58.4712ZM196.675 58.4712C196.867 58.5215 197.183 58.5215 197.375 58.4712C197.567 58.4208 197.41 58.3801 197.024 58.3801C196.639 58.3801 196.482 58.4208 196.675 58.4712ZM63.059 107.378C63.0614 107.817 63.1022 107.974 63.1502 107.725C63.197 107.476 63.1958 107.117 63.1454 106.926C63.095 106.735 63.0566 106.938 63.059 107.378ZM95.0766 127.055C95.0766 127.77 95.1126 128.062 95.157 127.705C95.2014 127.348 95.2014 126.764 95.157 126.407C95.1126 126.049 95.0766 126.341 95.0766 127.055ZM71.0688 139.641C71.0688 140.246 71.1072 140.493 71.1528 140.191C71.1984 139.889 71.1984 139.394 71.1528 139.092C71.1072 138.79 71.0688 139.037 71.0688 139.641ZM116.367 163.955C116.616 164.003 116.976 164.001 117.168 163.952C117.359 163.901 117.155 163.862 116.715 163.864C116.275 163.867 116.119 163.907 116.367 163.955Z" fill="#754872"/>
<path fill-rule="evenodd" clip-rule="evenodd" d="M99.4999 8.6399L98.9118 9.28836L99.5623 8.70223C100.168 8.15565 100.304 7.99023 100.15 7.99023C100.116 7.99023 99.8228 8.2827 99.4999 8.6399ZM112.302 21.6248L111.714 22.2745L112.364 21.6871C112.97 21.1405 113.106 20.9751 112.951 20.9751C112.916 20.9751 112.625 21.2676 112.302 21.6248ZM206.08 67.5232C206.08 68.0171 206.119 68.2196 206.167 67.9727C206.215 67.7246 206.215 67.3207 206.167 67.0737C206.119 66.8256 206.08 67.0282 206.08 67.5232ZM100.363 76.2541C100.61 76.3021 101.015 76.3021 101.263 76.2541C101.51 76.2062 101.307 76.1678 100.813 76.1678C100.317 76.1678 100.114 76.2062 100.363 76.2541ZM126.065 80.6508C126.368 80.6975 126.863 80.6975 127.166 80.6508C127.468 80.6052 127.221 80.5681 126.616 80.5681C126.01 80.5681 125.763 80.6052 126.065 80.6508ZM85.8002 82.2557L85.1101 83.0049L85.8602 82.3169C86.5587 81.6756 86.7027 81.5066 86.5503 81.5066C86.5167 81.5066 86.1795 81.8446 85.8002 82.2557ZM137.417 84.9659C137.417 85.0006 137.709 85.2919 138.067 85.6143L138.717 86.2017L138.129 85.552C137.582 84.9467 137.417 84.8112 137.417 84.9659ZM79.2594 92.4322C79.4526 92.4826 79.7671 92.4826 79.9603 92.4322C80.1523 92.3819 79.9951 92.3411 79.6098 92.3411C79.2246 92.3411 79.0674 92.3819 79.2594 92.4322ZM81.2601 92.4322C81.4521 92.4826 81.7677 92.4826 81.9597 92.4322C82.153 92.3819 81.9946 92.3411 81.6105 92.3411C81.2253 92.3411 81.068 92.3819 81.2601 92.4322ZM103.358 96.2343C103.714 96.2787 104.344 96.2799 104.759 96.2367C105.173 96.1936 104.883 96.1564 104.113 96.1564C103.343 96.1552 103.003 96.19 103.358 96.2343ZM67.2987 97.5384L66.5078 98.3883L67.3587 97.5984C68.1484 96.8636 68.3008 96.6898 68.1484 96.6898C68.116 96.6898 67.7344 97.0722 67.2987 97.5384ZM146.269 98.0263C146.461 98.0766 146.776 98.0766 146.968 98.0263C147.16 97.976 147.003 97.9352 146.618 97.9352C146.233 97.9352 146.075 97.976 146.269 98.0263ZM118.414 99.5869C118.788 99.9705 119.138 100.286 119.193 100.286C119.248 100.286 118.988 99.9705 118.615 99.5869C118.241 99.2022 117.891 98.8869 117.836 98.8869C117.781 98.8869 118.041 99.2022 118.414 99.5869ZM142.37 113.213C142.619 113.26 142.979 113.259 143.17 113.208C143.362 113.158 143.158 113.12 142.717 113.122C142.278 113.124 142.121 113.165 142.37 113.213ZM108.301 119.314L107.714 119.964L108.363 119.377C108.969 118.83 109.106 118.665 108.951 118.665C108.916 118.665 108.623 118.957 108.301 119.314ZM130.817 118.927C130.817 118.962 131.108 119.254 131.466 119.577L132.116 120.163L131.528 119.514C130.981 118.909 130.817 118.772 130.817 118.927ZM141.168 149.771C141.415 149.818 141.82 149.818 142.068 149.771C142.315 149.724 142.112 149.684 141.618 149.684C141.122 149.684 140.919 149.724 141.168 149.771ZM87.4612 155.361C87.6533 155.411 87.9689 155.411 88.1609 155.361C88.3529 155.311 88.1957 155.27 87.8105 155.27C87.4252 155.27 87.268 155.311 87.4612 155.361ZM89.6611 155.361C89.8531 155.411 90.1687 155.411 90.3608 155.361C90.554 155.311 90.3956 155.27 90.0115 155.27C89.6263 155.27 89.4691 155.311 89.6611 155.361ZM206.08 172.603C206.08 173.098 206.119 173.301 206.167 173.053C206.215 172.806 206.215 172.402 206.167 172.154C206.119 171.907 206.08 172.11 206.08 172.603Z" fill="#A34E83"/>
<path fill-rule="evenodd" clip-rule="evenodd" d="M105.661 5.93018C105.854 5.97933 106.168 5.97933 106.362 5.93018C106.554 5.87984 106.396 5.83789 106.011 5.83789C105.626 5.83789 105.469 5.87984 105.661 5.93018ZM103.061 93.8303C103.253 93.8806 103.569 93.8806 103.761 93.8303C103.953 93.7799 103.796 93.7392 103.41 93.7392C103.025 93.7392 102.868 93.7799 103.061 93.8303ZM104.763 93.8339C105.013 93.8818 105.373 93.8794 105.564 93.8303C105.754 93.7799 105.552 93.7404 105.111 93.7428C104.671 93.7452 104.515 93.7859 104.763 93.8339ZM118.366 112.014C118.614 112.06 118.974 112.059 119.165 112.009C119.357 111.959 119.153 111.92 118.712 111.923C118.273 111.925 118.116 111.966 118.366 112.014ZM120.265 112.015C120.57 112.062 121.02 112.06 121.266 112.012C121.512 111.965 121.263 111.927 120.713 111.929C120.163 111.931 119.962 111.969 120.265 112.015ZM132.615 117.328C132.615 117.363 132.907 117.654 133.264 117.977L133.915 118.564L133.327 117.915C132.779 117.309 132.615 117.174 132.615 117.328ZM67.16 124.802C67.52 124.846 68.0601 124.845 68.3601 124.8C68.6602 124.754 68.3661 124.718 67.706 124.719C67.046 124.72 66.7999 124.758 67.16 124.802ZM136.665 132.349C136.668 132.789 136.709 132.944 136.757 132.696C136.805 132.447 136.802 132.087 136.753 131.897C136.703 131.706 136.663 131.909 136.665 132.349ZM119.602 136.194L118.913 136.943L119.663 136.255C120.076 135.876 120.413 135.539 120.413 135.506C120.413 135.354 120.244 135.497 119.602 136.194ZM67.9569 143.783C68.4237 143.824 69.1894 143.824 69.6563 143.783C70.1243 143.741 69.7415 143.706 68.8066 143.706C67.8717 143.706 67.4888 143.741 67.9569 143.783ZM136.062 146.433C136.062 146.817 136.103 146.975 136.153 146.783C136.203 146.59 136.203 146.276 136.153 146.083C136.103 145.891 136.062 146.048 136.062 146.433ZM138.262 146.832C138.262 147.217 138.302 147.374 138.353 147.182C138.403 146.99 138.403 146.675 138.353 146.483C138.302 146.29 138.262 146.447 138.262 146.832ZM130.902 158.269L130.314 158.919L130.965 158.332C131.571 157.785 131.706 157.62 131.552 157.62C131.517 157.62 131.225 157.912 130.902 158.269Z" fill="#4C4464"/>
</svg>
