<svg width="69" height="69" viewBox="0 0 69 69" fill="none" xmlns="http://www.w3.org/2000/svg">
<path d="M34.5 0.375C27.7507 0.375 21.153 2.3764 15.5412 6.1261C9.92936 9.8758 5.55547 15.2054 2.97263 21.4409C0.389786 27.6765 -0.286003 34.5379 1.03072 41.1575C2.34744 47.7771 5.59753 53.8576 10.37 58.63C15.1425 63.4025 21.223 66.6526 27.8426 67.9693C34.4622 69.286 41.3236 68.6102 47.5591 66.0274C53.7946 63.4446 59.1242 59.0707 62.8739 53.4588C66.6236 47.847 68.625 41.2493 68.625 34.5C68.625 25.4495 65.0297 16.7697 58.63 10.37C52.2304 3.9703 43.5505 0.375 34.5 0.375ZM50.5956 27.6466L34.5 43.7138C32.9004 45.3114 30.7321 46.2087 28.4713 46.2087C26.2105 46.2087 24.0421 45.3114 22.4425 43.7138L18.4044 39.7041C18.1392 39.4389 17.9289 39.1241 17.7854 38.7777C17.6419 38.4313 17.5681 38.06 17.5681 37.685C17.5681 37.31 17.6419 36.9387 17.7854 36.5923C17.9289 36.2459 18.1392 35.9311 18.4044 35.6659C18.6695 35.4008 18.9843 35.1905 19.3307 35.047C19.6772 34.9035 20.0485 34.8296 20.4235 34.8296C20.7984 34.8296 21.1697 34.9035 21.5162 35.047C21.8626 35.1905 22.1774 35.4008 22.4425 35.6659L26.4522 39.7041C26.7166 39.9706 27.0311 40.1822 27.3776 40.3265C27.7242 40.4709 28.0959 40.5452 28.4713 40.5452C28.8467 40.5452 29.2184 40.4709 29.5649 40.3265C29.9114 40.1822 30.226 39.9706 30.4903 39.7041L46.5575 23.6084C46.8227 23.3433 47.1374 23.133 47.4839 22.9895C47.8303 22.846 48.2016 22.7721 48.5766 22.7721C48.9516 22.7721 49.3229 22.846 49.6693 22.9895C50.0157 23.133 50.3305 23.3433 50.5956 23.6084C50.8608 23.8736 51.0711 24.1884 51.2146 24.5348C51.3581 24.8812 51.432 25.2525 51.432 25.6275C51.432 26.0025 51.3581 26.3738 51.2146 26.7202C51.0711 27.0666 50.8608 27.3814 50.5956 27.6466Z" fill="#FF5CAA"/>
</svg>
