<svg width="42" height="42" viewBox="0 0 42 42" fill="none" xmlns="http://www.w3.org/2000/svg">
<g clip-path="url(#clip0_33255_22797)">
<path d="M3.5 38.5C3.5 34.787 4.975 31.226 7.60051 28.6005C10.226 25.975 13.787 24.5 17.5 24.5C21.213 24.5 24.774 25.975 27.3995 28.6005C30.025 31.226 31.5 34.787 31.5 38.5H28C28 35.7152 26.8938 33.0445 24.9246 31.0754C22.9555 29.1062 20.2848 28 17.5 28C14.7152 28 12.0445 29.1062 10.0754 31.0754C8.10625 33.0445 7 35.7152 7 38.5H3.5ZM17.5 22.75C11.6987 22.75 7 18.0513 7 12.25C7 6.44875 11.6987 1.75 17.5 1.75C23.3013 1.75 28 6.44875 28 12.25C28 18.0513 23.3013 22.75 17.5 22.75ZM17.5 19.25C21.3675 19.25 24.5 16.1175 24.5 12.25C24.5 8.3825 21.3675 5.25 17.5 5.25C13.6325 5.25 10.5 8.3825 10.5 12.25C10.5 16.1175 13.6325 19.25 17.5 19.25ZM31.997 25.7302C34.4563 26.8379 36.5435 28.6322 38.0075 30.8975C39.4716 33.1628 40.2503 35.8027 40.25 38.5H36.75C36.7504 36.477 36.1665 34.4969 35.0684 32.7978C33.9703 31.0987 32.4049 29.7529 30.5602 28.9223L31.997 25.7302ZM30.793 5.97275C32.5562 6.69952 34.0637 7.93369 35.1243 9.51865C36.1849 11.1036 36.7507 12.9679 36.75 14.875C36.7507 17.2766 35.8535 19.5916 34.2344 21.3654C32.6154 23.1392 30.3917 24.2436 28 24.4615V20.9388C29.2966 20.753 30.4996 20.1565 31.4323 19.2368C32.365 18.3171 32.9782 17.1226 33.182 15.8286C33.3858 14.5347 33.1695 13.2095 32.5647 12.0476C31.9599 10.8857 30.9985 9.94831 29.8218 9.373L30.793 5.97275Z" fill="#FF5CAA"/>
</g>
<defs>
<clipPath id="clip0_33255_22797">
<rect width="42" height="42" fill="white"/>
</clipPath>
</defs>
</svg>
