<svg width="24" height="24" viewBox="0 0 24 24" fill="none" xmlns="http://www.w3.org/2000/svg">
<path d="M22.5774 13.7676C22.5774 14.2131 22.4958 14.6392 22.3463 15.032C21.8349 16.3738 20.5355 17.3268 19.0128 17.3268C17.4543 17.3268 16.1301 16.3284 15.6452 14.9371C12.7663 15.1437 11.1201 13.8588 10.4356 11.4099C8.70651 10.9403 7.43555 9.36165 7.43555 7.48615C7.43555 6.2732 7.96748 5.18404 8.81111 4.43951C9.52897 3.8049 10.4731 3.41992 11.5074 3.41992C12.6924 3.41992 13.7594 3.92511 14.5026 4.73265C15.0025 4.40624 15.5998 4.21704 16.2414 4.21704C16.6892 4.21704 17.116 4.30955 17.5027 4.47636C18.6218 4.95867 19.4086 6.06342 19.4261 7.35384C19.4267 7.36895 19.4267 7.38343 19.4267 7.39859L19.4261 7.45238V7.45301C19.5888 7.4173 19.7576 7.39859 19.9314 7.39859C20.7073 7.39859 21.3967 7.76967 21.8312 8.34384H21.8318C22.1332 8.74216 22.3118 9.23834 22.3118 9.77622C22.3128 10.3341 22.116 10.8743 21.7561 11.3011C21.7291 11.334 21.701 11.366 21.6719 11.3972C22.2355 12.0263 22.5774 12.8573 22.5774 13.7676Z" fill="white"/>
<path d="M16.2025 7.19886C15.5576 7.89879 15.1637 8.83306 15.1637 9.85929C15.1637 12.0296 16.9256 13.7891 19.099 13.7891C19.3794 13.7893 19.659 13.7596 19.9332 13.7006M11.3359 5.93033C11.4344 7.34966 12.6186 8.47055 14.0649 8.47055M18.4152 7.94348C18.7077 7.70078 19.0547 7.53241 19.4265 7.4528M14.5031 4.73242C14.0449 5.03033 13.6685 5.44318 13.4149 5.93033" stroke="#4A5568" stroke-width="0.926271" stroke-miterlimit="10" stroke-linecap="round" stroke-linejoin="round"/>
<path d="M22.5774 13.7676C22.5774 15.7336 20.9815 17.3268 19.0128 17.3268C17.4543 17.3268 16.1301 16.3284 15.6452 14.9371C12.7663 15.1438 11.1201 13.8588 10.4356 11.4098C8.70651 10.9403 7.43555 9.36163 7.43555 7.48618C7.43555 5.24033 9.25841 3.41992 11.5074 3.41992C12.6924 3.41992 13.7594 3.92511 14.5026 4.73265C15.0025 4.40623 15.5998 4.21703 16.2414 4.21703C18.0007 4.21703 19.4267 5.64163 19.4267 7.39857L19.4261 7.45242V7.45299C19.5888 7.41729 19.7576 7.39857 19.9314 7.39857C21.2459 7.39857 22.3118 8.46285 22.3118 9.77621C22.3118 10.403 22.069 10.9723 21.6719 11.3971C22.2355 12.0263 22.5774 12.8573 22.5774 13.7676Z" stroke="#4A5568" stroke-width="0.810433" stroke-miterlimit="10" stroke-linejoin="round"/>
<path d="M21.6728 11.3969C21.6728 11.3969 21.3964 11.1105 21.0184 10.8125M11.0433 17.8518C10.8873 17.5263 10.7875 17.1768 10.748 16.8182" stroke="#4A5568" stroke-width="0.926271" stroke-miterlimit="10" stroke-linecap="round" stroke-linejoin="round"/>
<path d="M18.0323 15.3776C18.1583 15.7268 18.2226 16.0951 18.2223 16.4662C18.2223 18.3749 16.5446 19.9214 14.4748 19.9214C12.94 19.9214 11.6211 19.071 11.0426 17.8532C10.5657 18.1766 9.9937 18.3652 9.37944 18.3652C8.00199 18.3652 6.83995 17.4187 6.47562 16.1241C6.21553 16.1889 5.94846 16.2215 5.68039 16.2214C3.88107 16.2214 2.42188 14.7647 2.42188 12.9673C2.42188 11.5869 3.28308 10.4072 4.49834 9.93514C4.45055 9.73755 4.42514 9.53264 4.42514 9.32235C4.42514 7.69232 5.94184 6.37109 7.81313 6.37109C8.88743 6.37109 9.84596 6.80739 10.4663 7.48673C10.9639 7.2202 11.5377 7.06735 12.1489 7.06735C14.0451 7.06735 15.5823 8.53543 15.5823 10.3461C15.5825 10.3888 15.5814 10.4315 15.5792 10.4742C17.1438 10.7607 18.333 12.1956 18.333 13.9229C18.333 14.442 18.2259 14.9346 18.0323 15.3776Z" fill="white"/>
<path d="M16.8141 13.7664C17.3726 14.1786 17.8 14.7359 18.03 15.3753M6.47332 16.1217C6.39585 15.8473 6.35471 15.5578 6.35471 15.258C6.35471 14.0347 7.04403 12.9765 8.04511 12.4706M5.34464 9.72851C5.0481 9.75872 4.76363 9.82824 4.49609 9.93279M10.4648 7.48495L10.4641 7.48438M10.4641 7.48438C10.0387 7.71406 9.66955 8.02718 9.38085 8.40072" stroke="#4A5568" stroke-width="0.926271" stroke-miterlimit="10" stroke-linecap="round" stroke-linejoin="round"/>
<path d="M18.0323 15.3776C18.1583 15.7268 18.2226 16.0951 18.2223 16.4662C18.2223 18.3749 16.5446 19.9214 14.4748 19.9214C12.94 19.9214 11.6211 19.071 11.0426 17.8532C10.5657 18.1766 9.9937 18.3652 9.37944 18.3652C8.00199 18.3652 6.83996 17.4187 6.47562 16.1241C6.21553 16.1889 5.94846 16.2215 5.68039 16.2214C3.88107 16.2214 2.42188 14.7647 2.42188 12.9673C2.42188 11.5869 3.28308 10.4072 4.49834 9.93514C4.45055 9.73755 4.42514 9.53264 4.42514 9.32235C4.42514 7.69232 5.94184 6.37109 7.81313 6.37109C8.88744 6.37109 9.84596 6.80739 10.4663 7.48673C10.9639 7.2202 11.5377 7.06735 12.1489 7.06735C14.0451 7.06735 15.5823 8.53543 15.5823 10.3461C15.5825 10.3888 15.5814 10.4315 15.5792 10.4742C17.1438 10.7607 18.333 12.1956 18.333 13.9229C18.333 14.442 18.2259 14.9346 18.0323 15.3776Z" stroke="#4A5568" stroke-width="0.810433" stroke-miterlimit="10" stroke-linejoin="round"/>
<path d="M12.6478 11.4475C13.2506 10.8141 14.0827 10.4219 15.0014 10.4219C15.1975 10.4219 15.3894 10.4394 15.5764 10.4738M15.3608 14.5907C14.8859 15.1838 14.1552 15.5637 13.3357 15.5637C11.9044 15.5637 10.7441 14.4049 10.7441 12.9757C10.7433 12.3789 10.9497 11.8003 11.3285 11.3386" stroke="#4A5568" stroke-width="0.926271" stroke-miterlimit="10" stroke-linecap="round" stroke-linejoin="round"/>
<path d="M14.4835 16.8463C14.4835 16.338 14.3552 15.86 14.1288 15.4423M9.06744 15.1934C9.49472 14.5612 10.1599 14.1036 10.9352 13.9483M4.44727 12.9703C4.77554 12.8404 5.12546 12.7739 5.47856 12.774C6.04471 12.7732 6.59764 12.9448 7.06355 13.266M9.77532 10.5885C9.59895 10.6403 9.41228 10.6681 9.21913 10.6681C8.70639 10.6688 8.21377 10.4689 7.84681 10.1113M18.2807 10.4623C18.5519 10.2601 18.8815 10.1512 19.2199 10.1517C19.314 10.1517 19.4079 10.16 19.5004 10.1766" stroke="#4A5568" stroke-width="0.926271" stroke-miterlimit="10" stroke-linecap="round" stroke-linejoin="round"/>
<path d="M21.95 11.3991C22.3204 10.9401 22.5225 10.371 22.5225 9.77682C22.5225 8.34914 21.3596 7.18761 19.9303 7.18761C19.8304 7.18761 19.7307 7.19341 19.6319 7.20483C19.5307 5.42394 18.0481 4.00614 16.2402 4.00614C15.6374 4.00614 15.0519 4.16375 14.536 4.46347C13.7321 3.6613 12.6426 3.21018 11.5062 3.20898C9.60153 3.20898 7.984 4.45712 7.4287 6.17709C5.62337 6.34575 4.21219 7.69155 4.21219 9.32173C4.21219 9.48399 4.2264 9.6465 4.25441 9.80677C3.00588 10.3656 2.20898 11.5871 2.20898 12.9668C2.20898 14.8777 3.76577 16.4323 5.67929 16.4323C5.8978 16.4324 6.11584 16.412 6.33055 16.3715C6.78475 17.6791 8.01097 18.5761 9.37838 18.5761C9.9332 18.5765 10.4784 18.4308 10.9589 18.1537C11.6354 19.3631 12.9886 20.1324 14.4736 20.1324C16.2816 20.1324 17.8094 19.0037 18.2815 17.4675C18.5189 17.5143 18.7631 17.5389 19.0116 17.5389C21.0939 17.5389 22.7881 15.8473 22.7881 13.7682C22.7881 12.902 22.4918 12.0678 21.95 11.3991Z" stroke="#4A5568" stroke-width="1.62095" stroke-miterlimit="10" stroke-linejoin="round"/>
<path d="M11.5077 2C10.3889 2 9.3126 2.33271 8.39537 2.96211C7.60338 3.50556 6.97558 4.23857 6.5609 5.09928C4.54229 5.5878 3.09908 7.20998 3.00784 9.1282C1.75844 9.99452 1 11.4249 1 12.9666C1 15.517 3.05614 17.5968 5.59982 17.6402C6.40304 18.9581 7.83485 19.7847 9.37983 19.7847C9.77449 19.7847 10.1623 19.7325 10.5386 19.6289C11.5123 20.7103 12.9428 21.3409 14.4751 21.3409C15.5131 21.3409 16.5185 21.0471 17.3827 20.4912C18.0849 20.0395 18.6507 19.4433 19.0423 18.7474C21.7788 18.7317 24 16.504 24 13.768C24 12.9226 23.7882 12.1024 23.3838 11.369C23.615 10.8699 23.7346 10.3266 23.7344 9.7766C23.7344 8.78059 23.35 7.83873 22.6519 7.12467C22.1014 6.56151 21.4046 6.18949 20.6463 6.04552C20.39 5.2146 19.8991 4.46595 19.2284 3.89534C18.3949 3.18686 17.3363 2.79756 16.2418 2.79706C15.7316 2.79706 15.2196 2.88351 14.7372 3.04914C13.8 2.36966 12.6706 2 11.5077 2ZM11.5077 2.78569C12.6421 2.78569 13.7546 3.20639 14.6068 3.94915C15.1179 3.70781 15.6763 3.58271 16.2417 3.58285C18.1249 3.58285 19.7062 4.95051 20.01 6.76535C21.6367 6.80701 22.9475 8.14186 22.9475 9.77665C22.947 10.3495 22.7833 10.9103 22.4757 11.3938C22.9532 12.0886 23.2131 12.9199 23.2131 13.7681C23.2131 16.0806 21.3289 17.9619 19.0129 17.9619C18.8632 17.9619 18.7128 17.9538 18.5632 17.9376C17.9168 19.4957 16.288 20.5553 14.475 20.5553C12.9799 20.5553 11.6098 19.855 10.8059 18.7038C10.3557 18.8983 9.87036 18.9988 9.37983 18.999C7.95053 18.999 6.65782 18.1432 6.06254 16.8367C5.93572 16.8491 5.80812 16.8552 5.68076 16.8552C3.53365 16.8552 1.78681 15.1108 1.78681 12.9666C1.78681 11.5431 2.567 10.2389 3.79906 9.5616C3.79308 9.48172 3.79009 9.40164 3.79007 9.32156C3.79007 7.56284 5.20265 6.08524 7.11845 5.78932C7.81833 3.98174 9.54909 2.78569 11.5078 2.78569" fill="#F0F0F0"/>
</svg>
