<svg width="23" height="20" viewBox="0 0 23 20" fill="none" xmlns="http://www.w3.org/2000/svg">
<path d="M21.5774 11.7676C21.5774 12.2131 21.4958 12.6392 21.3463 13.032C20.8349 14.3738 19.5355 15.3268 18.0128 15.3268C16.4543 15.3268 15.1301 14.3284 14.6452 12.9371C11.7663 13.1437 10.1201 11.8588 9.4356 9.40986C7.70651 8.94029 6.43555 7.36165 6.43555 5.48615C6.43555 4.2732 6.96748 3.18404 7.81111 2.43951C8.52897 1.8049 9.47313 1.41992 10.5074 1.41992C11.6924 1.41992 12.7594 1.92511 13.5026 2.73265C14.0025 2.40624 14.5998 2.21704 15.2414 2.21704C15.6892 2.21704 16.116 2.30955 16.5027 2.47636C17.6218 2.95867 18.4086 4.06342 18.4261 5.35384C18.4267 5.36895 18.4267 5.38343 18.4267 5.39859L18.4261 5.45238V5.45301C18.5888 5.4173 18.7576 5.39859 18.9314 5.39859C19.7073 5.39859 20.3967 5.76967 20.8312 6.34384H20.8318C21.1332 6.74216 21.3118 7.23834 21.3118 7.77622C21.3128 8.33408 21.116 8.87432 20.7561 9.30108C20.7291 9.33396 20.701 9.366 20.6719 9.39716C21.2355 10.0263 21.5774 10.8573 21.5774 11.7676" fill="white"/>
<path d="M15.2025 5.19886C14.5576 5.89879 14.1637 6.83306 14.1637 7.85929C14.1637 10.0296 15.9256 11.7891 18.099 11.7891C18.3794 11.7893 18.659 11.7596 18.9332 11.7006M10.3359 3.93033C10.4344 5.34966 11.6186 6.47055 13.0649 6.47055M17.4152 5.94348C17.7077 5.70078 18.0547 5.53241 18.4265 5.4528M13.5031 2.73242C13.0449 3.03033 12.6685 3.44318 12.4149 3.93033" stroke="#4A5568" stroke-width="0.926271" stroke-miterlimit="10" stroke-linecap="round" stroke-linejoin="round"/>
<path d="M21.5774 11.7676C21.5774 13.7336 19.9815 15.3268 18.0128 15.3268C16.4543 15.3268 15.1301 14.3284 14.6452 12.9371C11.7663 13.1438 10.1201 11.8588 9.4356 9.40984C7.70651 8.94028 6.43555 7.36163 6.43555 5.48618C6.43555 3.24033 8.25841 1.41992 10.5074 1.41992C11.6924 1.41992 12.7594 1.92511 13.5026 2.73265C14.0025 2.40623 14.5998 2.21703 15.2414 2.21703C17.0007 2.21703 18.4267 3.64163 18.4267 5.39857L18.4261 5.45242V5.45299C18.5888 5.41729 18.7576 5.39857 18.9314 5.39857C20.2459 5.39857 21.3118 6.46285 21.3118 7.77621C21.3118 8.40302 21.069 8.97232 20.6719 9.39714C21.2355 10.0263 21.5774 10.8573 21.5774 11.7676H21.5774Z" stroke="#4A5568" stroke-width="0.810433" stroke-miterlimit="10" stroke-linejoin="round"/>
<path d="M20.6728 9.39686C20.6728 9.39686 20.3964 9.11051 20.0184 8.8125M10.0433 15.8518C9.8873 15.5263 9.78751 15.1768 9.74805 14.8182" stroke="#4A5568" stroke-width="0.926271" stroke-miterlimit="10" stroke-linecap="round" stroke-linejoin="round"/>
<path d="M17.0313 13.3776C17.1573 13.7268 17.2216 14.0951 17.2213 14.4662C17.2213 16.3749 15.5436 17.9214 13.4738 17.9214C11.939 17.9214 10.6201 17.071 10.0416 15.8532C9.56474 16.1766 8.99272 16.3652 8.37846 16.3652C7.00101 16.3652 5.83898 15.4187 5.47464 14.1241C5.21455 14.1889 4.94748 14.2215 4.67941 14.2214C2.88009 14.2214 1.4209 12.7647 1.4209 10.9673C1.4209 9.58692 2.28211 8.40717 3.49737 7.93514C3.44958 7.73755 3.42416 7.53264 3.42416 7.32235C3.42416 5.69232 4.94086 4.37109 6.81215 4.37109C7.88646 4.37109 8.84499 4.80739 9.46537 5.48673C9.9629 5.2202 10.5367 5.06735 11.1479 5.06735C13.0441 5.06735 14.5813 6.53543 14.5813 8.34611C14.5815 8.38882 14.5804 8.43153 14.5782 8.47418C16.1428 8.76069 17.332 10.1956 17.332 11.9229C17.332 12.442 17.2249 12.9346 17.0313 13.3776" fill="white"/>
<path d="M15.8141 11.7664C16.3726 12.1786 16.8 12.7359 17.03 13.3753M5.47332 14.1217C5.39585 13.8473 5.35471 13.5578 5.35471 13.258C5.35471 12.0347 6.04403 10.9765 7.04511 10.4706M4.34464 7.72851C4.0481 7.75872 3.76363 7.82824 3.49609 7.93279M9.46478 5.48495L9.4641 5.48438M9.4641 5.48438C9.0387 5.71406 8.66955 6.02718 8.38085 6.40072" stroke="#4A5568" stroke-width="0.926271" stroke-miterlimit="10" stroke-linecap="round" stroke-linejoin="round"/>
<path d="M17.0313 13.3776C17.1573 13.7268 17.2216 14.0951 17.2213 14.4662C17.2213 16.3749 15.5436 17.9214 13.4738 17.9214C11.939 17.9214 10.6201 17.071 10.0416 15.8532C9.56474 16.1766 8.99272 16.3652 8.37846 16.3652C7.00101 16.3652 5.83898 15.4187 5.47464 14.1241C5.21455 14.1889 4.94748 14.2215 4.67941 14.2214C2.88009 14.2214 1.4209 12.7647 1.4209 10.9673C1.4209 9.58692 2.28211 8.40717 3.49737 7.93514C3.44958 7.73755 3.42416 7.53264 3.42416 7.32235C3.42416 5.69232 4.94086 4.37109 6.81215 4.37109C7.88646 4.37109 8.84499 4.80739 9.46537 5.48673C9.9629 5.2202 10.5367 5.06735 11.1479 5.06735C13.0441 5.06735 14.5813 6.53543 14.5813 8.34611C14.5815 8.38882 14.5804 8.43153 14.5782 8.47418C16.1428 8.76069 17.332 10.1956 17.332 11.9229C17.332 12.442 17.2249 12.9346 17.0313 13.3776L17.0313 13.3776Z" stroke="#4A5568" stroke-width="0.810433" stroke-miterlimit="10" stroke-linejoin="round"/>
<path d="M11.6478 9.44752C12.2506 8.81413 13.0827 8.42188 14.0014 8.42188C14.1975 8.42188 14.3894 8.43944 14.5764 8.47378M14.3608 12.5907C13.8859 13.1838 13.1552 13.5637 12.3357 13.5637C10.9044 13.5637 9.74414 12.4049 9.74414 10.9757C9.74325 10.3789 9.94973 9.80031 10.3285 9.33859" stroke="#4A5568" stroke-width="0.926271" stroke-miterlimit="10" stroke-linecap="round" stroke-linejoin="round"/>
<path d="M13.4835 14.8463C13.4835 14.338 13.3552 13.86 13.1288 13.4423M8.06744 13.1934C8.49472 12.5612 9.15989 12.1036 9.9352 11.9483M3.44727 10.9703C3.77554 10.8404 4.12546 10.7739 4.47856 10.774C5.04471 10.7732 5.59764 10.9448 6.06355 11.266M8.77532 8.58848C8.59895 8.64033 8.41228 8.66814 8.21913 8.66814C7.70639 8.66877 7.21377 8.46893 6.84681 8.11133M17.2807 8.46229C17.5519 8.26015 17.8815 8.15121 18.2199 8.15174C18.314 8.15168 18.4079 8.15999 18.5004 8.17662" stroke="#4A5568" stroke-width="0.926271" stroke-miterlimit="10" stroke-linecap="round" stroke-linejoin="round"/>
<path d="M20.95 9.39906C21.3204 8.9401 21.5225 8.37101 21.5225 7.77682C21.5225 6.34914 20.3596 5.18761 18.9303 5.18761C18.8304 5.18761 18.7307 5.19341 18.6319 5.20483C18.5307 3.42394 17.0481 2.00614 15.2402 2.00614C14.6374 2.00614 14.0519 2.16375 13.536 2.46347C12.7321 1.6613 11.6426 1.21018 10.5062 1.20898C8.60153 1.20898 6.984 2.45712 6.4287 4.17709C4.62337 4.34575 3.21219 5.69155 3.21219 7.32173C3.21219 7.48399 3.2264 7.6465 3.25441 7.80677C2.00588 8.36557 1.20898 9.58709 1.20898 10.9668C1.20898 12.8777 2.76577 14.4323 4.67929 14.4323C4.8978 14.4324 5.11584 14.412 5.33055 14.3715C5.78475 15.6791 7.01097 16.5761 8.37838 16.5761C8.9332 16.5765 9.47836 16.4308 9.95885 16.1537C10.6354 17.3631 11.9886 18.1324 13.4736 18.1324C15.2816 18.1324 16.8094 17.0037 17.2815 15.4675C17.5189 15.5143 17.7631 15.5389 18.0116 15.5389C20.0939 15.5389 21.7881 13.8473 21.7881 11.7682C21.7881 10.902 21.4918 10.0678 20.95 9.39906Z" stroke="#4A5568" stroke-width="1.62095" stroke-miterlimit="10" stroke-linejoin="round"/>
<path d="M10.5077 0C9.38885 0 8.3126 0.332715 7.39537 0.96211C6.60338 1.50556 5.97558 2.23857 5.5609 3.09928C3.54229 3.5878 2.09908 5.20998 2.00784 7.1282C0.758444 7.99452 0 9.42487 0 10.9666C0 13.517 2.05614 15.5968 4.59982 15.6402C5.40304 16.9581 6.83485 17.7847 8.37983 17.7847C8.77449 17.7847 9.16235 17.7325 9.53856 17.6289C10.5123 18.7103 11.9428 19.3409 13.4751 19.3409C14.5131 19.3409 15.5185 19.0471 16.3827 18.4912C17.0849 18.0395 17.6507 17.4433 18.0423 16.7474C20.7788 16.7317 23 14.504 23 11.768C23 10.9226 22.7882 10.1024 22.3838 9.36904C22.615 8.86994 22.7346 8.32656 22.7344 7.7766C22.7344 6.78059 22.35 5.83873 21.6519 5.12467C21.1014 4.56151 20.4046 4.18949 19.6463 4.04552C19.39 3.2146 18.8991 2.46595 18.2284 1.89534C17.3949 1.18686 16.3363 0.797565 15.2418 0.797063C14.7316 0.797063 14.2196 0.883507 13.7372 1.04914C12.8 0.369658 11.6706 0 10.5077 0ZM10.5077 0.785689C11.6421 0.785689 12.7546 1.20639 13.6068 1.94915C14.1179 1.70781 14.6763 1.58271 15.2417 1.58285C17.1249 1.58285 18.7062 2.95051 19.01 4.76535C20.6367 4.80701 21.9475 6.14186 21.9475 7.77665C21.947 8.34946 21.7833 8.91029 21.4757 9.39377C21.9532 10.0886 22.2131 10.9199 22.2131 11.7681C22.2131 14.0806 20.3289 15.9619 18.0129 15.9619C17.8632 15.9619 17.7128 15.9538 17.5632 15.9376C16.9168 17.4957 15.288 18.5553 13.475 18.5553C11.9799 18.5553 10.6098 17.855 9.80589 16.7038C9.35571 16.8983 8.87036 16.9988 8.37983 16.999C6.95053 16.999 5.65782 16.1432 5.06254 14.8367C4.93572 14.8491 4.80812 14.8552 4.68076 14.8552C2.53365 14.8552 0.786813 13.1108 0.786813 10.9666C0.786813 9.54306 1.567 8.23885 2.79906 7.5616C2.79308 7.48172 2.79009 7.40164 2.79007 7.32156C2.79007 5.56284 4.20265 4.08524 6.11845 3.78932C6.81833 1.98174 8.54909 0.785689 10.5078 0.785689" fill="#F0F0F0"/>
</svg>
