<svg width="30" height="25" viewBox="0 0 30 25" fill="none" xmlns="http://www.w3.org/2000/svg">
<path d="M27.8916 15.2113C27.8916 15.7871 27.7861 16.3379 27.5929 16.8457C26.9318 18.58 25.2522 19.812 23.284 19.812C21.2696 19.812 19.5578 18.5214 18.9311 16.723C15.2098 16.9901 13.082 15.3292 12.1972 12.1637C9.96218 11.5567 8.31934 9.51618 8.31934 7.09192C8.31934 5.52408 9.00691 4.11623 10.0974 3.15385C11.0253 2.33356 12.2457 1.83594 13.5826 1.83594C15.1143 1.83594 16.4935 2.48895 17.4542 3.53277C18.1003 3.11085 18.8724 2.86628 19.7017 2.86628C20.2806 2.86628 20.8322 2.98587 21.3321 3.20149C22.7786 3.82491 23.7956 5.25291 23.8182 6.9209C23.819 6.94043 23.819 6.95915 23.819 6.97874L23.8182 7.04827V7.04908C24.0286 7.00293 24.2468 6.97874 24.4714 6.97874C25.4743 6.97874 26.3654 7.45841 26.927 8.20057H26.9279C27.3174 8.71544 27.5482 9.35679 27.5482 10.0521C27.5496 10.7731 27.2952 11.4715 26.8301 12.0231C26.7951 12.0656 26.7588 12.107 26.7212 12.1473C27.4497 12.9605 27.8916 14.0347 27.8916 15.2113" fill="white"/>
<path d="M19.6508 6.72131C18.8172 7.62603 18.3081 8.83367 18.3081 10.1602C18.3081 12.9655 20.5856 15.2398 23.3948 15.2398C23.7573 15.24 24.1188 15.2017 24.4731 15.1254M13.3604 5.08161C13.4876 6.91623 15.0183 8.36509 16.8878 8.36509M22.511 7.6838C22.8891 7.37008 23.3376 7.15245 23.8182 7.04954M17.4541 3.5332C16.862 3.91827 16.3754 4.45193 16.0477 5.08161" stroke="#4A5568" stroke-width="0.926271" stroke-miterlimit="10" stroke-linecap="round" stroke-linejoin="round"/>
<path d="M27.8916 15.2113C27.8916 17.7525 25.8287 19.8119 23.284 19.8119C21.2696 19.8119 19.5578 18.5214 18.9311 16.7229C15.2098 16.9901 13.082 15.3292 12.1972 12.1637C9.96218 11.5567 8.31934 9.51616 8.31934 7.09197C8.31934 4.18899 10.6756 1.83594 13.5826 1.83594C15.1143 1.83594 16.4935 2.48895 17.4542 3.53276C18.1003 3.11084 18.8724 2.86628 19.7017 2.86628C21.9759 2.86628 23.819 4.70771 23.819 6.97872L23.8182 7.04832V7.04906C24.0286 7.00291 24.2468 6.97872 24.4714 6.97872C26.1705 6.97872 27.5482 8.3544 27.5482 10.052C27.5482 10.8622 27.2345 11.5981 26.7212 12.1473C27.4497 12.9605 27.8916 14.0347 27.8916 15.2113H27.8916Z" stroke="#4A5568" stroke-width="0.810433" stroke-miterlimit="10" stroke-linejoin="round"/>
<path d="M26.7218 12.146C26.7218 12.146 26.3646 11.7758 25.876 11.3906M12.9823 20.4896C12.7806 20.0688 12.6516 19.6171 12.6006 19.1536" stroke="#4A5568" stroke-width="0.926271" stroke-miterlimit="10" stroke-linecap="round" stroke-linejoin="round"/>
<path d="M22.0148 17.2903C22.1777 17.7415 22.2608 18.2176 22.2604 18.6973C22.2604 21.1645 20.0919 23.1635 17.4164 23.1635C15.4325 23.1635 13.7278 22.0643 12.98 20.4902C12.3636 20.9082 11.6242 21.1519 10.8302 21.1519C9.04974 21.1519 7.54771 19.9285 7.07676 18.2551C6.74057 18.3388 6.39535 18.3811 6.04884 18.3809C3.72306 18.3809 1.83691 16.498 1.83691 14.1747C1.83691 12.3904 2.95011 10.8654 4.52095 10.2553C4.45917 9.9999 4.42631 9.73504 4.42631 9.46321C4.42631 7.35625 6.3868 5.64844 8.80562 5.64844C10.1943 5.64844 11.4333 6.21239 12.2352 7.0905C12.8783 6.74599 13.6199 6.54841 14.41 6.54841C16.861 6.54841 18.8479 8.44605 18.8479 10.7865C18.8482 10.8417 18.8469 10.8969 18.844 10.9521C20.8663 11.3224 22.4035 13.1771 22.4035 15.4098C22.4035 16.0809 22.265 16.7176 22.0148 17.2902" fill="white"/>
<path d="M20.4407 15.21C21.1627 15.7427 21.7151 16.4631 22.0124 17.2896M7.07431 18.2544C6.97417 17.8997 6.92099 17.5255 6.92099 17.138C6.92099 15.5568 7.81201 14.1889 9.106 13.5351M5.61538 9.99059C5.23207 10.0296 4.86437 10.1195 4.51855 10.2546M12.2336 7.09059L12.2328 7.08984M12.2328 7.08984C11.6829 7.38674 11.2057 7.79147 10.8326 8.27431" stroke="#4A5568" stroke-width="0.926271" stroke-miterlimit="10" stroke-linecap="round" stroke-linejoin="round"/>
<path d="M22.0148 17.2903C22.1777 17.7415 22.2608 18.2176 22.2604 18.6973C22.2604 21.1645 20.0919 23.1635 17.4164 23.1635C15.4325 23.1635 13.7278 22.0643 12.98 20.4902C12.3636 20.9082 11.6242 21.1519 10.8302 21.1519C9.04974 21.1519 7.54771 19.9285 7.07676 18.2551C6.74057 18.3388 6.39535 18.3811 6.04884 18.3809C3.72306 18.3809 1.83691 16.498 1.83691 14.1747C1.83691 12.3904 2.95011 10.8654 4.52095 10.2553C4.45917 9.9999 4.42631 9.73504 4.42631 9.46321C4.42631 7.35625 6.3868 5.64844 8.80562 5.64844C10.1943 5.64844 11.4333 6.21239 12.2352 7.0905C12.8783 6.74599 13.6199 6.54841 14.41 6.54841C16.861 6.54841 18.8479 8.44605 18.8479 10.7865C18.8482 10.8417 18.8469 10.8969 18.844 10.9521C20.8663 11.3224 22.4035 13.1771 22.4035 15.4098C22.4035 16.0809 22.265 16.7176 22.0148 17.2902L22.0148 17.2903Z" stroke="#4A5568" stroke-width="0.810433" stroke-miterlimit="10" stroke-linejoin="round"/>
<path d="M15.0553 12.2125C15.8345 11.3937 16.9101 10.8867 18.0977 10.8867C18.3512 10.8867 18.5992 10.9094 18.8408 10.9538M18.5622 16.2754C17.9483 17.0419 17.0039 17.533 15.9445 17.533C14.0945 17.533 12.5947 16.0352 12.5947 14.1878C12.5936 13.4164 12.8605 12.6685 13.35 12.0717" stroke="#4A5568" stroke-width="0.926271" stroke-miterlimit="10" stroke-linecap="round" stroke-linejoin="round"/>
<path d="M17.4279 19.1899C17.4279 18.533 17.262 17.9151 16.9694 17.3752M10.4271 17.0534C10.9794 16.2362 11.8392 15.6448 12.8414 15.4441M4.45508 14.1799C4.8794 14.012 5.33171 13.9259 5.78812 13.9261C6.51993 13.9251 7.23465 14.1469 7.83688 14.5621M11.3421 11.1011C11.1141 11.1682 10.8728 11.2041 10.6232 11.2041C9.9604 11.2049 9.32364 10.9466 8.84931 10.4844M22.3361 10.938C22.6867 10.6767 23.1127 10.5359 23.5502 10.5366C23.6717 10.5365 23.7931 10.5473 23.9127 10.5688" stroke="#4A5568" stroke-width="0.926271" stroke-miterlimit="10" stroke-linecap="round" stroke-linejoin="round"/>
<path d="M27.0797 12.1489C27.5584 11.5557 27.8196 10.8201 27.8196 10.052C27.8196 8.20664 26.3165 6.70524 24.469 6.70524C24.3399 6.70524 24.211 6.71274 24.0832 6.72751C23.9525 4.42554 22.0361 2.5929 19.6992 2.5929C18.92 2.5929 18.1632 2.79662 17.4963 3.18404C16.4573 2.14716 15.049 1.56404 13.58 1.5625C11.1181 1.5625 9.02725 3.17584 8.30948 5.39905C5.97591 5.61707 4.15184 7.35664 4.15184 9.4638C4.15184 9.67354 4.1702 9.8836 4.20641 10.0908C2.59256 10.8131 1.5625 12.392 1.5625 14.1754C1.5625 16.6454 3.5748 18.6549 6.04819 18.6549C6.33065 18.655 6.61249 18.6286 6.89001 18.5763C7.47711 20.2665 9.06211 21.4259 10.8296 21.4259C11.5468 21.4264 12.2514 21.2381 12.8725 20.88C13.747 22.4432 15.4962 23.4376 17.4157 23.4376C19.7528 23.4376 21.7276 21.9787 22.3377 19.993C22.6447 20.0534 22.9603 20.0853 23.2814 20.0853C25.973 20.0853 28.163 17.8987 28.163 15.2113C28.163 14.0917 27.7799 13.0134 27.0797 12.1489Z" stroke="#4A5568" stroke-width="1.62095" stroke-miterlimit="10" stroke-linejoin="round"/>
<path d="M13.5822 0C12.136 0 10.7448 0.430066 9.55921 1.24362C8.5355 1.94608 7.72401 2.89357 7.18799 4.00612C4.57875 4.63757 2.71326 6.7344 2.59532 9.21388C0.980361 10.3337 0 12.1825 0 14.1754C0 17.4719 2.65775 20.1604 5.9457 20.2164C6.98394 21.9199 8.83469 22.9884 10.8317 22.9884C11.3419 22.9884 11.8432 22.9209 12.3295 22.787C13.5881 24.1848 15.4372 25 17.4178 25C18.7595 25 20.0591 24.6201 21.1761 23.9016C22.0839 23.3178 22.8153 22.5472 23.3214 21.6476C26.8586 21.6274 29.7297 18.7478 29.7297 15.2113C29.7297 14.1186 29.456 13.0583 28.9332 12.1104C29.232 11.4652 29.3866 10.7629 29.3864 10.052C29.3864 8.76455 28.8895 7.54711 27.9871 6.62413C27.2755 5.89618 26.3749 5.41531 25.3947 5.22922C25.0634 4.15517 24.4289 3.18747 23.5619 2.44991C22.4846 1.53413 21.1162 1.03093 19.7014 1.03028C19.042 1.03028 18.3802 1.14202 17.7566 1.35611C16.5452 0.477818 15.0853 0 13.5822 0ZM13.5822 1.01558C15.0486 1.01558 16.4865 1.55937 17.588 2.51946C18.2487 2.20751 18.9705 2.0458 19.7013 2.04598C22.1356 2.04598 24.1796 3.81381 24.5722 6.15966C26.6749 6.21352 28.3693 7.93894 28.3693 10.0521C28.3685 10.7925 28.157 11.5174 27.7593 12.1423C28.3766 13.0405 28.7126 14.115 28.7126 15.2113C28.7126 18.2005 26.277 20.6323 23.2834 20.6323C23.0899 20.6323 22.8955 20.6217 22.7022 20.6009C21.8666 22.6148 19.7612 23.9845 17.4177 23.9845C15.4852 23.9845 13.7142 23.0793 12.675 21.5912C12.0931 21.8427 11.4658 21.9726 10.8317 21.9728C8.98421 21.9728 7.31326 20.8666 6.54381 19.1778C6.37988 19.1938 6.21496 19.2018 6.05032 19.2018C3.27499 19.2018 1.01703 16.947 1.01703 14.1754C1.01703 12.3353 2.02549 10.6495 3.61804 9.77408C3.61032 9.67084 3.60645 9.56732 3.60643 9.46381C3.60643 7.19049 5.43232 5.28055 7.90867 4.89806C8.81333 2.56159 11.0505 1.01558 13.5823 1.01558" fill="#F0F0F0"/>
</svg>
