<svg width="30" height="26" viewBox="0 0 30 26" fill="none" xmlns="http://www.w3.org/2000/svg">
<g clip-path="url(#clip0_33365_46552)">
<path d="M27.3628 15.6577C27.3628 16.2219 27.2593 16.7617 27.0697 17.2593C26.4212 18.9589 24.7734 20.1662 22.8424 20.1662C20.8662 20.1662 19.1869 18.9015 18.5721 17.139C14.9212 17.4008 12.8337 15.7732 11.9656 12.671C9.77297 12.0761 8.16125 10.0764 8.16125 7.70067C8.16125 6.16417 8.83582 4.78448 9.90565 3.84135C10.816 3.03747 12.0133 2.5498 13.3248 2.5498C14.8275 2.5498 16.1806 3.18975 17.123 4.21269C17.7569 3.79921 18.5144 3.55954 19.3281 3.55954C19.8959 3.55954 20.4371 3.67673 20.9275 3.88804C22.3466 4.49899 23.3443 5.89843 23.3666 7.53306C23.3673 7.55219 23.3673 7.57056 23.3673 7.58974L23.3666 7.6579V7.65864C23.5729 7.61345 23.7871 7.58974 24.0074 7.58974C24.9913 7.58974 25.8655 8.05984 26.4164 8.78712H26.4173C26.7995 9.29167 27.0259 9.92019 27.0259 10.6016C27.0273 11.3083 26.7777 11.9926 26.3214 12.5331C26.2871 12.5748 26.2515 12.6154 26.2146 12.6549C26.9292 13.4519 27.3628 14.5046 27.3628 15.6577" fill="white"/>
<path d="M19.2786 7.33626C18.4608 8.22288 17.9613 9.40636 17.9613 10.7063C17.9613 13.4556 20.1956 15.6844 22.9517 15.6844C23.3073 15.6846 23.6619 15.647 24.0095 15.5723M13.1073 5.72935C13.2322 7.52729 14.7338 8.94718 16.5679 8.94718M22.0846 8.2795C22.4555 7.97207 22.8955 7.7588 23.3671 7.65792M17.1235 4.21191C16.5426 4.58928 16.0651 5.11226 15.7437 5.72935" stroke="#103849" stroke-width="0.61659" stroke-miterlimit="10" stroke-linecap="round" stroke-linejoin="round"/>
<path d="M27.3631 15.6566C27.3631 18.1471 25.3392 20.1653 22.8427 20.1653C20.8664 20.1653 19.1871 18.9005 18.5723 17.1381C14.9215 17.3998 12.8339 15.7722 11.9659 12.67C9.77321 12.0752 8.1615 10.0755 8.1615 7.6997C8.1615 4.85482 10.4731 2.54883 13.3251 2.54883C14.8277 2.54883 16.1808 3.18877 17.1233 4.21171C17.7572 3.79823 18.5147 3.55856 19.3283 3.55856C21.5593 3.55856 23.3676 5.36316 23.3676 7.58876L23.3668 7.65692V7.65767C23.5732 7.61248 23.7873 7.58876 24.0076 7.58876C25.6746 7.58876 27.0261 8.93693 27.0261 10.6006C27.0261 11.3946 26.7184 12.1158 26.2148 12.6539C26.9294 13.4509 27.363 14.5036 27.363 15.6567L27.3631 15.6566Z" stroke="#103849" stroke-width="0.53948" stroke-miterlimit="10" stroke-linejoin="round"/>
<path d="M26.2149 12.6533C26.2149 12.6533 25.8645 12.2906 25.3852 11.9131M12.7356 20.83C12.5378 20.4177 12.4112 19.9751 12.3612 19.5207" stroke="#103849" stroke-width="0.61659" stroke-miterlimit="10" stroke-linecap="round" stroke-linejoin="round"/>
<path d="M21.5987 17.6951C21.7585 18.1373 21.84 18.6039 21.8396 19.074C21.8396 21.4918 19.7122 23.4509 17.0873 23.4509C15.1411 23.4509 13.4686 22.3736 12.7349 20.831C12.1303 21.2406 11.4049 21.4795 10.6259 21.4795C8.87921 21.4795 7.40558 20.2806 6.9436 18.6406C6.61375 18.7227 6.27507 18.7641 5.93513 18.7639C3.6534 18.7639 1.80298 16.9187 1.80298 14.6418C1.80298 12.8932 2.89509 11.3988 4.43617 10.8008C4.37556 10.5505 4.34333 10.291 4.34333 10.0246C4.34333 7.95976 6.26668 6.28613 8.6397 6.28613C10.002 6.28613 11.2176 6.8388 12.0043 7.69936C12.6352 7.36173 13.3628 7.16811 14.1379 7.16811C16.5424 7.16811 18.4918 9.02777 18.4918 11.3215C18.492 11.3756 18.4907 11.4297 18.4879 11.4837C20.4719 11.8466 21.98 13.6642 21.98 15.8523C21.98 16.5099 21.8442 17.1339 21.5986 17.695" fill="white"/>
<path d="M20.0581 15.657C20.7663 16.179 21.3083 16.885 21.6 17.695M6.94487 18.6404C6.84661 18.2929 6.7944 17.9261 6.7944 17.5464C6.7944 15.9968 7.66858 14.6563 8.93804 14.0155M5.51355 10.5419C5.1375 10.5802 4.77677 10.6683 4.4375 10.8007M12.0065 7.69997L12.0056 7.69922M12.0056 7.69922C11.4661 7.99017 10.998 8.38682 10.6319 8.85997" stroke="#103849" stroke-width="0.61659" stroke-miterlimit="10" stroke-linecap="round" stroke-linejoin="round"/>
<path d="M21.6008 17.6951C21.7605 18.1373 21.842 18.6039 21.8417 19.074C21.8417 21.4918 19.7142 23.4509 17.0894 23.4509C15.1431 23.4509 13.4707 22.3736 12.737 20.831C12.1323 21.2406 11.407 21.4795 10.628 21.4795C8.88128 21.4795 7.40766 20.2806 6.94567 18.6406C6.61583 18.7227 6.27714 18.7641 5.9372 18.7639C3.65547 18.7639 1.80505 16.9187 1.80505 14.6418C1.80505 12.8932 2.89716 11.3988 4.43825 10.8008C4.37764 10.5506 4.3454 10.291 4.3454 10.0246C4.3454 7.95976 6.26875 6.28613 8.64177 6.28613C10.0041 6.28613 11.2197 6.8388 12.0063 7.69936C12.6373 7.36173 13.3648 7.16811 14.14 7.16811C16.5445 7.16811 18.4938 9.02777 18.4938 11.3215C18.4941 11.3756 18.4928 11.4297 18.49 11.4837C20.474 11.8466 21.982 13.6642 21.982 15.8523C21.982 16.5099 21.8463 17.1339 21.6007 17.695L21.6008 17.6951Z" stroke="#103849" stroke-width="0.53948" stroke-miterlimit="10" stroke-linejoin="round"/>
<path d="M14.7748 12.7172C15.5393 11.9149 16.5945 11.418 17.7595 11.418C18.0082 11.418 18.2515 11.4402 18.4886 11.4837M18.2153 16.6988C17.613 17.4501 16.6865 17.9313 15.6472 17.9313C13.8322 17.9313 12.3608 16.4635 12.3608 14.653C12.3597 13.897 12.6216 13.1641 13.1018 12.5792" stroke="#103849" stroke-width="0.61659" stroke-miterlimit="10" stroke-linecap="round" stroke-linejoin="round"/>
<path d="M17.1012 19.5539C17.1012 18.91 16.9384 18.3045 16.6513 17.7755M10.2329 17.4601C10.7747 16.6592 11.6183 16.0796 12.6014 15.8829M4.37402 14.6441C4.79031 14.4796 5.23405 14.3951 5.68181 14.3953C6.39976 14.3943 7.10094 14.6117 7.69179 15.0186M11.1306 11.6269C10.9069 11.6926 10.6702 11.7278 10.4253 11.7278C9.77506 11.7286 9.15038 11.4754 8.68501 11.0225M21.9163 11.467C22.2603 11.211 22.6782 11.073 23.1074 11.0736C23.2267 11.0736 23.3457 11.0841 23.4631 11.1051" stroke="#103849" stroke-width="0.61659" stroke-miterlimit="10" stroke-linecap="round" stroke-linejoin="round"/>
<path d="M26.5697 12.656C27.0394 12.0746 27.2956 11.3537 27.2956 10.601C27.2956 8.79252 25.821 7.32113 24.0085 7.32113C23.8818 7.32113 23.7554 7.32848 23.63 7.34295C23.5018 5.08703 21.6216 3.29104 19.329 3.29104C18.5646 3.29104 17.8221 3.49069 17.1679 3.87035C16.1485 2.85422 14.7669 2.28276 13.3258 2.28125C10.9105 2.28125 8.85923 3.86231 8.15508 6.04106C5.8657 6.25472 4.07618 7.95952 4.07618 10.0245C4.07618 10.23 4.0942 10.4359 4.12971 10.6389C2.54643 11.3468 1.53589 12.8941 1.53589 14.6418C1.53589 17.0624 3.51007 19.0318 5.93662 19.0318C6.21372 19.0318 6.49022 19.006 6.7625 18.9547C7.33846 20.6111 8.89342 21.7473 10.6275 21.7473C11.3311 21.7478 12.0223 21.5633 12.6317 21.2124C13.4896 22.7443 15.2056 23.7188 17.0888 23.7188C19.3816 23.7188 21.319 22.289 21.9176 20.3431C22.2187 20.4023 22.5283 20.4335 22.8434 20.4335C25.4841 20.4335 27.6325 18.2907 27.6325 15.657C27.6325 14.5598 27.2567 13.5031 26.5697 12.6559V12.656Z" stroke="#103849" stroke-width="1.07902" stroke-miterlimit="10" stroke-linejoin="round"/>
<path d="M13.3249 0.75C11.9061 0.75 10.5413 1.17146 9.37816 1.96874C8.37383 2.65715 7.5777 3.58569 7.05182 4.67598C4.49202 5.2948 2.66186 7.34969 2.54616 9.7796C0.96179 10.877 0 12.6888 0 14.6418C0 17.8724 2.60741 20.5072 5.83308 20.5621C6.85163 22.2315 8.66734 23.2785 10.6265 23.2785C11.127 23.2785 11.6189 23.2124 12.096 23.0812C13.3307 24.451 15.1448 25.2499 17.0879 25.2499C18.4042 25.2499 19.6791 24.8776 20.775 24.1735C21.6656 23.6014 22.3831 22.8462 22.8797 21.9646C26.3499 21.9447 29.1666 19.1228 29.1666 15.657C29.1666 14.5862 28.898 13.5472 28.3851 12.6182C28.6782 11.9859 28.8299 11.2976 28.8297 10.6009C28.8297 9.33924 28.3422 8.14617 27.457 7.24163C26.7589 6.52824 25.8753 6.05699 24.9136 5.87463C24.5886 4.82206 23.9662 3.87371 23.1156 3.15091C22.0587 2.25345 20.7162 1.7603 19.3282 1.75967C18.6813 1.75967 18.032 1.86918 17.4203 2.07899C16.2319 1.21826 14.7996 0.75 13.3249 0.75ZM13.3249 1.74526C14.7635 1.74526 16.1742 2.27818 17.2548 3.21906C17.903 2.91335 18.6111 2.75487 19.3281 2.75505C21.7163 2.75505 23.7215 4.48753 24.1067 6.78646C26.1697 6.83923 27.8319 8.53014 27.8319 10.601C27.8312 11.3266 27.6236 12.037 27.2335 12.6495C27.8391 13.5296 28.1687 14.5827 28.1687 15.6571C28.1687 18.5864 25.7793 20.9696 22.8424 20.9696C22.6525 20.9696 22.4618 20.9592 22.2721 20.9388C21.4524 22.9124 19.3869 24.2547 17.0879 24.2547C15.1918 24.2547 13.4544 23.3677 12.4349 21.9093C11.864 22.1558 11.2486 22.283 10.6265 22.2833C8.81406 22.2833 7.17472 21.1992 6.41986 19.5442C6.25903 19.5599 6.09723 19.5677 5.93571 19.5677C3.21295 19.5677 0.997766 17.358 0.997766 14.6418C0.997766 12.8385 1.98713 11.1865 3.54951 10.3286C3.54193 10.2274 3.53813 10.126 3.53811 10.0245C3.53811 7.79665 5.32942 5.92493 7.75885 5.55009C8.64638 3.26035 10.8412 1.74526 13.325 1.74526" fill="#F0F0F0"/>
</g>
<defs>
<clipPath id="clip0_33365_46552">
<rect width="29.1667" height="24.5" fill="white" transform="translate(0 0.75)"/>
</clipPath>
</defs>
</svg>
