<svg width="44" height="37" viewBox="0 0 44 37" fill="none" xmlns="http://www.w3.org/2000/svg">
<g clip-path="url(#clip0_33268_34407)">
<path d="M41.2793 22.5133C41.2793 23.3655 41.1231 24.1806 40.8371 24.9321C39.8588 27.4989 37.373 29.3222 34.46 29.3222C31.4786 29.3222 28.9453 27.4122 28.0178 24.7505C22.5103 25.1458 19.3611 22.6878 18.0516 18.0028C14.7438 17.1045 12.3124 14.0845 12.3124 10.4966C12.3124 8.1762 13.33 6.09259 14.9439 4.66828C16.3172 3.45425 18.1234 2.71777 20.102 2.71777C22.3688 2.71777 24.4101 3.68422 25.8318 5.22907C26.7882 4.60463 27.9309 4.24268 29.1583 4.24268C30.0149 4.24268 30.8314 4.41966 31.5712 4.73878C33.712 5.66144 35.2172 7.77488 35.2507 10.2435C35.2518 10.2724 35.2518 10.3001 35.2518 10.3291L35.2507 10.432V10.4332C35.562 10.3649 35.885 10.3291 36.2174 10.3291C37.7017 10.3291 39.0205 11.039 39.8516 12.1374H39.8529C40.4294 12.8994 40.7711 13.8486 40.7711 14.8776C40.7731 15.9448 40.3965 16.9783 39.7082 17.7947C39.6565 17.8576 39.6027 17.9189 39.5471 17.9785C40.6252 19.1821 41.2792 20.7719 41.2792 22.5133" fill="#FF5CAA"/>
<path d="M29.0823 9.94691C27.8486 11.2859 27.0951 13.0732 27.0951 15.0364C27.0951 19.1883 30.4657 22.5543 34.6235 22.5543C35.1599 22.5545 35.6948 22.4978 36.2192 22.385M19.7725 7.52016C19.9608 10.2354 22.2262 12.3797 24.993 12.3797M33.3154 11.3714C33.8749 10.9071 34.5387 10.585 35.2501 10.4327M25.8312 5.22852C24.9549 5.79841 24.2346 6.58822 23.7496 7.52016" stroke="#103849" stroke-width="0.926271" stroke-miterlimit="10" stroke-linecap="round" stroke-linejoin="round"/>
<path d="M41.2789 22.5123C41.2789 26.2733 38.2258 29.3212 34.4596 29.3212C31.4783 29.3212 28.9449 27.4112 28.0175 24.7495C22.5099 25.1449 19.3607 22.6868 18.0512 18.0018C14.7434 17.1035 12.312 14.0835 12.312 10.4957C12.312 6.19931 15.7992 2.7168 20.1017 2.7168C22.3685 2.7168 24.4097 3.68325 25.8315 5.22809C26.7878 4.60365 27.9305 4.2417 29.158 4.2417C32.5236 4.2417 35.2514 6.96701 35.2514 10.3281L35.2503 10.4311V10.4322C35.5616 10.3639 35.8846 10.3281 36.217 10.3281C38.7317 10.3281 40.7707 12.3641 40.7707 14.8766C40.7707 16.0757 40.3064 17.1648 39.5467 17.9775C40.6248 19.1811 41.2788 20.7709 41.2788 22.5123L41.2789 22.5123Z" stroke="#103849" stroke-width="0.810433" stroke-miterlimit="10" stroke-linejoin="round"/>
<path d="M39.5468 17.9773C39.5468 17.9773 39.0181 17.4295 38.2951 16.8594M19.2123 30.3258C18.9139 29.7031 18.7229 29.0346 18.6475 28.3485" stroke="#103849" stroke-width="0.926271" stroke-miterlimit="10" stroke-linecap="round" stroke-linejoin="round"/>
<path d="M32.5839 25.5902C32.825 26.2581 32.9479 26.9627 32.9473 27.6726C32.9473 31.324 29.738 34.2826 25.7782 34.2826C22.8422 34.2826 20.3192 32.6558 19.2124 30.3261C18.3002 30.9447 17.2059 31.3054 16.0307 31.3054C13.3957 31.3054 11.1726 29.4948 10.4757 27.0182C9.9781 27.1421 9.46717 27.2046 8.95434 27.2044C5.51219 27.2044 2.7207 24.4177 2.7207 20.9792C2.7207 18.3384 4.36823 16.0815 6.69307 15.1785C6.60163 14.8005 6.553 14.4085 6.553 14.0062C6.553 10.8879 9.45451 8.36035 13.0344 8.36035C15.0895 8.36035 16.9233 9.19499 18.1101 10.4946C19.0619 9.98472 20.1595 9.69231 21.3289 9.69231C24.9562 9.69231 27.8969 12.5008 27.8969 15.9647C27.8973 16.0464 27.8954 16.1281 27.8911 16.2097C30.8841 16.7578 33.1591 19.5028 33.1591 22.8072C33.1591 23.8003 32.9543 24.7427 32.5838 25.5901" fill="#FF5CAA"/>
<path d="M30.2578 22.5129C31.3263 23.3013 32.1439 24.3675 32.5839 25.5907M10.4757 27.0186C10.3274 26.4937 10.2487 25.9399 10.2487 25.3664C10.2487 23.0261 11.5674 21.0017 13.4825 20.034M8.31641 14.7882C7.74912 14.846 7.20492 14.979 6.69312 15.179M18.1114 10.4962L18.1101 10.4951M18.1101 10.4951C17.2963 10.9345 16.5901 11.5335 16.0378 12.2481" stroke="#103849" stroke-width="0.926271" stroke-miterlimit="10" stroke-linecap="round" stroke-linejoin="round"/>
<path d="M32.5841 25.5902C32.8251 26.2581 32.9481 26.9627 32.9475 27.6726C32.9475 31.324 29.7381 34.2826 25.7784 34.2826C22.8423 34.2826 20.3193 32.6558 19.2125 30.3261C18.3003 30.9447 17.206 31.3054 16.0308 31.3054C13.3958 31.3054 11.1728 29.4948 10.4758 27.0182C9.97822 27.1421 9.46729 27.2046 8.95446 27.2044C5.51232 27.2044 2.72083 24.4177 2.72083 20.9792C2.72083 18.3384 4.36835 16.0815 6.69319 15.1785C6.60175 14.8005 6.55312 14.4085 6.55312 14.0062C6.55312 10.8879 9.45463 8.36035 13.0345 8.36035C15.0896 8.36035 16.9234 9.19499 18.1102 10.4946C19.062 9.98472 20.1596 9.69231 21.329 9.69231C24.9564 9.69231 27.897 12.5008 27.897 15.9647C27.8974 16.0464 27.8955 16.1281 27.8912 16.2097C30.8843 16.7578 33.1593 19.5028 33.1593 22.8072C33.1593 23.8003 32.9544 24.7427 32.584 25.5901L32.5841 25.5902Z" stroke="#103849" stroke-width="0.810433" stroke-miterlimit="10" stroke-linejoin="round"/>
<path d="M22.2889 18.0735C23.4421 16.8618 25.034 16.1113 26.7915 16.1113C27.1667 16.1113 27.5338 16.1449 27.8914 16.2106M27.4791 24.0865C26.5705 25.221 25.1727 25.9478 23.6049 25.9478C20.8668 25.9478 18.6472 23.7311 18.6472 20.9969C18.6455 19.8552 19.0405 18.7483 19.765 17.8651" stroke="#103849" stroke-width="0.926271" stroke-miterlimit="10" stroke-linecap="round" stroke-linejoin="round"/>
<path d="M25.7972 28.3988C25.7972 27.4265 25.5516 26.5121 25.1186 25.7131M15.4359 25.2367C16.2533 24.0273 17.5259 23.152 19.009 22.8549M6.59741 20.984C7.22541 20.7356 7.89483 20.6081 8.57031 20.6083C9.65338 20.6068 10.7112 20.9351 11.6025 21.5496M16.7901 16.4274C16.4528 16.5266 16.0957 16.5798 15.7261 16.5798C14.7453 16.5811 13.8029 16.1987 13.1008 15.5146M33.0612 16.186C33.5802 15.7993 34.2105 15.5909 34.858 15.5919C35.038 15.5918 35.2176 15.6077 35.3947 15.6395" stroke="#103849" stroke-width="0.926271" stroke-miterlimit="10" stroke-linecap="round" stroke-linejoin="round"/>
<path d="M40.0809 17.9804C40.7895 17.1024 41.176 16.0137 41.176 14.877C41.176 12.1458 38.9513 9.92374 36.2171 9.92374C36.0259 9.92374 35.8352 9.93484 35.6461 9.95669C35.4526 6.54979 32.6163 3.83749 29.1578 3.83749C28.0046 3.83749 26.8844 4.139 25.8976 4.71237C24.3598 3.1778 22.2754 2.31478 20.1015 2.3125C16.4578 2.3125 13.3633 4.70023 12.3011 7.99058C8.84738 8.31325 6.14776 10.8878 6.14776 14.0064C6.14776 14.3168 6.17494 14.6277 6.22852 14.9343C3.84003 16.0033 2.31555 18.3401 2.31555 20.9795C2.31555 24.6351 5.29374 27.6092 8.95436 27.6092C9.3724 27.6093 9.78952 27.5703 10.2003 27.4928C11.0691 29.9943 13.4149 31.7103 16.0308 31.7103C17.0923 31.711 18.1351 31.4323 19.0543 30.9023C20.3485 33.2159 22.9373 34.6875 25.7783 34.6875C29.2371 34.6875 32.1598 32.5284 33.0628 29.5896C33.517 29.679 33.9842 29.7261 34.4594 29.7261C38.4431 29.7261 41.6841 26.49 41.6841 22.5126C41.6841 20.8556 41.1173 19.2598 40.0809 17.9804V17.9804Z" stroke="#103849" stroke-width="1.62095" stroke-miterlimit="10" stroke-linejoin="round"/>
<path d="M20.1016 0C17.9612 0 15.9023 0.636496 14.1476 1.84055C12.6325 2.88019 11.4315 4.28247 10.6382 5.92904C6.77653 6.86358 4.01561 9.96688 3.84107 13.6365C1.45093 15.2938 0 18.0301 0 20.9795C0 25.8584 3.93346 29.8373 8.79962 29.9202C10.3362 32.4414 13.0753 34.0227 16.0309 34.0227C16.7859 34.0227 17.5279 33.9228 18.2476 33.7247C20.1103 35.7934 22.847 36.9999 25.7783 36.9999C27.764 36.9999 29.6874 36.4376 31.3406 35.3743C32.6841 34.5102 33.7665 33.3697 34.5156 32.0384C39.7506 32.0084 43.9998 27.7466 43.9998 22.5126C43.9998 20.8954 43.5947 19.3263 42.821 17.9233C43.2631 16.9685 43.492 15.929 43.4917 14.8769C43.4917 12.9715 42.7563 11.1697 41.4208 9.80368C40.3677 8.72632 39.0347 8.01464 37.584 7.73923C37.0937 6.14964 36.1547 4.71744 34.8715 3.62586C33.2771 2.27051 31.2519 1.52577 29.158 1.52481C28.1821 1.52481 27.2026 1.69018 26.2797 2.00704C24.4869 0.707169 22.3262 0 20.1016 0ZM20.1016 1.50305C22.2718 1.50305 24.4 2.30786 26.0302 3.72879C27.008 3.2671 28.0762 3.02777 29.1579 3.02804C32.7606 3.02804 35.7857 5.64443 36.3668 9.11628C39.4788 9.19598 41.9864 11.7496 41.9864 14.877C41.9853 15.9728 41.6722 17.0457 41.0837 17.9706C41.9972 19.2999 42.4945 20.8902 42.4945 22.5127C42.4945 26.9366 38.8899 30.5357 34.4594 30.5357C34.1729 30.5357 33.8853 30.5201 33.5991 30.4892C32.3625 33.4698 29.2465 35.497 25.7782 35.497C22.918 35.497 20.2969 34.1573 18.759 31.9549C17.8978 32.3271 16.9693 32.5193 16.0309 32.5197C13.2966 32.5197 10.8236 30.8825 9.68482 28.3831C9.4422 28.4068 9.19811 28.4186 8.95445 28.4186C4.84697 28.4186 1.5052 25.0815 1.5052 20.9795C1.5052 18.2562 2.99772 15.7612 5.35469 14.4656C5.34326 14.3128 5.33752 14.1596 5.3375 14.0064C5.3375 10.6419 8.03981 7.8152 11.7048 7.24911C13.0437 3.79114 16.3547 1.50305 20.1017 1.50305" fill="#F0F0F0"/>
</g>
<defs>
<clipPath id="clip0_33268_34407">
<rect width="44" height="37" fill="white"/>
</clipPath>
</defs>
</svg>
