<svg width="25" height="24" viewBox="0 0 25 24" fill="none" xmlns="http://www.w3.org/2000/svg">
<path d="M1.5013 0H22.8347C23.5711 0 24.168 0.59696 24.168 1.33333V22.6667C24.168 23.4031 23.5711 24 22.8347 24H1.5013C0.764915 24 0.167969 23.4031 0.167969 22.6667V1.33333C0.167969 0.59696 0.764915 0 1.5013 0ZM2.83464 2.66667V21.3333H21.5013V2.66667H2.83464ZM6.16797 8C5.0634 8 4.16797 7.10457 4.16797 6C4.16797 4.89543 5.0634 4 6.16797 4C7.27253 4 8.16797 4.89543 8.16797 6C8.16797 7.10457 7.27253 8 6.16797 8ZM4.83464 9.33333H7.5013V19.3333H4.83464V9.33333ZM12.168 9.906C12.9472 9.15379 13.8553 8.66667 14.8347 8.66667C17.596 8.66667 19.5013 10.9052 19.5013 13.6667V19.3333H16.8347V13.6667C16.8347 12.378 15.79 11.3333 14.5013 11.3333C13.2127 11.3333 12.168 12.378 12.168 13.6667V19.3333H9.50133V9.33333H12.168V9.906Z" fill="#4A5568"/>
</svg>
