<svg width="25" height="24" viewBox="0 0 25 24" fill="none" xmlns="http://www.w3.org/2000/svg">
<path d="M1.50133 0H22.8347C23.5711 0 24.168 0.59696 24.168 1.33333V22.6667C24.168 23.4031 23.5711 24 22.8347 24H1.50133C0.764946 24 0.167999 23.4031 0.167999 22.6667V1.33333C0.167999 0.59696 0.764946 0 1.50133 0ZM2.83467 2.66667V21.3333H21.5014V2.66667H2.83467ZM6.168 8C5.06343 8 4.168 7.10457 4.168 6C4.168 4.89543 5.06343 4 6.168 4C7.27256 4 8.168 4.89543 8.168 6C8.168 7.10457 7.27256 8 6.168 8ZM4.83467 9.33333H7.50133V19.3333H4.83467V9.33333ZM12.168 9.906C12.9472 9.15379 13.8554 8.66667 14.8347 8.66667C17.596 8.66667 19.5014 10.9052 19.5014 13.6667V19.3333H16.8347V13.6667C16.8347 12.378 15.79 11.3333 14.5014 11.3333C13.2127 11.3333 12.168 12.378 12.168 13.6667V19.3333H9.50136V9.33333H12.168V9.906Z" fill="white" fill-opacity="0.8"/>
</svg>
